<?xml version="1.0" standalone="no"?>
<!DOCTYPE svg PUBLIC "-//W3C//DTD SVG 1.1//EN" "http://www.w3.org/Graphics/SVG/1.1/DTD/svg11.dtd" >
<svg xmlns="http://www.w3.org/2000/svg" xmlns:xlink="http://www.w3.org/1999/xlink" version="1.1">
<metadata>
Created by FontForge 20141024 at Wed Oct  7 13:14:03 2015
 By Jimmy Warting
Copyright (c) 2002, 2005 Parachute :, www.parachute.gr.  All rights reserved.
</metadata>
<defs>
<font id="PFDinDisplayPro-BoldItalic" horiz-adv-x="1818" >
  <font-face 
    font-family="PF DinDisplay Pro"
    font-weight="700"
    font-style="italic"
    font-stretch="normal"
    units-per-em="1000"
    panose-1="2 0 8 6 0 0 0 9 0 4"
    ascent="750"
    descent="-250"
    x-height="494"
    cap-height="689"
    bbox="-214 -317 1760 949"
    underline-thickness="50"
    underline-position="-50"
    slope="-12"
    unicode-range="U+0020-FB05"
  />
<missing-glyph horiz-adv-x="452" 
d="M0 700h452v-700h-452v700zM339 76l-113 205l-113 -205h226zM339 624h-227l114 -203zM76 155l107 195l-107 198v-393zM376 155v390l-108 -195z" />
    <glyph glyph-name="ff" unicode="ff" horiz-adv-x="602" 
d="M382 598q-8 1 -15.5 1h-14.5q-25 0 -40.5 -5.5t-24.5 -15t-13.5 -22.5t-7.5 -28l-6 -33h138l10 55q7 36 18 68t31.5 56t54 38t84.5 14q20 0 41 -2t44 -6l-20 -106q-12 2 -22 2h-19q-25 0 -40.5 -5.5t-24.5 -15t-13.5 -22.5t-7.5 -28l-9 -48h112l-19 -102h-113l-70 -392
q-8 -40 -19 -75t-31.5 -60.5t-52.5 -40.5t-81 -15q-35 0 -83 9l21 107q8 -1 14.5 -1.5t13.5 -0.5q25 0 41 5.5t26 16t15 25.5t8 33l72 389h-139l-79 -416q-8 -40 -19.5 -75t-31.5 -60.5t-52 -40.5t-81 -15q-18 0 -38.5 2t-44.5 7l20 107q8 -1 15 -1.5t14 -0.5q25 0 41 5.5
t25.5 16t14.5 25.5t8 33l81 413h-69l20 102h68l8 40q7 36 18 68t32 56.5t54 38.5t85 14q31 0 72 -6z" />
    <glyph glyph-name="fi" unicode="fi" horiz-adv-x="554" 
d="M159 -16q-8 -40 -19.5 -75t-31.5 -60.5t-52 -40t-81 -14.5q-18 0 -38.5 2t-45.5 7l21 106q8 -1 15 -1.5t13 -0.5q26 0 42 5.5t25.5 16t14.5 25.5t8 33l78 405h-68l19 103h68l11 55q7 36 18 68t32 56t54 38t85 14q14 0 29.5 -1.5t32.5 -3.5l-17 -108q-5 1 -10.5 1h-11.5
q-25 0 -40.5 -5.5t-24.5 -15t-13.5 -22.5t-7.5 -28l-9 -48h261l-61 -312q-5 -23 -5.5 -37.5t4.5 -22.5t16 -11.5t31 -5.5l-24 -108h-25q-72 0 -108.5 36.5t-21.5 116.5l47 241h-133zM493 714q27 0 44 -17t15 -43q-1 -17 -8.5 -32.5t-19.5 -26.5t-27 -17.5t-31 -6.5
q-26 0 -43 17.5t-15 43.5q0 16 7.5 31t19.5 26.5t27.5 18t30.5 6.5z" />
    <glyph glyph-name="fl" unicode="fl" horiz-adv-x="568" 
d="M472 -1q-46 0 -74 11t-42.5 31.5t-16.5 49.5t5 65l87 459q-17 5 -33.5 7.5t-32.5 2.5q-35 0 -58.5 -17t-31.5 -57l-12 -55h106l-19 -103h-106l-78 -408q-8 -40 -18.5 -75t-30.5 -60.5t-51.5 -40.5t-80.5 -15q-38 0 -84 10l21 106q8 -1 14.5 -1.5t13.5 -0.5q25 0 41 5.5
t26 16t15 25.5t8 33l77 405h-67l19 103h67l14 74q9 47 29 79.5t48 52.5t64.5 28.5t78.5 8.5t92.5 -9.5t110.5 -27.5l-102 -540q-5 -30 6 -40t54 -12l-21 -111h-38z" />
    <glyph glyph-name="ffi" unicode="ffi" horiz-adv-x="800" 
d="M398 495q7 44 17 85.5t30.5 74t56 52t94.5 19.5q14 0 29.5 -1.5t32.5 -3.5l-17 -108q-5 1 -10.5 1h-10.5q-25 0 -40.5 -5.5t-24.5 -15t-13.5 -22.5t-7.5 -28l-9 -48h256l-60 -313q-3 -17 -4.5 -30t2 -22.5t15 -15.5t34.5 -9l-24 -107h-25q-43 0 -70.5 12t-42.5 34t-18 53
t4 69l43 226h-130l-71 -383q-8 -42 -18.5 -79t-30.5 -65t-52.5 -44.5t-84.5 -16.5q-17 0 -34.5 1t-37.5 5q5 27 10 53.5t10 53.5q5 0 9 -0.5t8 -0.5q25 0 41.5 6t26 16.5t15 25t8.5 32.5l75 396h-140q-17 -101 -37 -201t-39 -201q-8 -42 -18.5 -80t-30.5 -66.5t-52.5 -45
t-84.5 -16.5q-18 0 -39 2t-44 7l20 106q8 -1 15 -1.5t13 -0.5q25 0 41 5.5t25.5 16t15 25.5t8.5 33q2 12 8.5 44.5t15 74.5t17.5 89.5t17 89.5t14.5 74.5t8.5 44.5h-69q5 26 10 51.5t10 51.5h68q6 42 16.5 80.5t31.5 68t56 47t91 17.5q16 0 33 -1t36 -4l-19 -107
q-8 1 -14.5 1h-11.5q-32 0 -48 -8.5t-24.5 -22.5t-11.5 -32.5t-8 -38.5h139zM758 714q26 0 43 -17t17 -44q0 -17 -8 -32t-20.5 -26t-28 -17.5t-30.5 -6.5q-26 0 -42.5 16.5t-16.5 42.5q0 16 7.5 31.5t19.5 27t27.5 18.5t31.5 7z" />
    <glyph glyph-name="ffl" unicode="ffl" horiz-adv-x="840" 
d="M201 -82q3 -1 9.5 -1h8.5q25 0 41.5 5.5t26 16t15 25.5t8.5 33l75 396h-145l-79 -420q-8 -40 -19.5 -75t-31.5 -60.5t-52 -40.5t-81 -15q-18 0 -38.5 2t-44.5 7l20 107q8 -1 15 -1.5t14 -0.5q25 0 41 5.5t25.5 16t14.5 25.5t8 33l81 417h-69l20 102h68l7 38q7 36 18 68
t32 56t54 38t85 14q31 0 69 -6l-19 -107q-8 1 -14.5 1h-11.5q-25 0 -40.5 -5.5t-25 -15t-13.5 -23t-7 -28.5l-6 -30l144 1l14 74q9 47 29 79.5t48 52.5t64.5 28.5t78.5 8.5q41 0 92 -8.5t110 -28.5l-102 -540q-2 -15 -1 -24.5t7.5 -15.5t19.5 -8.5t35 -3.5l-22 -111h-38
q-46 0 -74 11t-42.5 31.5t-16.5 49.5t5 65l88 459q-17 5 -34 7.5t-33 2.5q-35 0 -58.5 -17t-31.5 -57l-11 -55h105l-19 -103h-106l-76 -399q-8 -40 -18.5 -75t-30.5 -60.5t-51.5 -40.5t-80.5 -15q-17 0 -35 1.5t-39 5.5z" />
    <glyph glyph-name="ft" unicode="ft" horiz-adv-x="617" 
d="M237 393l-75 -393q-8 -43 -19 -80.5t-30.5 -65t-52 -43.5t-83.5 -16q-38 0 -83 9l20 106q16 -3 30 -3q23 0 38 5t25 15t15.5 25.5t9.5 35.5l3 13q8 41 18.5 95.5t21 109.5t20 104.5t15.5 82.5h-68l19 103h68q3 13 5.5 25t4.5 24q7 37 18 70t32 58t55 39t88 14q18 0 38 -2
t43 -6l-21 -106q-11 2 -21.5 2h-19.5q-34 0 -51 -10.5t-25 -27t-10.5 -37.5t-8.5 -43h141l45 122h101l-24 -122h115l-19 -103h-115l-39 -208q-7 -38 3.5 -55t51.5 -17q15 0 33.5 1t40.5 3l2 -105q-17 -6 -35.5 -9.5t-36.5 -5.5t-33.5 -2.5t-27.5 -0.5q-49 0 -77.5 12.5
t-42 34.5t-14.5 52.5t6 66.5l45 233h-139z" />
    <glyph glyph-name="fj" unicode="fj" horiz-adv-x="526" 
d="M493 715q26 0 43 -16.5t17 -41.5q0 -17 -7.5 -32.5t-20 -27t-28 -18.5t-31.5 -7q-26 0 -42.5 16t-16.5 41q0 17 7.5 32.5t19.5 27.5t27.5 19t31.5 7zM372 613q-29 3 -48 -1t-31 -13.5t-18 -23.5t-10 -32l-10 -48h258l-91 -512q-6 -33 -16 -63t-28 -53.5t-47.5 -37.5
t-75.5 -14q-35 0 -73 7l22 120q48 -5 68 10t26 47l74 393h-136l-77 -408q-8 -40 -19.5 -75t-31.5 -60.5t-52 -40t-81 -14.5q-18 0 -38.5 2t-45.5 7l21 106q31 -3 52 1t34.5 14t20.5 26t11 37l78 405h-68l19 103h68l11 55q7 36 18 68t32 56t54 38t85 14q14 0 29.5 -1.5
t32.5 -3.5z" />
    <glyph glyph-name="ffj" unicode="ffj" horiz-adv-x="794" 
d="M640 613q-32 2 -51.5 -2t-31 -13t-17 -23t-8.5 -32l-9 -48h256l-91 -509q-6 -32 -15.5 -62.5t-28 -54t-48 -37.5t-75.5 -14q-34 0 -72 7l21 120q48 -5 68 10.5t27 47.5l71 389h-133l-76 -405q-8 -40 -18.5 -75t-30.5 -60.5t-52 -40.5t-81 -15q-34 0 -72 7l19 108
q29 -1 48.5 4t31.5 14.5t18.5 25t10.5 35.5l76 402h-137l-81 -423q-8 -40 -19 -75t-31 -60.5t-52 -40.5t-81 -15q-37 0 -83 9l20 107q60 -6 85 14t33 64l82 420h-69l20 103h68l8 38q7 36 18 68t31.5 56t54 38t84.5 14q32 0 70 -6l-19 -107q-8 1 -14.5 1h-12.5
q-25 0 -40.5 -5.5t-24.5 -15t-13.5 -22.5t-7.5 -28l-6 -31h136l11 55q7 36 18 68t31.5 56t53.5 38t84 14q14 0 29.5 -1.5t32.5 -3.5zM759 715q26 0 43 -16.5t17 -41.5q0 -17 -7.5 -32.5t-20 -27t-28.5 -18.5t-32 -7q-25 0 -41.5 16t-16.5 41q0 17 7.5 32.5t19.5 27.5
t27.5 19t31.5 7z" />
    <glyph glyph-name=".notdef" horiz-adv-x="452" 
d="M0 700h452v-700h-452v700zM339 76l-113 205l-113 -205h226zM339 624h-227l114 -203zM76 155l107 195l-107 198v-393zM376 155v390l-108 -195z" />
    <glyph glyph-name="exclam" unicode="!" horiz-adv-x="266" 
d="M77 207l88 489h125l-103 -489h-110zM92 -7q-30 0 -48 18.5t-18 46.5q0 18 8 35t21 30t30.5 21t35.5 8q29 0 47.5 -17.5t18.5 -45.5q0 -18 -7.5 -35.5t-20.5 -31t-30.5 -21.5t-36.5 -8z" />
    <glyph glyph-name="quotedbl" unicode="&#x22;" horiz-adv-x="347" 
d="M290 696h101l-41 -214h-101zM147 696h103l-42 -214h-102z" />
    <glyph glyph-name="numbersign" unicode="#" horiz-adv-x="548" 
d="M427 298h88l-18 -94h-101l-67 -204h-106l67 204h-82l-67 -204h-107l68 204h-82l18 94h96l34 102h-84l19 94h97l68 202h103l-67 -202h85l68 202h103l-67 -202h87l-18 -94h-100zM239 298h84l34 102h-84z" />
    <glyph glyph-name="dollar" unicode="$" horiz-adv-x="534" 
d="M184 6q-56 5 -103 28.5t-87 63.5q4 5 15.5 19t24.5 29.5t25 30t16 19.5q39 -36 84.5 -56t91.5 -20q53 0 86 20.5t33 63.5q0 19 -9 32t-25 22.5t-38.5 17.5t-50.5 17q-23 7 -50.5 18.5t-51.5 31t-40 48.5t-16 71q0 52 19.5 91.5t51 67t71.5 43t82 18.5q1 5 3.5 18t5.5 27
t5.5 27t3.5 19h84l-18 -87q48 -4 92.5 -21.5t82.5 -51.5q-4 -5 -16.5 -20t-26.5 -31.5t-26.5 -31t-16.5 -19.5q-35 31 -74.5 43t-71.5 12q-16 0 -35.5 -4.5t-37 -15t-29 -26.5t-11.5 -40q0 -18 13.5 -31t33 -23t41 -16.5t36.5 -10.5q26 -7 54.5 -18.5t52.5 -31.5t39.5 -50
t15.5 -74q0 -47 -17 -86t-48.5 -67.5t-77 -45.5t-102.5 -20q0 -6 -2.5 -21.5t-6 -33t-7 -33t-4.5 -21.5h-85l21 109v0z" />
    <glyph glyph-name="ampersand" unicode="&#x26;" horiz-adv-x="817" 
d="M529 815q76 0 132 -22.5t93 -62t55.5 -92t18.5 -112.5q0 -112 -53.5 -217.5t-148.5 -187.5q55 -60 131 -97l-66 -88q-20 8 -42.5 21.5t-44 29.5t-41 34t-32.5 36q-19 -14 -44.5 -25.5t-54 -20t-58 -13t-55.5 -4.5q-81 0 -128 40t-47 116q0 42 15.5 79t41.5 68t60.5 56.5
t72.5 45.5q-10 21 -15.5 42t-5.5 42q0 39 14.5 73t39 58.5t58 39t72.5 14.5q60 0 95.5 -32.5t35.5 -83.5q0 -35 -13 -63.5t-34 -52t-48 -42.5t-54 -34q20 -42 43 -84t49 -84q72 66 112.5 148.5t40.5 168.5q0 43 -9.5 81t-33 67t-63 46t-99.5 17q-71 0 -128 -21t-96.5 -58.5
t-60.5 -89.5t-21 -113q0 -11 1.5 -25.5t3.5 -32.5l-102 -23q-4 23 -5 42t-1 35q0 84 33 154t90 120.5t133 78.5t163 28zM478 569q-12 0 -21.5 -6t-16 -15t-10.5 -20.5t-4 -22.5q0 -13 4.5 -27t11.5 -29q32 16 54.5 36t22.5 48q0 15 -10.5 25.5t-30.5 10.5zM478 130
q-14 18 -28.5 42t-28 49t-25 49t-18.5 43q-27 -14 -50.5 -29.5t-40 -33t-26 -38t-9.5 -45.5q0 -39 24.5 -59t63.5 -20q30 0 65.5 10.5t72.5 31.5z" />
    <glyph glyph-name="quoteright" unicode="&#x2019;" horiz-adv-x="302" 
d="M124 508q30 19 50.5 43.5t28.5 48.5q-19 4 -30.5 18.5t-11.5 37.5q0 39 25 67.5t67 28.5q35 0 54.5 -25.5t19.5 -63.5q0 -30 -12 -60.5t-34.5 -59t-54 -53t-69.5 -42.5z" />
    <glyph glyph-name="parenleft" unicode="(" horiz-adv-x="343" 
d="M191 -135q-54 74 -87.5 162t-33.5 185q0 79 24 152.5t64 140.5t92 126.5t108 110.5l63 -46q-47 -50 -87.5 -107.5t-70.5 -121t-47 -131t-17 -136.5q0 -72 18 -144.5t54 -137.5z" />
    <glyph glyph-name="parenright" unicode=")" horiz-adv-x="343" 
d="M-21 -82q46 48 86.5 105t71 119t48 129t17.5 135q0 72 -16.5 146.5t-54.5 143.5l80 46q54 -73 87 -158.5t33 -182.5q0 -80 -24.5 -154.5t-65.5 -142t-93.5 -128t-109.5 -111.5z" />
    <glyph glyph-name="asterisk" unicode="*" horiz-adv-x="430" 
d="M398 416q-3 -2 -16 -10.5t-29 -18t-29.5 -18t-16.5 -10.5l-40 103l-83 -103q-2 1 -12 9.5t-22 18.5t-22 18.5t-11 10.5l98 90l-108 27q1 3 7.5 16.5t14.5 28.5t14.5 28.5t8.5 16.5l102 -47q0 5 1.5 22.5t3.5 37.5t3.5 37.5t2.5 22.5h98l-36 -120l119 47q0 -3 2 -16
t3.5 -29t3 -29t1.5 -16l-120 -27z" />
    <glyph glyph-name="plus" unicode="+" horiz-adv-x="534" 
d="M326 247l-36 -188h-105l37 188h-193l20 99h193l35 186h104l-35 -186h192l-20 -99h-192z" />
    <glyph glyph-name="comma" unicode="," horiz-adv-x="293" 
d="M6 -97q30 19 51 44t29 49q-19 4 -31 18.5t-12 37.5q0 19 6.5 36.5t18.5 30.5t28.5 20.5t37.5 7.5q33 0 54 -24.5t21 -63.5q0 -30 -12.5 -61t-35 -59.5t-53.5 -53t-69 -42.5z" />
    <glyph glyph-name="hyphen" unicode="-" horiz-adv-x="410" 
d="M69 317h315l-22 -113h-316z" />
    <glyph glyph-name="period" unicode="." horiz-adv-x="288" 
d="M104 -7q-29 0 -46.5 18t-17.5 46q0 18 7.5 35t20 30.5t29.5 21.5t37 8q29 0 47.5 -17.5t18.5 -45.5q0 -18 -7.5 -35.5t-20.5 -31t-30.5 -21.5t-37.5 -8z" />
    <glyph glyph-name="slash" unicode="/" horiz-adv-x="351" 
d="M41 -42h-100l400 767h102z" />
    <glyph glyph-name="zero" unicode="0" horiz-adv-x="534" 
d="M481 183q-9 -50 -30 -85.5t-51 -58.5t-68.5 -33.5t-82.5 -10.5q-36 0 -71.5 9.5t-64.5 30t-47 53t-18 78.5q0 11 1.5 23t3.5 26l58 293q19 94 79 141t155 47q34 0 68.5 -10t62.5 -31t45.5 -54t17.5 -78q0 -9 -0.5 -18.5t-2.5 -19.5zM409 479q2 5 2 10.5v10.5
q0 19 -7 32.5t-18.5 22.5t-25.5 13.5t-28 4.5q-37 0 -63.5 -21.5t-36.5 -70.5l-53 -273q-1 -6 -1.5 -11t-0.5 -10q0 -20 7 -33.5t18.5 -21.5t25.5 -12t28 -4q38 0 64.5 20t35.5 68z" />
    <glyph glyph-name="one" unicode="1" horiz-adv-x="534" 
d="M196 0l102 524l-80 -58l-54 91l177 132h116l-134 -689h-127z" />
    <glyph glyph-name="two" unicode="2" horiz-adv-x="534" 
d="M355 696q35 0 69.5 -8t61.5 -26t44 -47.5t17 -72.5q0 -44 -16 -81t-42 -68t-58 -55.5t-65 -44.5t-65 -40.5t-59 -42.5t-47 -46t-29 -51h299q-5 -29 -10.5 -57t-11.5 -56h-431q13 70 30.5 120.5t43 89.5t61 70t84.5 62q33 21 65.5 41t58 41t41.5 42.5t16 45.5
q0 29 -24.5 45.5t-59.5 16.5t-72 -12.5t-70 -37.5q-12 26 -24.5 51t-23.5 51q45 33 101 51.5t116 18.5z" />
    <glyph glyph-name="three" unicode="3" horiz-adv-x="534" 
d="M344 696q37 0 70.5 -9t59 -28.5t41 -49.5t15.5 -72q0 -64 -35.5 -110.5t-87.5 -72.5q35 -17 51.5 -49.5t16.5 -74.5q0 -62 -22.5 -106.5t-59 -73.5t-83 -43t-94.5 -14q-61 0 -117 18.5t-87 52.5q3 3 15.5 18t27.5 32.5t27.5 32.5t15.5 18q23 -24 58 -37.5t67 -13.5
q57 0 90.5 29t33.5 80q0 32 -21.5 52t-57.5 20h-80l21 109h78q18 0 37 6.5t35 19.5t26 32.5t10 44.5q0 19 -8 32t-20.5 20.5t-27 11t-27.5 3.5q-33 0 -69.5 -13t-68.5 -38q-2 3 -9.5 18.5t-16.5 33t-16.5 32.5t-8.5 18q44 34 101.5 52.5t119.5 18.5z" />
    <glyph glyph-name="four" unicode="4" horiz-adv-x="534" 
d="M429 99l-18 -99h-129l19 99h-287l19 103l316 487h135l-307 -476h146l38 197h129l-38 -197h56l-21 -114h-58z" />
    <glyph glyph-name="five" unicode="5" horiz-adv-x="534" 
d="M485 185q-19 -99 -83 -144.5t-165 -45.5q-62 0 -114.5 21.5t-87.5 53.5l83 98q29 -29 62 -40.5t66 -11.5q47 0 75.5 20t36.5 65l14 77q2 5 2 10v10q0 26 -14 37.5t-36 11.5q-14 0 -31 -5t-34 -12t-31.5 -15t-23.5 -14l-101 58l62 330h394l-22 -115h-266l-26 -135
q33 17 63 27t55 10q69 0 106.5 -39.5t37.5 -103.5q0 -23 -4 -43l-18 -105v0z" />
    <glyph glyph-name="six" unicode="6" horiz-adv-x="534" 
d="M481 183q-10 -49 -32.5 -84.5t-54.5 -58.5t-71.5 -34t-82.5 -11q-38 0 -72.5 10.5t-60.5 31.5t-41 51.5t-15 71.5q0 11 1 22t3 23l58 300q9 48 31.5 83.5t54.5 59.5t72.5 36t85.5 12q62 0 114 -18t83 -53l-79 -101q-26 27 -58.5 38.5t-66.5 11.5q-18 0 -36 -5
t-33.5 -15.5t-27.5 -27t-16 -39.5l-14 -74q49 22 80.5 31t57.5 9q71 0 106 -38.5t35 -99.5q0 -20 -5 -48zM367 258q3 12 3 22q0 28 -15.5 39.5t-35.5 11.5q-25 0 -54 -11t-65 -28l-18 -87q-1 -6 -1.5 -11t-0.5 -10q0 -37 23 -52.5t51 -15.5q35 0 64.5 20.5t38.5 68.5z" />
    <glyph glyph-name="seven" unicode="7" horiz-adv-x="534" 
d="M203 0h-137l346 574h-165l-19 -100h-119l41 215h429l-20 -107z" />
    <glyph glyph-name="eight" unicode="8" horiz-adv-x="534" 
d="M359 696q34 0 67 -10.5t59 -31.5t42 -53t16 -75q0 -67 -28 -109t-73 -65q28 -15 46 -46t18 -72q0 -57 -21.5 -101.5t-57.5 -75t-83.5 -46.5t-99.5 -16q-38 0 -74 10t-63.5 30.5t-44 52t-16.5 75.5q0 38 11 69t28.5 55t39.5 40.5t45 26.5q-25 17 -39.5 45.5t-14.5 63.5
q0 57 21 100.5t55 73t78 44.5t89 15zM343 574q-19 0 -37.5 -7t-32.5 -20t-23 -31.5t-9 -42.5q0 -33 21.5 -49.5t50.5 -16.5q17 0 35 6.5t32.5 18.5t24 30t9.5 41q0 33 -21.5 52t-49.5 19zM292 284q-19 0 -39 -7t-36 -20t-26 -32.5t-10 -43.5q0 -32 22.5 -48.5t54.5 -16.5
q20 0 39.5 6.5t35.5 19.5t25.5 32t9.5 45q0 30 -22 47.5t-54 17.5z" />
    <glyph glyph-name="nine" unicode="9" horiz-adv-x="534" 
d="M114 509q9 48 32 83.5t55 58.5t71 34.5t82 11.5q39 0 73.5 -10.5t60.5 -31t41.5 -51t15.5 -70.5q0 -22 -4 -42l-60 -306q-19 -98 -82 -144t-160 -46q-63 0 -115 18t-84 53l81 101q26 -26 57.5 -38t64.5 -12q19 0 37.5 5t34 15.5t27 27t15.5 39.5l14 75q-25 -11 -44.5 -19
t-35.5 -12.5t-30 -6.5t-27 -2q-70 0 -105.5 38.5t-35.5 99.5q0 12 1.5 23.5t3.5 24.5zM226 435q-1 -5 -1.5 -10t-0.5 -10q0 -29 15.5 -41t35.5 -12q26 0 55 11t64 28l17 86q3 12 3 23q0 36 -23 50.5t-50 14.5q-35 0 -64.5 -20.5t-39.5 -67.5z" />
    <glyph glyph-name="colon" unicode=":" horiz-adv-x="315" 
d="M170 278q-29 0 -47 17.5t-18 44.5q0 19 7.5 36.5t20 31t29.5 21.5t37 8q29 0 47.5 -18t18.5 -46q0 -18 -7.5 -35.5t-20 -30.5t-30 -21t-37.5 -8zM115 -7q-29 0 -47 18t-18 46q0 18 7.5 35t20 30.5t29.5 21.5t37 8q29 0 47.5 -17.5t18.5 -45.5q0 -18 -7.5 -35.5t-20.5 -31
t-30.5 -21.5t-36.5 -8z" />
    <glyph glyph-name="semicolon" unicode=";" horiz-adv-x="293" 
d="M163 278q-29 0 -47.5 17.5t-18.5 44.5q0 19 7.5 36.5t20.5 31t30.5 21.5t36.5 8q29 0 47 -17.5t18 -45.5q0 -18 -7 -35.5t-19.5 -31t-30 -21.5t-37.5 -8zM-3 -97q30 19 50.5 44t28.5 49q-18 4 -30 18t-12 36q0 19 7.5 37t21 31t30.5 21t37 8q35 0 52.5 -20t17.5 -52
q0 -34 -13.5 -68.5t-36.5 -65t-54 -56.5t-66 -42z" />
    <glyph glyph-name="less" unicode="&#x3c;" horiz-adv-x="534" 
d="M34 249l18 96l519 216l-22 -115l-373 -153l314 -153l-21 -108z" />
    <glyph glyph-name="equal" unicode="=" horiz-adv-x="534" 
d="M50 357l19 97h490l-19 -97h-490zM8 140l19 97h490l-19 -97h-490z" />
    <glyph glyph-name="greater" unicode="&#x3e;" horiz-adv-x="534" 
d="M-1 32l21 116l373 153l-314 153l23 107l434 -216l-18 -96z" />
    <glyph glyph-name="question" unicode="?" horiz-adv-x="489" 
d="M327 701q40 0 73.5 -11.5t58 -32.5t38 -50t13.5 -63q0 -35 -16 -66.5t-42 -65.5q-19 -26 -40 -46.5t-40 -41t-33.5 -43.5t-20.5 -54l-5 -24h-129l4 24q5 30 15 54t26 46.5t36.5 46t46.5 51.5q17 17 32 43.5t15 52.5t-17 41t-55 15q-31 0 -65 -12.5t-67 -36.5l-46 105
q48 35 104.5 51.5t113.5 16.5zM214 -7q-30 0 -47.5 18.5t-17.5 46.5q0 18 8 35t21 30t30 21t35 8q29 0 47.5 -18t18.5 -44q0 -19 -7.5 -36.5t-20.5 -31t-30.5 -21.5t-36.5 -8z" />
    <glyph glyph-name="at" unicode="@" horiz-adv-x="866" 
d="M390 160q-57 0 -85.5 30t-28.5 78q0 16 3 33l22 115q27 142 155 142q20 0 48 -9.5t58 -28.5l15 33h92l-52 -268q-1 -4 -1 -7.5v-6.5q0 -16 8 -23.5t22 -7.5t35 9t40.5 31.5t33 60t13.5 93.5q0 45 -15.5 83.5t-45 67t-73 44.5t-99.5 16q-81 0 -148.5 -27.5t-116 -74.5
t-75 -108.5t-26.5 -128.5q0 -107 59.5 -166t176.5 -59q26 0 60 6.5t78 21.5l22 -84q-45 -20 -89 -26t-82 -6q-75 0 -134 22.5t-100 63.5t-62.5 97.5t-21.5 125.5q0 91 35 170t96.5 137t146 91.5t182.5 33.5q80 0 141 -22.5t102.5 -61.5t62.5 -91.5t21 -113.5
q0 -65 -17 -119.5t-48 -94t-75 -62t-99 -22.5q-29 0 -57.5 13t-42.5 40q-35 -17 -71.5 -28.5t-62.5 -11.5zM382 314q-1 -5 -1.5 -9t-0.5 -9q0 -40 41 -40q19 0 44.5 10.5t51.5 24.5l28 144q-8 6 -18.5 11.5t-22.5 10t-23.5 7.5t-20.5 3q-20 0 -37.5 -14.5t-23.5 -46.5z" />
    <glyph glyph-name="A" unicode="A" horiz-adv-x="638" 
d="M427 142h-239l-72 -142h-149l374 689h140l106 -689h-144zM246 257h166l-11 105l-18 161h-4l-74 -149z" />
    <glyph glyph-name="B" unicode="B" horiz-adv-x="624" 
d="M447 689q46 0 80 -12.5t56.5 -34t33.5 -50t11 -61.5q0 -56 -27.5 -100t-86.5 -71q20 -11 33 -26.5t20.5 -33.5t10.5 -38t3 -39q0 -44 -16 -84.5t-45.5 -71t-72 -49t-95.5 -18.5h-333l134 689h294zM236 414h140q28 0 48 9t33 22.5t19 28.5t6 28q0 65 -79 65h-137zM179 122
h144q51 0 82 28t31 75q0 32 -20 51t-58 19h-145z" />
    <glyph glyph-name="C" unicode="C" horiz-adv-x="563" 
d="M523 519q-26 27 -64.5 39.5t-73.5 12.5q-58 0 -95.5 -31.5t-50.5 -100.5l-36 -193q-3 -15 -3 -28q0 -26 10 -44.5t26 -30t36.5 -17t42.5 -5.5q17 0 37 3t40.5 9.5t40 16t35.5 21.5l57 -112q-26 -19 -55 -31.5t-59 -20t-60 -10.5t-58 -3q-41 0 -82.5 12.5t-74.5 38
t-53.5 63.5t-20.5 90q0 13 1 26t4 27l43 222q22 111 92.5 167t186.5 56q60 0 119 -19t94 -54z" />
    <glyph glyph-name="D" unicode="D" horiz-adv-x="630" 
d="M575 221q-22 -112 -91.5 -166.5t-172.5 -54.5h-285l134 689h254q43 0 80.5 -12.5t65.5 -36t44.5 -58t16.5 -79.5q0 -20 -5 -48zM479 442q2 9 3 17t1 16q0 25 -8.5 42t-23.5 28t-34 16t-40 5h-104l-87 -445h114q22 0 44.5 6.5t41.5 21t33.5 38.5t21.5 59z" />
    <glyph glyph-name="E" unicode="E" horiz-adv-x="579" 
d="M159 689h464l-23 -123h-328l-31 -158h288l-23 -123h-289l-32 -163h352l-24 -122h-488z" />
    <glyph glyph-name="F" unicode="F" horiz-adv-x="557" 
d="M240 403h289l-24 -122h-289l-54 -281h-137l134 689h471l-23 -123h-335z" />
    <glyph glyph-name="G" unicode="G" horiz-adv-x="609" 
d="M528 79q-30 -26 -61 -43t-62.5 -26.5t-62 -13t-57.5 -3.5q-46 0 -86.5 14t-71 41t-48.5 65.5t-18 86.5q0 13 1 26t4 27l44 222q11 56 38 97.5t65.5 69t85 41t96.5 13.5q30 0 61.5 -4t60.5 -12.5t54 -21.5t42 -30l-80 -106q-26 27 -63 37.5t-72 10.5q-25 0 -49.5 -6.5
t-46 -21.5t-37.5 -39t-23 -58l-38 -187q-4 -19 -4 -38q0 -52 30.5 -76.5t75.5 -24.5q20 0 45 5.5t51 24.5l23 113h-101l23 122h238z" />
    <glyph glyph-name="H" unicode="H" horiz-adv-x="631" 
d="M409 0l56 288h-254l-56 -288h-137l134 689h137l-54 -277h254l54 277h139l-134 -689h-139z" />
    <glyph glyph-name="I" unicode="I" horiz-adv-x="295" 
d="M311 689l-134 -689h-137l134 689h137z" />
    <glyph glyph-name="J" unicode="J" horiz-adv-x="536" 
d="M461 216q-21 -112 -88.5 -167.5t-186.5 -55.5q-28 0 -57.5 4.5t-57 12.5t-51 20.5t-39.5 28.5l78 105q29 -25 64 -34t65 -9q53 0 90.5 28.5t51.5 99.5l86 440h138l-93 -473v0z" />
    <glyph glyph-name="K" unicode="K" horiz-adv-x="611" 
d="M315 313l-126 -120l-37 -193h-137l134 689h137l-59 -301l310 301h163l-283 -278l164 -411h-150z" />
    <glyph glyph-name="L" unicode="L" horiz-adv-x="557" 
d="M22 0l134 689h136l-111 -567h342l-24 -122h-477z" />
    <glyph glyph-name="M" unicode="M" horiz-adv-x="785" 
d="M401 275l282 414h132l-132 -689h-136l71 370h-3q-13 -19 -39 -56t-55.5 -78.5t-57.5 -80.5t-45 -60h-98q-4 12 -11.5 33.5t-16 47.5t-17.5 54.5t-17.5 55t-15.5 48.5t-11 35h-5l-71 -369h-136l132 689h120q7 -23 17.5 -57t22.5 -73t24.5 -80.5t23.5 -79.5t20.5 -70.5
t15.5 -53.5h6z" />
    <glyph glyph-name="N" unicode="N" horiz-adv-x="675" 
d="M485 248q22 111 43 220.5t42 220.5h135l-132 -689h-124q-12 25 -28.5 61t-35.5 76.5t-39.5 83.5t-39 83.5t-34.5 75t-27 58.5l-90 -438h-136l132 689h125q11 -23 28 -57.5t36 -75.5t39 -85.5t39 -86t35.5 -77t27.5 -59.5h4z" />
    <glyph glyph-name="O" unicode="O" horiz-adv-x="635" 
d="M589 214q-21 -110 -92.5 -165t-191.5 -55q-45 0 -88.5 13.5t-77 40.5t-54.5 67.5t-21 94.5q0 27 6 57l40 208q10 55 35 96.5t61 69t82 41.5t99 14q47 0 92 -14t79.5 -40.5t55.5 -66t21 -90.5q0 -11 -1.5 -23t-3.5 -24zM494 436q3 15 3 28q0 27 -10 46.5t-26 33t-36 20
t-41 6.5q-53 0 -91.5 -28.5t-51.5 -96.5l-37 -192q-3 -18 -3 -33q0 -27 9.5 -46.5t25.5 -31.5t36 -17.5t40 -5.5q58 0 95 31t50 98z" />
    <glyph glyph-name="P" unicode="P" horiz-adv-x="571" 
d="M229 383h133q26 0 47 8.5t36 23.5t23.5 34.5t8.5 42.5q0 32 -20.5 53t-61.5 21h-130zM440 689q42 0 74 -16t53.5 -42.5t32 -60.5t10.5 -69q0 -40 -14.5 -82.5t-44 -78t-74 -58.5t-105.5 -23h-167l-50 -259h-137l134 689h288z" />
    <glyph glyph-name="Q" unicode="Q" horiz-adv-x="650" 
d="M589 214q-21 -106 -86.5 -161t-174.5 -58l-5 -23q-3 -12 -3 -20q0 -18 16 -25.5t60 -9.5l-15 -100q-8 -1 -15.5 -1h-14.5q-73 0 -112.5 26.5t-39.5 82.5q0 20 4 39l10 44q-31 10 -58 28t-47.5 43.5t-32 58t-11.5 72.5q0 27 6 57l40 208q21 110 94.5 165.5t179.5 55.5
q48 0 93 -14t80 -41t56.5 -66.5t21.5 -90.5q0 -11 -1.5 -22.5t-3.5 -23.5zM494 436q3 13 3 27q0 27 -10.5 47t-27.5 33.5t-38 20t-42 6.5q-54 0 -89.5 -28.5t-48.5 -96.5l-37 -192q-3 -18 -3 -33q0 -27 10 -46.5t26 -31.5t36.5 -17.5t42.5 -5.5q60 0 94 31t47 98z" />
    <glyph glyph-name="R" unicode="R" horiz-adv-x="594" 
d="M449 689q44 0 76 -15t53 -40t31.5 -57t10.5 -66q0 -29 -7 -61t-24.5 -63t-47 -58.5t-74.5 -46.5q4 -18 13.5 -57.5t20.5 -83.5t20.5 -83.5t14.5 -57.5h-147l-56 259h-127l-50 -259h-137l133 689h297zM230 383h139q53 0 84.5 31.5t31.5 78.5q0 32 -19.5 52.5t-60.5 20.5
h-139z" />
    <glyph glyph-name="S" unicode="S" horiz-adv-x="583" 
d="M365 701q63 0 123.5 -12t111.5 -50l-67 -112q-39 29 -81.5 40t-84.5 11q-21 0 -43 -5t-40 -15.5t-30 -27.5t-12 -42q0 -18 9.5 -31t27 -22.5t41 -17t51.5 -14.5q100 -25 144.5 -68t44.5 -116q0 -51 -23 -92.5t-63 -71t-92.5 -45t-111.5 -15.5q-75 0 -141 21.5t-117 74.5
q2 2 15 16.5t28 32t27.5 32t15.5 17.5q36 -34 81.5 -51t94.5 -17q37 0 63 8.5t43 21.5t25 29t8 31q0 18 -10.5 30.5t-29 22.5t-43.5 18t-54 16q-35 10 -67 23.5t-56 34t-38 49.5t-14 69q0 54 21 96t57 71t84 44.5t102 15.5z" />
    <glyph glyph-name="T" unicode="T" horiz-adv-x="526" 
d="M410 565l-110 -565h-137l109 565h-182l24 124h502l-24 -124h-182z" />
    <glyph glyph-name="U" unicode="U" horiz-adv-x="634" 
d="M589 219q-11 -56 -36.5 -98t-63 -70t-86 -42t-104.5 -14q-47 0 -90.5 12.5t-76.5 37.5t-52.5 63.5t-19.5 89.5q0 13 1 27t4 28l86 436h137l-88 -438q-3 -18 -3 -32q0 -27 9.5 -46.5t25 -32t34.5 -18t39 -5.5q24 0 48 7t45 23t36.5 41.5t22.5 62.5l85 438h139l-92 -470v0z
" />
    <glyph glyph-name="V" unicode="V" horiz-adv-x="604" 
d="M304 201q5 12 23 48.5t42 86t51 105t51.5 106t43 89t25.5 53.5h150l-352 -689h-141l-88 689h140q1 -13 5 -50.5t9 -87t10.5 -105t10.5 -105.5t9 -88t5 -52h6z" />
    <glyph glyph-name="W" unicode="W" horiz-adv-x="908" 
d="M498 455l-86 -196l-114 -259h-150l-42 689h139l7 -272l5 -213h6l95 215l120 270h134l17 -284l11 -201h6l83 203l117 282h144l-309 -689h-149l-14 260l-12 195h-8z" />
    <glyph glyph-name="X" unicode="X" horiz-adv-x="595" 
d="M317 244l-182 -244h-162l286 353l-140 336h151l80 -225l166 225h161l-270 -336l157 -353h-156z" />
    <glyph glyph-name="Y" unicode="Y" horiz-adv-x="557" 
d="M310 396l87 137l99 156h150l-288 -419l-52 -270h-137l52 270l-128 419h142l41 -167l29 -126h5z" />
    <glyph glyph-name="Z" unicode="Z" horiz-adv-x="540" 
d="M17 118l398 449h-298l23 122h463l-21 -114l-404 -453h315l-23 -122h-476z" />
    <glyph glyph-name="bracketleft" unicode="[" horiz-adv-x="291" 
d="M8 -98l155 797h205l-17 -90h-91l-121 -619h92l-17 -88h-206z" />
    <glyph glyph-name="backslash" unicode="\" horiz-adv-x="351" 
d="M89 725h103l103 -767h-102z" />
    <glyph glyph-name="bracketright" unicode="]" horiz-adv-x="291" 
d="M-39 -98l18 88h91l119 619h-90l17 90h205l-156 -797h-204z" />
    <glyph glyph-name="asciicircum" unicode="^" horiz-adv-x="534" 
d="M415 267l-74 298l-191 -299h-116l281 429h95l112 -428h-107z" />
    <glyph glyph-name="underscore" unicode="_" horiz-adv-x="497" 
d="M-69 -150l16 81h496l-16 -81h-496z" />
    <glyph glyph-name="quoteleft" unicode="&#x2018;" horiz-adv-x="302" 
d="M334 692q-29 -19 -50 -43.5t-29 -49.5q19 -4 31 -18.5t12 -37.5q0 -19 -7 -36.5t-19 -30.5t-29 -20.5t-37 -7.5q-35 0 -55 25.5t-20 64.5q0 30 12 60.5t34.5 59t54 53t69.5 41.5z" />
    <glyph glyph-name="a" unicode="a" horiz-adv-x="525" 
d="M64 320q36 181 197 181q26 0 62 -10.5t74 -35.5l18 39h117l-96 -494h-118l-2 41q-53 -27 -89.5 -36t-62.5 -9q-69 0 -101 33.5t-32 92.5q0 13 1 26t4 27zM167 192q-3 -14 -3 -25q0 -28 14.5 -39t37.5 -11q24 0 56.5 13t67.5 32l35 185q-19 14 -50 25.5t-57 11.5t-48 -18
t-30 -58z" />
    <glyph glyph-name="b" unicode="b" horiz-adv-x="522" 
d="M473 183q-19 -102 -78.5 -145.5t-153.5 -43.5q-17 0 -42 2.5t-54 9t-62 18.5t-67 32l127 660h128l-51 -261q51 28 89 37t64 9q70 0 100.5 -34.5t30.5 -92.5q0 -26 -6 -56zM369 305q3 15 3 25q0 29 -14.5 39.5t-36.5 10.5q-23 0 -56 -13t-68 -33l-40 -201
q24 -13 52.5 -18.5t51.5 -5.5q32 0 54 17.5t29 53.5z" />
    <glyph glyph-name="c" unicode="c" horiz-adv-x="452" 
d="M425 61q-50 -40 -99 -53t-103 -13q-38 0 -71 10.5t-57 31t-38 50t-14 68.5q0 9 1 19t3 21l22 127q17 91 77 135t147 44q23 0 47.5 -3.5t47.5 -12t43.5 -23t36.5 -36.5l-75 -91q-26 31 -55.5 40.5t-47.5 9.5q-39 0 -64.5 -20.5t-34.5 -66.5l-20 -99q-1 -5 -1.5 -10
t-0.5 -10q0 -36 23.5 -51.5t51.5 -15.5q20 0 50 9t59 36l72 -96v0z" />
    <glyph glyph-name="d" unicode="d" horiz-adv-x="525" 
d="M64 322q16 81 66.5 130t138.5 49q26 0 62 -5.5t68 -22.5l49 243h125l-137 -716h-118l-1 46q-47 -26 -85.5 -38.5t-64.5 -12.5q-66 0 -101.5 31t-35.5 94q0 26 6 56zM166 187q-3 -14 -3 -24q0 -28 14.5 -39t37.5 -11t58 12t65 31l39 198q-29 14 -53.5 20.5t-47.5 6.5
q-30 0 -54.5 -18t-33.5 -60z" />
    <glyph glyph-name="e" unicode="e" horiz-adv-x="494" 
d="M294 502q50 0 84.5 -12t56 -31.5t31 -44t9.5 -50.5q0 -42 -19.5 -73.5t-55 -52.5t-84.5 -32t-109 -11h-21t-21 1q-3 -12 -3 -23q0 -37 23.5 -52.5t60.5 -15.5q23 0 51.5 10.5t60.5 36.5q4 -5 12.5 -19t18.5 -30t18.5 -29.5t12.5 -18.5q-56 -40 -108 -50t-98 -10
q-38 0 -71 9t-57.5 29t-39 50.5t-14.5 74.5q0 63 13.5 124.5t44.5 110t81 79t123 30.5zM288 389q-44 0 -68.5 -26.5t-37.5 -71.5q10 -1 19.5 -1h17.5q37 0 60.5 5.5t37 13.5t18.5 18.5t5 19.5q0 17 -10 29.5t-42 12.5z" />
    <glyph glyph-name="f" unicode="f" horiz-adv-x="335" 
d="M110 393h-68l19 102h68l11 55q7 36 18 68t32 56t54 38t85 14q19 0 40 -2t45 -6l-21 -106q-11 2 -21.5 2h-19.5q-25 0 -40 -5.5t-24 -15t-13.5 -22.5t-7.5 -28l-10 -48h113l-20 -102h-112l-79 -408q-8 -40 -19 -75t-31 -60.5t-51.5 -40.5t-80.5 -15q-18 0 -38.5 2t-44.5 7
l20 107q8 -1 14.5 -1.5t13.5 -0.5q24 0 40 5t25.5 15.5t15 25t9.5 34.5z" />
    <glyph glyph-name="g" unicode="g" horiz-adv-x="516" 
d="M428 -27q-17 -93 -79 -136t-166 -43q-26 0 -54 5.5t-53.5 16t-47 26t-35.5 34.5l85 80q10 -13 24 -21.5t29.5 -14t30.5 -8t26 -2.5q41 0 73 19t43 68l12 51q-51 -29 -89.5 -37t-63.5 -8q-70 0 -100 34.5t-30 93.5q0 13 1.5 26.5t3.5 28.5l22 128q17 102 77 145.5
t155 43.5q35 0 95 -11.5t128 -50.5zM166 198q-3 -14 -3 -25q0 -28 15 -39t36 -11q24 0 57 12t68 34l37 195q-23 12 -52 18t-52 6q-31 0 -53.5 -17.5t-29.5 -53.5z" />
    <glyph glyph-name="h" unicode="h" horiz-adv-x="529" 
d="M317 0l59 305q3 13 3 23q0 29 -16 40.5t-37 11.5q-24 0 -53.5 -10t-71.5 -36l-65 -334h-127l140 716h127l-52 -264q59 34 97 41.5t63 7.5q68 0 99 -33.5t31 -91.5q0 -25 -6 -55l-62 -321h-129z" />
    <glyph glyph-name="i" unicode="i" horiz-adv-x="287" 
d="M142 628q6 30 29.5 51t53.5 21q26 0 43.5 -16.5t17.5 -42.5q0 -17 -7 -32.5t-19 -27t-27 -18t-31 -6.5q-26 0 -43.5 16t-17.5 42v6.5t1 6.5zM252 495l-61 -311l-3.5 -21t-1.5 -17q0 -22 12 -29.5t40 -9.5l-24 -109h-25q-63 0 -99 27t-36 85q0 21 4 41l67 344h127z" />
    <glyph glyph-name="j" unicode="j" horiz-adv-x="272" 
d="M153 -45q-6 -32 -16 -62.5t-28 -54t-47.5 -37.5t-75.5 -14q-16 0 -34.5 1.5t-38.5 5.5l22 120q5 -1 10 -1h10q36 0 52.5 15t21.5 44l100 523h127zM231 700q26 0 43 -16.5t17 -40.5q0 -17 -7.5 -32.5t-20 -27t-28.5 -18.5t-32 -7q-26 0 -42.5 16t-16.5 41q0 17 7.5 32.5
t20 27t28 18.5t31.5 7z" />
    <glyph glyph-name="k" unicode="k" horiz-adv-x="502" 
d="M14 0l134 716h127l-70 -368h39q27 0 49 11.5t40 44.5l50 91h146l-71 -123q-17 -29 -37.5 -52t-52.5 -34q19 -7 30.5 -18t17.5 -24.5t9 -29.5t5 -32l26 -182h-131l-19 161q-5 37 -20 52.5t-53 15.5h-50l-43 -229h-126z" />
    <glyph glyph-name="l" unicode="l" horiz-adv-x="274" 
d="M180 -1q-72 0 -103.5 25.5t-31.5 79.5q0 23 6 52l108 560h126l-106 -554q-1 -5 -1.5 -9.5t-0.5 -9.5q0 -19 13.5 -25.5t48.5 -7.5l-21 -111h-38z" />
    <glyph glyph-name="m" unicode="m" horiz-adv-x="792" 
d="M580 0l60 306q2 6 2 11v10q0 26 -13 39.5t-35 13.5t-46 -9t-62 -32q-2 -13 -4.5 -28.5t-4.5 -27.5q-14 -71 -27.5 -141.5t-27.5 -141.5h-127q14 76 29 152t30 153q2 6 2 12v11q0 24 -11.5 37.5t-34.5 13.5q-20 0 -45 -10t-66 -36q-17 -84 -32 -166.5t-32 -166.5h-127
l96 494h117q1 -11 1 -22v-22q30 18 51 28.5t37.5 15.5t29.5 6t26 1q44 0 70 -16.5t40 -45.5q33 20 59 32.5t46.5 19t36 8.5t29.5 2q69 0 98.5 -36.5t29.5 -92.5q0 -28 -6 -56q-15 -80 -30 -158.5t-31 -157.5h-128z" />
    <glyph glyph-name="n" unicode="n" horiz-adv-x="529" 
d="M317 0l59 305q3 13 3 24q0 29 -15 40t-38 11q-24 0 -53 -10t-72 -36l-65 -334h-127l97 494h116l2 -42q31 17 55.5 26.5t43.5 14.5t34 6.5t27 1.5q68 0 99 -33t31 -91q0 -24 -6 -54l-62 -323h-129z" />
    <glyph glyph-name="o" unicode="o" horiz-adv-x="521" 
d="M473 174q-18 -92 -77 -135.5t-159 -43.5q-38 0 -73 11t-61.5 33.5t-42.5 55.5t-16 77q0 11 1 22t3 23l19 102q17 92 76 137t153 45q45 0 82.5 -13t63.5 -36.5t40.5 -56t14.5 -72.5q0 -23 -4 -43zM367 281q3 13 3 25q0 39 -24.5 58.5t-56.5 19.5q-35 0 -60.5 -19.5
t-35.5 -67.5l-18 -89q-3 -14 -3 -24q0 -20 7.5 -33.5t19 -22t25.5 -12.5t28 -4q38 0 63 19t35 68z" />
    <glyph glyph-name="p" unicode="p" horiz-adv-x="523" 
d="M476 173q-16 -81 -67 -130.5t-141 -49.5q-26 0 -60 5t-68 24l-43 -220h-126l134 692h117l1 -45q48 26 86.5 38t64.5 12q66 0 101 -30.5t35 -93.5q0 -26 -6 -57zM373 307q3 15 3 26q0 28 -14.5 38t-35.5 10q-23 0 -58.5 -13t-66.5 -30l-38 -197q32 -16 55 -21.5t47 -5.5
q30 0 54 16t32 59z" />
    <glyph glyph-name="q" unicode="q" horiz-adv-x="515" 
d="M269 -199l47 239q-52 -29 -90 -37.5t-63 -8.5q-70 0 -100.5 35t-30.5 93q0 14 1 27.5t4 28.5l25 136q19 102 77 145.5t156 43.5q35 0 94 -11.5t128 -50.5l-119 -640h-129zM166 190q-3 -14 -3 -24q0 -29 15 -40t36 -11q24 0 57 12.5t68 33.5l38 203q-23 12 -51.5 18
t-51.5 6q-30 0 -53.5 -17.5t-30.5 -53.5z" />
    <glyph glyph-name="r" unicode="r" horiz-adv-x="376" 
d="M400 370q-67 -8 -112.5 -21t-83.5 -34l-61 -315h-127l96 496h116l-4 -72h1q16 13 39 26.5t49.5 25t54.5 19t54 7.5z" />
    <glyph glyph-name="s" unicode="s" horiz-adv-x="467" 
d="M277 500q51 0 100 -12t89 -47q-17 -23 -32.5 -47t-32.5 -48q-33 26 -66 34.5t-65 8.5q-37 0 -54.5 -16t-17.5 -31q0 -17 17.5 -24.5t44 -13t57 -11.5t57 -19t44 -37t17.5 -65q0 -45 -19.5 -78.5t-51.5 -55t-73.5 -32.5t-85.5 -11q-28 0 -54 2.5t-51.5 10t-50.5 22
t-49 37.5q18 23 36.5 45t37.5 45q32 -31 66.5 -42.5t73.5 -11.5q43 0 65 18t22 38q0 16 -17 24.5t-42.5 15t-55.5 14t-55.5 21.5t-42.5 37t-17 61q0 45 19 77t48.5 52t66 29.5t72.5 9.5z" />
    <glyph glyph-name="t" unicode="t" horiz-adv-x="374" 
d="M62 393l19 103h63l45 122h101l-24 -122h115l-19 -103h-115l-39 -208q-3 -15 -3 -28q0 -23 13 -33.5t45 -10.5q15 0 33.5 1t40.5 3l2 -105q-17 -6 -35.5 -9.5t-36.5 -5.5t-33.5 -2.5t-27.5 -0.5q-38 0 -64 7.5t-41.5 22t-22 34.5t-6.5 45q0 27 6 57l45 233h-61z" />
    <glyph glyph-name="u" unicode="u" horiz-adv-x="531" 
d="M230 494l-60 -304q-1 -6 -1.5 -11.5t-0.5 -10.5q0 -29 16.5 -41t36.5 -12q24 0 53.5 11t71.5 36l65 332h128l-96 -494h-118l-2 43q-29 -17 -53 -27t-44 -15t-35.5 -6.5t-28.5 -1.5q-67 0 -97.5 36t-30.5 95q0 26 6 56l62 314h128z" />
    <glyph glyph-name="v" unicode="v" horiz-adv-x="479" 
d="M228 165l101 197q21 41 28.5 65.5t7.5 53.5v16h134v-15q0 -45 -12 -78.5t-34 -70.5l-193 -333h-127l-82 495h138q1 -12 4 -35t6 -48t5.5 -47.5t3.5 -34.5q1 -13 3.5 -35.5t5 -47t4.5 -47t3 -35.5h4z" />
    <glyph glyph-name="w" unicode="w" horiz-adv-x="709" 
d="M521 0h-125l-16 105q-5 38 -10.5 76t-10.5 76q-1 0 -2 0.5t-2 0.5l-75 -153q-13 -26 -26 -51.5t-27 -53.5h-125l-51 496h130l9 -154l10 -158h6l75 152l57 112h105q4 -29 7.5 -57.5t8.5 -57.5q5 -40 9.5 -79.5t10.5 -78.5h4l86 184q17 38 23.5 64t6.5 54v20h129v-19
q0 -37 -9 -70.5t-28 -71.5z" />
    <glyph glyph-name="x" unicode="x" horiz-adv-x="507" 
d="M310 0l-66 157l-128 -157h-153l223 252l-119 243h150l58 -150l121 150h153l-217 -242l129 -253h-151z" />
    <glyph glyph-name="y" unicode="y" horiz-adv-x="458" 
d="M12 -199l114 210l-29 22l-48 463h128l11 -182l10 -171h4l111 219q10 21 17 36.5t11.5 29t6 26t1.5 27.5v16h129v-15q0 -45 -12.5 -78t-33.5 -71l-292 -532h-128z" />
    <glyph glyph-name="z" unicode="z" horiz-adv-x="474" 
d="M-9 0l19 103l302 285h-232l21 107h387l-19 -100l-302 -283h246l-21 -112h-401z" />
    <glyph glyph-name="braceleft" unicode="{" horiz-adv-x="291" 
d="M148 298q20 -9 35 -30.5t15 -56.5q0 -14 -3 -32l-24 -122q-2 -9 -3 -17.5t-1 -15.5q0 -17 7.5 -26.5t27.5 -9.5h37l-16 -84h-76q-48 0 -72 27t-24 69q0 14 3 31l24 125q2 9 3 17.5t1 16.5q0 64 -60 66l17 87q39 3 63 30t33 73l25 131q5 27 18 49t30.5 37.5t38.5 24
t44 8.5h86l-16 -86h-37q-14 0 -24 -6.5t-17 -16t-11 -21.5t-6 -23l-23 -120q-5 -25 -15.5 -45t-24 -34.5t-28 -24.5t-26.5 -16z" />
    <glyph glyph-name="bar" unicode="|" horiz-adv-x="241" 
d="M68 -206v932h104v-932h-104z" />
    <glyph glyph-name="braceright" unicode="}" horiz-adv-x="291" 
d="M180 303q-17 10 -32.5 32t-15.5 58q0 13 3 30l22 120q2 8 3 15.5t1 15.5q0 15 -7.5 25.5t-30.5 10.5h-34l17 85h86q45 0 67 -23t22 -62q0 -8 -1 -16t-3 -17l-26 -131q-3 -18 -3 -33q0 -32 14.5 -50t44.5 -20l-17 -87q-38 -2 -62 -27.5t-33 -72.5l-26 -134
q-11 -53 -48 -85.5t-83 -32.5h-85l16 84h37q16 0 26 6.5t16 16.5t9.5 22.5t5.5 23.5l24 122q10 48 36.5 77.5t55.5 41.5z" />
    <glyph glyph-name="asciitilde" unicode="~" horiz-adv-x="526" 
d="M187 350q23 0 47 -10t47.5 -22.5t46 -22.5t43.5 -10q7 0 16 2t20 9t25 20t32 36q3 -3 12.5 -10.5t21 -16.5t21.5 -17t13 -11q-36 -61 -79 -87.5t-90 -26.5q-25 0 -48.5 10t-47 21.5t-47 21.5t-49.5 10q-22 0 -42 -11.5t-49 -43.5l-63 59q32 43 72 71.5t98 28.5z" />
    <glyph glyph-name="sterling" unicode="&#xa3;" horiz-adv-x="534" 
d="M460 513q-14 26 -38.5 47t-66.5 21q-48 0 -70.5 -28.5t-22.5 -66.5q0 -27 7.5 -54.5t8.5 -64.5h144l-19 -91h-141q-11 -45 -30 -88t-48 -79h289l-20 -109h-451l18 94q41 42 68 85t41 97h-79l18 91h70q-4 32 -9.5 61.5t-5.5 57.5q0 34 12 72t39 69.5t71 52t109 20.5
q80 0 135 -31t84 -93z" />
    <glyph glyph-name="yen" unicode="&#xa5;" horiz-adv-x="534" 
d="M59 232h143l7 38l-8 31h-126l16 84h91l-74 304h143l45 -291h7l156 291h151l-192 -304h97l-17 -84h-132l-19 -31l-8 -38h146l-16 -82h-145l-29 -150h-137l28 150h-142z" />
    <glyph glyph-name="section" unicode="&#xa7;" horiz-adv-x="446" 
d="M319 701q19 0 40.5 -2.5t42 -7.5t39 -12.5t32.5 -18.5l-56 -87q-25 17 -47 23.5t-48 6.5q-12 0 -26 -3.5t-25 -11t-18.5 -19.5t-7.5 -28q0 -34 57 -64l48 -28t42.5 -32t30 -41.5t11.5 -55.5q0 -37 -17.5 -68.5t-57.5 -67.5q8 -13 15 -33.5t7 -41.5q0 -43 -19.5 -73.5
t-49.5 -50.5t-67 -29.5t-71 -9.5q-40 0 -85 11t-73 34l52 85q23 -17 50 -24.5t56 -7.5q13 0 27.5 4t26.5 12t19.5 20.5t7.5 30.5q0 20 -17.5 37t-56.5 35q-25 12 -46.5 26t-37.5 31.5t-25 40t-9 52.5q0 35 18 69.5t59 64.5q-20 31 -20 72q0 40 16.5 70.5t44 51t63.5 30.5
t75 10zM208 403q-14 -12 -22.5 -26t-8.5 -28q0 -18 11.5 -31t28 -24t36 -20.5t36.5 -21.5q28 23 28 52q0 18 -10.5 31t-26.5 24t-35 21.5t-37 22.5z" />
    <glyph glyph-name="quotesingle" unicode="'" horiz-adv-x="261" 
d="M176 696h102l-41 -214h-103z" />
    <glyph glyph-name="quotedblleft" unicode="&#x201c;" horiz-adv-x="485" 
d="M327 692q-29 -19 -50 -43.5t-29 -49.5q20 -4 31.5 -18.5t11.5 -37.5q0 -19 -7 -36.5t-19 -30.5t-29 -20.5t-37 -7.5q-35 0 -55 25.5t-20 64.5q0 30 12.5 60.5t35 59t54 53t69.5 41.5zM520 692q-29 -19 -50 -43.5t-29 -49.5q20 -4 31.5 -18.5t11.5 -37.5q0 -19 -7 -36.5
t-19 -30.5t-29 -20.5t-37 -7.5q-35 0 -54.5 25.5t-19.5 64.5q0 30 12.5 60.5t35 59t53.5 53t69 41.5z" />
    <glyph glyph-name="guillemotleft" unicode="&#xab;" horiz-adv-x="547" 
d="M146 22l-99 204l180 206h125l-183 -210l93 -200h-116zM353 22l-98 204l179 206h125l-182 -210l92 -200h-116z" />
    <glyph glyph-name="endash" unicode="&#x2013;" horiz-adv-x="506" 
d="M24 222l37 109h468l-38 -109h-467z" />
    <glyph glyph-name="dagger" unicode="&#x2020;" horiz-adv-x="486" 
d="M333 368l-105 -542h-119l106 542h-164l19 100h164l44 228h119l-44 -228h164l-19 -100h-165z" />
    <glyph glyph-name="periodcentered" unicode="&#xb7;" horiz-adv-x="271" 
d="M136 197q-32 0 -52 20.5t-20 50.5q0 21 9 40t24 33t33.5 22t37.5 8q32 0 52 -19.5t20 -50.5q0 -20 -8.5 -39t-23 -33.5t-33 -23t-39.5 -8.5z" />
    <glyph glyph-name="bullet" unicode="&#x2022;" horiz-adv-x="454" 
d="M99 286q4 31 19.5 58t38.5 47t51.5 32t59.5 12q28 0 52 -10t41 -27t27 -41t10 -51q0 -34 -14.5 -65t-38 -54t-54.5 -37t-64 -14q-28 0 -51.5 10t-41 27.5t-27 41t-9.5 50.5v10.5t1 10.5z" />
    <glyph glyph-name="quotedblright" unicode="&#x201d;" horiz-adv-x="485" 
d="M311 508q30 19 50.5 43.5t28.5 48.5q-19 4 -30.5 18.5t-11.5 37.5q0 39 25.5 67.5t65.5 28.5q35 0 54.5 -24.5t19.5 -62.5q0 -30 -12 -61t-34 -59.5t-53 -53.5t-70 -43zM117 508q30 19 51 43.5t29 48.5q-19 4 -31 18.5t-12 37.5q0 39 26 67.5t66 28.5q35 0 54.5 -24.5
t19.5 -62.5q0 -30 -12 -61t-34 -60t-53 -53.5t-70 -42.5z" />
    <glyph glyph-name="guillemotright" unicode="&#xbb;" horiz-adv-x="547" 
d="M421 432l98 -206l-179 -204h-125l182 209l-92 201h116zM213 432l99 -206l-179 -204h-126l183 209l-92 201h115z" />
    <glyph glyph-name="ellipsis" unicode="&#x2026;" horiz-adv-x="902" 
d="M108 -7q-30 0 -47.5 18.5t-17.5 46.5q0 18 7.5 35t20.5 30t30 21t36 8q30 0 48 -18t18 -45q0 -19 -7.5 -36t-20.5 -30.5t-30.5 -21.5t-36.5 -8zM415 -7q-30 0 -47.5 18.5t-17.5 46.5q0 18 7.5 35t20.5 30t30 21t36 8q30 0 48.5 -18t18.5 -44q0 -19 -7.5 -36.5t-21 -31
t-31 -21.5t-36.5 -8zM711 -7q-30 0 -48 18.5t-18 46.5q0 18 8 35t21 30t30 21t36 8q30 0 48 -18t18 -45q0 -19 -7.5 -36t-20.5 -30.5t-30.5 -21.5t-36.5 -8z" />
    <glyph glyph-name="grave" unicode="`" horiz-adv-x="508" 
d="M344 542l-166 181l106 40l120 -184z" />
    <glyph glyph-name="dieresis" unicode="&#xa8;" horiz-adv-x="491" 
d="M439 693q25 0 40.5 -15.5t15.5 -40.5q0 -16 -7 -30.5t-19 -25.5t-27 -17.5t-30 -6.5q-25 0 -40.5 15.5t-15.5 38.5q0 16 7 31t18 26.5t26 18t32 6.5zM241 693q25 0 40.5 -15.5t15.5 -40.5q0 -16 -7 -30.5t-19 -25.5t-27 -17.5t-30 -6.5q-25 0 -40.5 15.5t-15.5 38.5
q0 16 7 31t18.5 26.5t26.5 18t31 6.5z" />
    <glyph glyph-name="emdash" unicode="&#x2014;" horiz-adv-x="1034" 
d="M20 222l37 109h993l-37 -109h-993z" />
    <glyph glyph-name="oe" unicode="&#x153;" horiz-adv-x="818" 
d="M617 502q48 0 82.5 -12t56.5 -31.5t32.5 -45t10.5 -52.5q0 -42 -20.5 -72.5t-57 -51t-85.5 -30t-106 -9.5h-21t-21 1q-1 -5 -1.5 -12t-0.5 -12q0 -38 23 -54t61 -16q22 0 51 10.5t61 36.5q3 -5 12 -19t18.5 -30t18.5 -29.5t13 -18.5q-56 -40 -108 -50t-98 -10
q-43 0 -78 14t-57 43q-33 -33 -77.5 -45t-96.5 -12q-35 0 -68 11t-59.5 32.5t-42.5 53t-16 73.5q0 10 1 20t3 21l20 114q17 92 77 136.5t149 44.5q44 0 89 -16t68 -46q31 35 74.5 49t92.5 14zM367 287q1 5 1.5 10.5t0.5 10.5q0 38 -25 56.5t-56 18.5q-35 0 -62 -19t-36 -67
l-17 -94q-1 -5 -1.5 -9.5t-0.5 -9.5q0 -19 6.5 -32.5t17 -22.5t24.5 -13t28 -4q38 0 66 19t37 68zM616 389q-44 0 -70.5 -26.5t-38.5 -71.5q10 -1 19 -1h17q39 0 64 5.5t39.5 13.5t19.5 18.5t5 19.5q0 17 -11.5 29.5t-43.5 12.5z" />
    <glyph glyph-name="germandbls" unicode="&#xdf;" horiz-adv-x="528" 
d="M144 -1h-125l100 516q18 94 77.5 145.5t149.5 51.5q50 0 85.5 -15t57.5 -38t32 -52t10 -57q0 -11 -3 -30.5t-12.5 -41.5t-27 -43.5t-47.5 -35.5q31 -14 46.5 -45.5t15.5 -66.5q0 -14 -3 -29l-15 -85q-14 -81 -63.5 -130.5t-136.5 -49.5q-15 0 -37 1t-42 6l23 114
q11 -2 21 -3t20 -1q32 0 56.5 16.5t33.5 62.5l14 71q1 5 1.5 9t0.5 9q0 31 -21.5 46.5t-58.5 15.5h-11l20 103h9q22 0 40.5 8t31 21t19.5 30.5t7 36.5q0 29 -20.5 48.5t-51.5 19.5q-23 0 -39 -7.5t-27 -20.5t-18 -29t-10 -32z" />
    <glyph glyph-name="mu" unicode="&#xb5;" horiz-adv-x="525" 
d="M322 0q0 11 0.5 21.5t0.5 21.5q-45 -27 -78.5 -36t-57.5 -11q-18 0 -30.5 1t-23.5 5l-39 -201h-126q15 79 27 141.5t22 115t19 100t19 98t21.5 108t25.5 130.5h128l-59 -305q-1 -5 -1.5 -9.5t-0.5 -9.5q0 -24 13 -40t39 -16q23 0 53 10t72 35l65 335h127l-96 -494h-120z
" />
    <glyph glyph-name="mu" unicode="&#x3bc;" horiz-adv-x="525" 
d="M322 0q0 11 0.5 21.5t0.5 21.5q-45 -27 -78.5 -36t-57.5 -11q-18 0 -30.5 1t-23.5 5l-39 -201h-126q15 79 27 141.5t22 115t19 100t19 98t21.5 108t25.5 130.5h128l-59 -305q-1 -5 -1.5 -9.5t-0.5 -9.5q0 -24 13 -40t39 -16q23 0 53 10t72 35l65 335h127l-96 -494h-120z
" />
    <glyph glyph-name="trademark" unicode="&#x2122;" horiz-adv-x="910" 
d="M243 272h-87v335h-120v83h327v-83h-120v-335zM745 497l-41 -78l-51 -89h-64l-49 88l-44 79h-2v-225h-87v419h81l78 -147l54 -105h4l54 107l76 145h81v-419h-88v225h-2z" />
    <glyph glyph-name="plusminus" unicode="&#xb1;" horiz-adv-x="534" 
d="M340 311l-34 -174h-104l34 174h-192l19 98h192l35 179h104l-35 -179h191l-19 -98h-191zM-18 0l18 97h492l-18 -97h-492z" />
    <glyph glyph-name="divide" unicode="&#xf7;" horiz-adv-x="534" 
d="M310 420q-29 0 -47.5 17.5t-18.5 43.5q0 18 8 34t21.5 28t30.5 19t35 7q29 0 47 -17t18 -44q0 -17 -8 -33t-21.5 -28t-30 -19.5t-34.5 -7.5zM28 247l20 99h493l-19 -99h-494zM231 18q-29 0 -47 17.5t-18 43.5q0 18 8 33.5t21 27.5t30 19t35 7q29 0 47.5 -17t18.5 -43
q0 -18 -8 -34t-21.5 -28t-30.5 -19t-35 -7z" />
    <glyph glyph-name="degree" unicode="&#xb0;" horiz-adv-x="417" 
d="M362 554q0 -30 -12 -57t-33 -47t-49 -31.5t-60 -11.5t-60 11.5t-49 31.5t-33 47t-12 57t12 57t33 47t49 31.5t60 11.5q33 0 61 -11.5t49 -31.5t32.5 -47t11.5 -57zM278 554q0 29 -20.5 48.5t-49.5 19.5t-49.5 -19.5t-20.5 -48.5q0 -28 20.5 -48t49.5 -20t49.5 20t20.5 48
z" />
    <glyph glyph-name="registered" unicode="&#xae;" horiz-adv-x="521" 
d="M266 470h-36v-89h-47v229h91q30 0 51.5 -18.5t21.5 -50.5q0 -18 -9.5 -34.5t-29.5 -28.5l46 -97h-51zM230 565v-51h42q13 0 21 7.5t8 19.5q0 24 -27 24h-44zM260 289q-44 0 -81.5 15.5t-65.5 43t-44 65t-16 81.5t16.5 81.5t45 65.5t66 43.5t79.5 15.5q43 0 81 -15.5
t65.5 -43.5t43.5 -65.5t16 -81.5t-16.5 -81.5t-45 -65t-66 -43t-78.5 -15.5zM260 654q-33 0 -62 -12.5t-50 -34t-33.5 -50.5t-12.5 -63t12.5 -63.5t33.5 -51t50 -34t62 -12.5t61.5 12.5t49.5 34t33 51t12 63.5t-12 63t-33 50.5t-49.5 34t-61.5 12.5z" />
    <glyph glyph-name="copyright" unicode="&#xa9;" horiz-adv-x="823" 
d="M412 -19q-75 0 -140 26.5t-113 74.5t-75.5 114.5t-27.5 146.5q0 78 27.5 145t75.5 115.5t113 76t140 27.5t140 -27t113 -75.5t75.5 -115.5t27.5 -146q0 -78 -27.5 -144.5t-75.5 -115t-113 -75.5t-140 -27zM412 635q-59 0 -109 -22.5t-87.5 -62t-58.5 -93t-21 -114.5
q0 -62 21 -115t58.5 -92t87.5 -61.5t109 -22.5t109.5 22.5t87.5 61.5t58 92t21 115q0 63 -21 116.5t-58 92.5t-87.5 61t-109.5 22zM512 448q-22 19 -45 26t-45 7q-14 0 -29 -4.5t-27 -14t-19.5 -25t-7.5 -37.5v-127q0 -22 8 -37t20 -24.5t27 -14t29 -4.5q20 0 43 7t46 25
l43 -68q-26 -22 -61.5 -33.5t-72.5 -11.5q-31 0 -61.5 9t-55 26.5t-39.5 44t-15 61.5v162q0 36 15 63t39 45t54.5 27.5t61.5 9.5q37 0 74.5 -11t63.5 -33z" />
    <glyph glyph-name="dieresistonos" unicode="&#x385;" horiz-adv-x="523" 
d="M419 625q5 29 28.5 48.5t51.5 19.5q26 0 41 -15.5t15 -39.5q0 -16 -7 -30.5t-18 -26t-25.5 -18t-30.5 -6.5q-25 0 -40.5 16.5t-15.5 39.5q0 8 1 12zM124 625q5 29 28.5 48.5t52.5 19.5q26 0 41.5 -16t15.5 -39q0 -16 -7 -30.5t-18.5 -26t-26.5 -18t-30 -6.5
q-26 0 -41.5 16.5t-15.5 39.5q0 8 1 12zM253 558l96 202l115 -23l-139 -198z" />
    <glyph glyph-name="tonos" unicode="&#x384;" horiz-adv-x="511" 
d="M263 568l118 195l109 -37l-159 -185z" />
    <glyph glyph-name="sfthyphen" unicode="&#xad;" horiz-adv-x="416" 
d="M69 317h315l-22 -113h-316z" />
    <glyph glyph-name="Gamma" unicode="&#x393;" horiz-adv-x="535" 
d="M25 0l134 689h471l-23 -123h-335q-16 -85 -26.5 -136.5t-17.5 -86.5t-12 -62t-11.5 -61.5t-16.5 -85.5t-26 -134h-137z" />
    <glyph glyph-name="Delta" unicode="&#x394;" horiz-adv-x="630" 
d="M-33 0l377 689h128l112 -689h-617zM369 486l-81 -156l-112 -208h245l-28 207l-20 157h-4z" />
    <glyph glyph-name="Delta" unicode="&#x2206;" horiz-adv-x="630" 
d="M-33 0l377 689h128l112 -689h-617zM369 486l-81 -156l-112 -208h245l-28 207l-20 157h-4z" />
    <glyph glyph-name="Theta" unicode="&#x398;" horiz-adv-x="635" 
d="M429 289h-182l22 113h184zM589 214q-21 -110 -92.5 -165t-191.5 -55q-45 0 -88.5 13.5t-77 40.5t-54.5 67.5t-21 94.5q0 27 6 57l40 208q10 55 35 96.5t61 69t82 41.5t99 14q47 0 92 -14t79.5 -40.5t55.5 -66t21 -90.5q0 -11 -1.5 -23t-3.5 -24zM494 436q3 15 3 28
q0 27 -10 46.5t-26 33t-36 20t-41 6.5q-53 0 -91.5 -28.5t-51.5 -96.5l-37 -192q-3 -18 -3 -33q0 -27 9.5 -46.5t25.5 -31.5t36 -17.5t40 -5.5q58 0 95 31t50 98z" />
    <glyph glyph-name="Lambda" unicode="&#x39b;" horiz-adv-x="630" 
d="M381 492l-102 -195l-158 -297h-141l377 689h129l111 -689h-141l-40 276l-30 216h-5z" />
    <glyph glyph-name="Xi" unicode="&#x39e;" horiz-adv-x="559" 
d="M8 0l23 122h173l31 164h-121l24 122h122l30 159h-173l25 122h468l-24 -122h-173l-32 -159h124l-24 -122h-123l-32 -164h174l-24 -122h-468z" />
    <glyph glyph-name="Pi" unicode="&#x3a0;" horiz-adv-x="631" 
d="M409 0l110 566h-254l-110 -566h-137l134 689h530l-134 -689h-139z" />
    <glyph glyph-name="Sigma" unicode="&#x3a3;" horiz-adv-x="517" 
d="M-2 0l23 118l194 239l-103 218l21 114h448l-23 -122h-283l99 -210l-193 -236h300l-24 -121h-459z" />
    <glyph glyph-name="Iotadieresis" unicode="&#x3aa;" horiz-adv-x="295" 
d="M311 689l-134 -689h-137l134 689h137zM382 876q25 0 40.5 -15.5t15.5 -40.5q0 -16 -7 -30.5t-19 -25.5t-27 -17.5t-30 -6.5q-25 0 -40.5 15.5t-15.5 38.5q0 16 7 31t18 26.5t26 18t32 6.5zM184 876q25 0 40.5 -15.5t15.5 -40.5q0 -16 -7 -30.5t-19 -25.5t-27 -17.5
t-30 -6.5q-25 0 -40.5 15.5t-15.5 38.5q0 16 7 31t18.5 26.5t26.5 18t31 6.5z" />
    <glyph glyph-name="Alpha" unicode="&#x391;" horiz-adv-x="638" 
d="M427 142h-239l-72 -142h-149l374 689h140l106 -689h-144zM246 257h166l-11 105l-18 161h-4l-74 -149z" />
    <glyph glyph-name="Beta" unicode="&#x392;" horiz-adv-x="624" 
d="M447 689q46 0 80 -12.5t56.5 -34t33.5 -50t11 -61.5q0 -56 -27.5 -100t-86.5 -71q20 -11 33 -26.5t20.5 -33.5t10.5 -38t3 -39q0 -44 -16 -84.5t-45.5 -71t-72 -49t-95.5 -18.5h-333l134 689h294zM236 414h140q28 0 48 9t33 22.5t19 28.5t6 28q0 65 -79 65h-137zM179 122
h144q51 0 82 28t31 75q0 32 -20 51t-58 19h-145z" />
    <glyph glyph-name="Epsilon" unicode="&#x395;" horiz-adv-x="579" 
d="M159 689h464l-23 -123h-328l-31 -158h288l-23 -123h-289l-32 -163h352l-24 -122h-488z" />
    <glyph glyph-name="Zeta" unicode="&#x396;" horiz-adv-x="540" 
d="M17 118l398 449h-298l23 122h463l-21 -114l-404 -453h315l-23 -122h-476z" />
    <glyph glyph-name="Eta" unicode="&#x397;" horiz-adv-x="631" 
d="M409 0l56 288h-254l-56 -288h-137l134 689h137l-54 -277h254l54 277h139l-134 -689h-139z" />
    <glyph glyph-name="Iota" unicode="&#x399;" horiz-adv-x="295" 
d="M311 689l-134 -689h-137l134 689h137z" />
    <glyph glyph-name="Kappa" unicode="&#x39a;" horiz-adv-x="611" 
d="M315 313l-126 -120l-37 -193h-137l134 689h137l-59 -301l310 301h163l-283 -278l164 -411h-150z" />
    <glyph glyph-name="Mu" unicode="&#x39c;" horiz-adv-x="785" 
d="M401 275l282 414h132l-132 -689h-136l71 370h-3q-13 -19 -39 -56t-55.5 -78.5t-57.5 -80.5t-45 -60h-98q-4 12 -11.5 33.5t-16 47.5t-17.5 54.5t-17.5 55t-15.5 48.5t-11 35h-5l-71 -369h-136l132 689h120q7 -23 17.5 -57t22.5 -73t24.5 -80.5t23.5 -79.5t20.5 -70.5
t15.5 -53.5h6z" />
    <glyph glyph-name="Phi" unicode="&#x3a6;" horiz-adv-x="781" 
d="M550 662q109 -8 166 -71t57 -169q0 -79 -22 -144t-65 -112.5t-107 -76t-147 -34.5l-11 -55h-137l10 55q-108 9 -164.5 71.5t-56.5 163.5q0 79 22.5 145t65.5 114.5t106.5 77.5t144.5 35l7 34h137zM455 175q49 5 83.5 26t56.5 53.5t32 74t10 87.5q0 26 -5 49t-18 40
t-34 28t-53 13zM389 543q-50 -5 -84.5 -28.5t-55.5 -58t-30 -75t-9 -78.5q0 -53 23.5 -86.5t83.5 -41.5z" />
    <glyph glyph-name="Upsilondieresis" unicode="&#x3ab;" horiz-adv-x="557" 
d="M310 396l87 137l99 156h150l-288 -419l-52 -270h-137l52 270l-128 419h142l41 -167l29 -126h5zM500 871q25 0 40.5 -15.5t15.5 -40.5q0 -16 -7 -30.5t-19 -25.5t-27 -17.5t-30 -6.5q-25 0 -40.5 15.5t-15.5 38.5q0 16 7 31t18 26.5t26 18t32 6.5zM302 871
q25 0 40.5 -15.5t15.5 -40.5q0 -16 -7 -30.5t-19 -25.5t-27 -17.5t-30 -6.5q-25 0 -40.5 15.5t-15.5 38.5q0 16 7 31t18.5 26.5t26.5 18t31 6.5z" />
    <glyph glyph-name="Psi" unicode="&#x3a8;" horiz-adv-x="769" 
d="M758 368q-17 -107 -95.5 -173t-220.5 -71l-24 -124h-136l12 62t13 62q-44 4 -83.5 19t-69.5 40.5t-48.5 61t-20.5 80.5q0 15 1 30.5t4 32.5l57 301h133l-59 -302q-1 -7 -1.5 -14t-0.5 -15q0 -51 32 -77.5t79 -31.5h1l85 441h136q-22 -111 -43 -221t-43 -220h1
q27 3 53 11.5t48 24.5t38 39t22 54l61 311h131q-16 -81 -31 -161t-31 -160z" />
    <glyph glyph-name="Omega" unicode="&#x3a9;" horiz-adv-x="647" 
d="M331 0l29 144q36 10 66 39.5t40 81.5l34 174q3 15 3 28q0 27 -10 46.5t-26 32.5t-36 19t-40 6q-24 0 -47.5 -7t-43 -22t-34 -38.5t-20.5 -57.5l-34 -177q-3 -17 -3 -30q0 -39 20 -62.5t46 -32.5l-30 -144h-234l23 117h78q-22 17 -31 47t-9 62q0 22 3 40l38 202
q21 111 96 170t190 59q47 0 90.5 -14t77.5 -41t54 -65.5t20 -87.5q0 -23 -4 -42l-35 -192q-8 -44 -27 -81.5t-58 -56.5h75l-23 -117h-238z" />
    <glyph glyph-name="Nu" unicode="&#x39d;" horiz-adv-x="675" 
d="M485 248q22 111 43 220.5t42 220.5h135l-132 -689h-124q-12 25 -28.5 61t-35.5 76.5t-39.5 83.5t-39 83.5t-34.5 75t-27 58.5l-90 -438h-136l132 689h125q11 -23 28 -57.5t36 -75.5t39 -85.5t39 -86t35.5 -77t27.5 -59.5h4z" />
    <glyph glyph-name="Omicron" unicode="&#x39f;" horiz-adv-x="635" 
d="M589 214q-21 -110 -92.5 -165t-191.5 -55q-45 0 -88.5 13.5t-77 40.5t-54.5 67.5t-21 94.5q0 27 6 57l40 208q10 55 35 96.5t61 69t82 41.5t99 14q47 0 92 -14t79.5 -40.5t55.5 -66t21 -90.5q0 -11 -1.5 -23t-3.5 -24zM494 436q3 15 3 28q0 27 -10 46.5t-26 33t-36 20
t-41 6.5q-53 0 -91.5 -28.5t-51.5 -96.5l-37 -192q-3 -18 -3 -33q0 -27 9.5 -46.5t25.5 -31.5t36 -17.5t40 -5.5q58 0 95 31t50 98z" />
    <glyph glyph-name="Rho" unicode="&#x3a1;" horiz-adv-x="571" 
d="M229 383h133q26 0 47 8.5t36 23.5t23.5 34.5t8.5 42.5q0 32 -20.5 53t-61.5 21h-130zM440 689q42 0 74 -16t53.5 -42.5t32 -60.5t10.5 -69q0 -40 -14.5 -82.5t-44 -78t-74 -58.5t-105.5 -23h-167l-50 -259h-137l134 689h288z" />
    <glyph glyph-name="Tau" unicode="&#x3a4;" horiz-adv-x="526" 
d="M410 565l-110 -565h-137l109 565h-182l24 124h502l-24 -124h-182z" />
    <glyph glyph-name="Upsilon" unicode="&#x3a5;" horiz-adv-x="557" 
d="M310 396l87 137l99 156h150l-288 -419l-52 -270h-137l52 270l-128 419h142l41 -167l29 -126h5z" />
    <glyph glyph-name="Chi" unicode="&#x3a7;" horiz-adv-x="595" 
d="M317 244l-182 -244h-162l286 353l-140 336h151l80 -225l166 225h161l-270 -336l157 -353h-156z" />
    <glyph glyph-name="afii00208" unicode="&#x2015;" horiz-adv-x="1000" 
d="M47 331h947l-23 -115h-946z" />
    <glyph glyph-name="alpha" unicode="&#x3b1;" horiz-adv-x="525" 
d="M64 320q36 181 197 181q26 0 62 -10.5t74 -35.5l18 39h117l-96 -494h-118l-2 41q-53 -27 -89.5 -36t-62.5 -9q-69 0 -101 33.5t-32 92.5q0 13 1 26t4 27zM167 192q-3 -14 -3 -25q0 -28 14.5 -39t37.5 -11q24 0 56.5 13t67.5 32l35 185q-19 14 -50 25.5t-57 11.5t-48 -18
t-30 -58z" />
    <glyph glyph-name="beta" unicode="&#x3b2;" horiz-adv-x="520" 
d="M474 173q-15 -81 -67.5 -130.5t-140.5 -49.5q-26 0 -60 5t-68 24l-40 -208h-125l135 701q18 94 77.5 145.5t149.5 51.5q50 0 85.5 -15t57.5 -38t32 -52t10 -57q0 -11 -3 -30.5t-12.5 -41.5t-27 -43.5t-47.5 -35.5q31 -14 46.5 -45.5t15.5 -66.5q0 -14 -3 -29zM363 260
q1 5 1.5 9t0.5 9q0 31 -21.5 46.5t-58.5 15.5h-30l20 103h28q24 0 42 9t30.5 22.5t19 30t6.5 30.5q0 29 -18.5 50.5t-51.5 21.5q-23 0 -39.5 -7.5t-28 -20.5t-18.5 -29t-10 -32l-74 -377q32 -16 55 -21.5t47 -5.5q29 0 53.5 16t32.5 59z" />
    <glyph glyph-name="psi" unicode="&#x3c8;" horiz-adv-x="679" 
d="M629 185q-19 -94 -88.5 -141.5t-178.5 -47.5l-37 -196h-126l38 197q-36 0 -71 11t-62.5 33t-44 55t-16.5 78q0 12 1.5 24t3.5 26l54 272h127l-55 -280q-3 -14 -3 -26q0 -37 23 -57.5t65 -20.5l75 383h126l-74 -383q51 0 81.5 26t39.5 72l56 286h125l-59 -311v0z" />
    <glyph glyph-name="delta" unicode="&#x3b4;" horiz-adv-x="520" 
d="M471 178q-8 -42 -24.5 -76t-44 -58t-66.5 -36.5t-92 -12.5q-45 0 -82.5 13t-64 36t-41.5 56t-15 73q0 22 4 41l17 91q10 52 36.5 93.5t81.5 61.5q-27 17 -35.5 40.5t-8.5 47.5q0 39 16 70t43.5 52t63 32.5t74.5 11.5q51 0 101 -12.5t91 -43.5l-61 -94q-31 22 -59.5 31.5
t-56.5 9.5q-38 0 -55 -14.5t-17 -30.5q0 -14 8 -24t20 -18.5t26.5 -15t28.5 -12.5q69 -31 101 -73.5t32 -101.5q0 -20 -5 -48zM363 279q3 15 3 28q0 35 -21.5 58.5t-62.5 34.5q-39 -8 -64.5 -40t-33.5 -80l-12 -68q-1 -6 -1.5 -12t-0.5 -11q0 -35 20.5 -56.5t57.5 -21.5
q84 0 102 98z" />
    <glyph glyph-name="epsilon" unicode="&#x3b5;" horiz-adv-x="446" 
d="M412 60q-51 -39 -102.5 -51.5t-102.5 -12.5q-84 0 -131.5 33.5t-47.5 93.5q0 7 2.5 24t12 37t28.5 39.5t52 32.5q0 1 0.5 1t0.5 2q-29 15 -41 39t-12 48q0 28 13.5 56t40.5 49.5t66 35t90 13.5q23 0 47 -3t47.5 -10t46 -19t41.5 -30l-72 -90q-22 23 -52.5 31.5t-55.5 8.5
q-12 0 -27 -3t-28 -9.5t-22 -17t-9 -26.5q0 -15 15.5 -24.5t40.5 -9.5h71q-4 -24 -8.5 -48t-9.5 -49h-73q-30 0 -51.5 -13t-21.5 -39q0 -16 17.5 -27.5t52.5 -11.5q26 0 60 7.5t66 34.5l56 -92v0z" />
    <glyph glyph-name="phi" unicode="&#x3c6;" horiz-adv-x="671" 
d="M316 -199h-126l37 194q-41 0 -75.5 13t-59.5 36.5t-39.5 57t-14.5 74.5q0 23 4 43l18 96q14 76 65 123.5t127 52.5q2 -29 3 -58t3 -58q-66 -12 -79 -83l-15 -79q-1 -5 -1.5 -9.5t-0.5 -9.5q0 -35 23 -59t65 -24l66 337q50 26 94.5 39.5t91.5 13.5q38 0 66 -12.5t46 -33.5
t27 -49t9 -60q0 -11 -1 -22t-3 -22l-22 -126q-16 -92 -88.5 -136.5t-181.5 -44.5zM518 297q1 5 1.5 10t0.5 10q0 24 -12 41t-38 17q-10 0 -20.5 -2.5t-23.5 -6.5q-12 -64 -24.5 -127.5t-25.5 -126.5q48 0 82 21t43 71z" />
    <glyph glyph-name="gamma" unicode="&#x3b3;" horiz-adv-x="481" 
d="M233 192h5q20 38 37.5 75t34.5 72l82 156h139q-67 -119 -132 -238t-128 -238l-41 -219h-124l35 212l-50 331q-5 32 -12.5 41t-27.5 9h-7q0 25 -0.5 49.5t-0.5 49.5q39 11 64 11q49 0 71.5 -25t28.5 -85z" />
    <glyph glyph-name="eta" unicode="&#x3b7;" horiz-adv-x="529" 
d="M291 -141l85 446q3 13 3 24q0 29 -15 40t-38 11q-24 0 -53 -10t-72 -36l-65 -334h-127l97 494h116l2 -42q31 17 55.5 26.5t43.5 14.5t34 6.5t27 1.5q68 0 99 -33t31 -91q0 -24 -6 -54l-88 -464h-129z" />
    <glyph glyph-name="iota" unicode="&#x3b9;" horiz-adv-x="287" 
d="M253 496l-61 -312q-2 -11 -3.5 -19.5t-0.5 -15.5q0 -23 12 -31.5t38 -10.5l-24 -109h-25q-63 0 -99 27t-36 85q0 21 4 41l66 345h129z" />
    <glyph glyph-name="xi" unicode="&#x3be;" horiz-adv-x="439" 
d="M355 708q15 0 38.5 -1.5t49.5 -6t51 -13.5t44 -24l-62 -103q-35 25 -68.5 30.5t-59.5 5.5q-30 0 -51.5 -9t-35 -22.5t-20 -30t-6.5 -31.5q0 -29 23 -49t61 -20h108q-1 -5 -3.5 -18.5t-6 -29.5t-6 -30t-3.5 -19h-108q-31 0 -57.5 -11.5t-45.5 -31t-29.5 -44.5t-10.5 -52
q0 -31 15 -49t38 -28t51.5 -13t55.5 -4h60q1 -5 5 -16.5t8.5 -25l8.5 -25.5t6 -16q-16 -18 -31.5 -41.5t-30 -50.5t-28 -56t-24.5 -58l-110 26q6 16 15.5 36.5t20 41.5t22 40.5t22.5 34.5q-48 4 -89 16.5t-71.5 36t-47.5 58.5t-17 84q0 16 5.5 43.5t21.5 56.5t44 55.5
t73 41.5q-21 10 -35 24t-21.5 30t-10.5 33t-3 32q0 49 20.5 87t54.5 64t78 39t92 13z" />
    <glyph glyph-name="kappa" unicode="&#x3ba;" horiz-adv-x="512" 
d="M523 495l-66 -145q-18 -36 -39.5 -59t-53.5 -35q34 -12 45 -36t17 -61l25 -159h-132l-16 135q-5 45 -26.5 57t-56.5 12h-49l-36 -204h-125l91 495h126l-35 -178h48q31 0 53.5 12.5t42.5 53.5l53 112h134z" />
    <glyph glyph-name="lambda" unicode="&#x3bb;" horiz-adv-x="524" 
d="M438 0h-128l61 326q-28 14 -52 20.5t-47 6.5q-29 0 -53.5 -17.5t-32.5 -60.5l-53 -275h-128l56 299q14 81 62 127.5t136 46.5q26 0 62.5 -7t71.5 -23l11 60q3 12 3 23q0 36 -24.5 53.5t-64.5 17.5q-32 0 -65.5 -7.5t-59.5 -20.5l-33 105q47 20 93.5 29t89.5 9
q89 0 141 -43.5t52 -123.5q0 -11 -1.5 -22.5t-3.5 -24.5z" />
    <glyph glyph-name="nu" unicode="&#x3bd;" horiz-adv-x="479" 
d="M228 165l101 197q21 41 28.5 65.5t7.5 53.5v16h134v-15q0 -45 -12 -78.5t-34 -70.5l-193 -333h-127l-82 495h138q1 -12 4 -35t6 -48t5.5 -47.5t3.5 -34.5q1 -13 3.5 -35.5t5 -47t4.5 -47t3 -35.5h4z" />
    <glyph glyph-name="omicron" unicode="&#x3bf;" horiz-adv-x="521" 
d="M473 174q-18 -92 -77 -135.5t-159 -43.5q-38 0 -73 11t-61.5 33.5t-42.5 55.5t-16 77q0 11 1 22t3 23l19 102q17 92 76 137t153 45q45 0 82.5 -13t63.5 -36.5t40.5 -56t14.5 -72.5q0 -23 -4 -43zM367 281q3 13 3 25q0 39 -24.5 58.5t-56.5 19.5q-35 0 -60.5 -19.5
t-35.5 -67.5l-18 -89q-3 -14 -3 -24q0 -20 7.5 -33.5t19 -22t25.5 -12.5t28 -4q38 0 63 19t35 68z" />
    <glyph glyph-name="pi" unicode="&#x3c0;" horiz-adv-x="523" 
d="M312 0l74 385h-177l-75 -385h-127l96 496h434l-96 -496h-129z" />
    <glyph glyph-name="rho" unicode="&#x3c1;" horiz-adv-x="515" 
d="M467 173q-16 -82 -67.5 -131t-139.5 -49q-26 0 -59.5 5t-67.5 24l-43 -220h-127l100 509q19 99 83 144.5t156 45.5q42 0 77 -11t61 -31.5t40.5 -50.5t14.5 -67q0 -9 -1 -18.5t-3 -19.5zM155 141q32 -16 55.5 -21.5t46.5 -5.5q28 0 53.5 16t33.5 59l20 105q2 6 2 11.5
v10.5q0 36 -22 52t-52 16q-16 0 -33 -4.5t-31.5 -15t-25.5 -27t-16 -40.5z" />
    <glyph glyph-name="sigma" unicode="&#x3c3;" horiz-adv-x="542" 
d="M463 383q16 -13 22 -33t6 -42q0 -17 -3 -33l-18 -100q-17 -93 -76.5 -136.5t-154.5 -43.5q-39 0 -74.5 11.5t-62.5 34t-43.5 55.5t-16.5 76q0 10 1 20.5t3 21.5l17 100q8 46 28.5 80t51 56.5t68.5 33.5t80 11h26.5t63 -0.5t86 -0.5h95.5q0 -6 -2 -21.5t-4.5 -32.5
t-4.5 -32.5t-2 -21.5h-85zM361 275q2 6 2 12v11q0 38 -23 59t-55 21q-35 0 -63.5 -19.5t-36.5 -67.5l-14 -83q-1 -5 -1.5 -10.5t-0.5 -10.5q0 -38 24.5 -56.5t56.5 -18.5q39 0 64 21t34 66z" />
    <glyph glyph-name="tau" unicode="&#x3c4;" horiz-adv-x="390" 
d="M220 180q-3 -15 -3 -27q0 -23 13.5 -34t45.5 -11q15 0 33 1t40 3l2 -100q-17 -6 -35 -9.5t-36 -5.5t-33.5 -2.5t-27.5 -0.5q-39 0 -64.5 7.5t-41 22t-22 34.5t-6.5 44q0 26 6 58l42 227h-93l22 107h338l-22 -107h-119z" />
    <glyph glyph-name="theta" unicode="&#x3b8;" horiz-adv-x="523" 
d="M474 179q-36 -184 -236 -184q-39 0 -74.5 11t-62.5 33t-42.5 54.5t-15.5 75.5q0 20 5 48l61 313q18 92 79 136t154 44q45 0 81.5 -12.5t62 -36t39.5 -56t14 -71.5q0 -11 -1 -22t-3 -22zM372 312h-178l-20 -104q-1 -7 -1.5 -13t-0.5 -11q0 -40 24 -56t53 -16q38 0 64 19
t36 68zM213 413h179l16 78q3 13 3 24q0 39 -24 58t-55 19q-35 0 -63.5 -18.5t-37.5 -66.5z" />
    <glyph glyph-name="omega" unicode="&#x3c9;" horiz-adv-x="788" 
d="M738 175q-20 -94 -80.5 -137t-150.5 -43q-20 0 -41.5 4t-41 12.5t-35 22t-22.5 33.5q-32 -36 -74.5 -54t-82.5 -18q-34 0 -64.5 9.5t-54 29t-37.5 49t-14 70.5q0 11 1 22t3 23l22 121q15 82 66 129t140 51l3 -114q-32 -5 -56 -26t-32 -63l-17 -96q-1 -7 -1.5 -13
t-0.5 -11q0 -34 18.5 -49t45.5 -15q32 0 60 20t37 68l29 155h126l-27 -155q-1 -6 -1.5 -12t-0.5 -11q0 -32 17.5 -48.5t48.5 -16.5q36 0 61.5 21.5t33.5 66.5l18 96q3 13 3 25q0 29 -15.5 44.5t-38.5 18.5l42 115q29 -4 54 -15.5t44 -30.5t29.5 -45t10.5 -60q0 -16 -3 -35
l-22 -138v0z" />
    <glyph glyph-name="sigma1" unicode="&#x3c2;" horiz-adv-x="457" 
d="M264 -7q-48 0 -88 13t-69 37t-45 58.5t-16 77.5q0 23 4 43l19 100q9 45 30 79t51 56t68 33t81 11q21 0 45.5 -3.5t48.5 -12.5t46 -24t39 -37q-4 -5 -16 -18t-25 -27t-25 -27t-16 -17q-24 30 -54.5 39.5t-48.5 9.5q-35 0 -63.5 -19t-38.5 -67l-14 -71q-3 -18 -3 -32
q0 -33 16 -52t44 -28t66 -11.5t82 -3.5q1 -4 5 -15.5t8.5 -24t8 -24t5.5 -15.5q-15 -18 -30.5 -41.5t-30 -50.5t-28 -56t-25.5 -58l-109 27q7 19 16 41t19.5 42.5t21.5 38.5t21 29z" />
    <glyph glyph-name="chi" unicode="&#x3c7;" horiz-adv-x="507" 
d="M310 0l-66 157l-128 -157h-153l223 252l-119 243h150l58 -150l121 150h153l-217 -242l129 -253h-151z" />
    <glyph glyph-name="upsilon" unicode="&#x3c5;" horiz-adv-x="524" 
d="M470 174q-18 -93 -78.5 -136t-156.5 -43q-33 0 -68.5 8.5t-64.5 27.5t-47.5 49.5t-18.5 75.5q0 22 4 42l58 298h127l-58 -297q-1 -5 -1.5 -9.5t-0.5 -9.5q0 -18 7 -31t18.5 -21.5t26 -12t28.5 -3.5q16 0 32.5 4.5t30.5 15t24 27t15 40.5l58 297h127l-62 -322v0z" />
    <glyph glyph-name="zeta" unicode="&#x3b6;" horiz-adv-x="421" 
d="M534 702q-1 -5 -3.5 -19t-5.5 -29t-5.5 -29t-3.5 -19q-81 -51 -147 -107t-113 -111t-72.5 -105t-25.5 -87q0 -57 54.5 -75t157.5 -18q1 -5 5 -16.5t8.5 -25t8 -25t5.5 -15.5q-15 -18 -30.5 -41.5t-30.5 -50.5t-28.5 -56t-24.5 -58l-109 26q6 16 15.5 36.5t20 41.5
t22 40.5t22.5 34.5q-45 4 -86 15t-72 31.5t-49.5 53t-18.5 79.5q0 48 23.5 104.5t64.5 113t96.5 108.5t119.5 93h-201q1 6 4 21.5t6.5 33t6.5 33.5t4 22h382z" />
    <glyph glyph-name="Euro" unicode="&#x20ac;" horiz-adv-x="534" 
d="M57 365l17 79h47q19 120 91.5 186t196.5 66q50 0 99 -12.5t86 -36.5q-18 -27 -36.5 -54t-36.5 -55q-25 17 -56 24.5t-59 7.5q-60 0 -97 -33t-53 -93h213l-13 -79h-399zM444 326l-13 -80h-212q-2 -8 -3 -16t-1 -16q0 -44 28.5 -70t81.5 -26q29 0 65.5 9t67.5 26l50 -114
q-49 -25 -100.5 -35t-98.5 -10q-46 0 -88 13.5t-74 39t-51 63t-19 86.5q0 12 1.5 24t3.5 26h-48l17 80h393z" />
    <glyph glyph-name="tilde" unicode="&#x2dc;" horiz-adv-x="508" 
d="M292 713q19 0 35 -7t30 -15.5t26 -15t23 -6.5q16 0 32 9.5t39 35.5l12 -8t19.5 -13.5t20 -13.5t12.5 -8q-31 -57 -63.5 -79.5t-66.5 -22.5q-19 0 -35 6t-30.5 13.5t-27.5 13.5t-27 6q-17 0 -32.5 -8t-41.5 -35l-63 45q32 51 65 77t73 26z" />
    <glyph glyph-name="currency" unicode="&#xa4;" horiz-adv-x="556" 
d="M30 499l66 66l68 -68q28 17 55.5 25.5t56.5 8.5q31 0 58 -8t54 -25l67 67l66 -67l-68 -67q16 -27 25 -54.5t9 -55.5q0 -31 -8.5 -57.5t-25.5 -54.5q15 -14 34.5 -32.5t33.5 -33.5l-66 -66l-66 67q-54 -34 -113 -34q-29 0 -58 9t-55 25l-67 -67l-66 65l68 67
q-33 55 -33 112q0 54 34 110zM160 321q0 -24 9 -45t24.5 -36.5t36.5 -25t45 -9.5t45 9t37 25t25 37t9 45t-9 45t-25 36.5t-37 24.5t-45 9t-44.5 -9t-36.5 -24.5t-25 -36.5t-9 -45z" />
    <glyph glyph-name="logicalnot" unicode="&#xac;" horiz-adv-x="534" 
d="M482 59h-108l36 188h-381l20 99h489z" />
    <glyph glyph-name="paragraph" unicode="&#xb6;" horiz-adv-x="540" 
d="M453 59q-9 -50 -25.5 -87t-45.5 -62.5t-72.5 -38.5t-107.5 -14l2 97q41 4 67.5 13.5t42 24.5t23.5 36t13 48l116 630h106zM246 315q-37 0 -66 13t-49.5 36t-31.5 54t-11 67q0 50 18.5 91t50 70t72.5 44.5t86 15.5h88l-72 -391h-85z" />
    <glyph glyph-name="cedilla" unicode="&#xb8;" horiz-adv-x="453" 
d="M146 -74l61 122h63q-11 -21 -21.5 -42.5t-21.5 -42.5q24 -1 39.5 -8t25.5 -18t14 -24t4 -26q0 -20 -8.5 -38.5t-25.5 -33t-41.5 -23t-55.5 -8.5q-25 0 -52.5 7t-50.5 18l29 58q21 -11 39 -15t34 -4q17 0 33.5 7t16.5 26q0 8 -4.5 12.5t-11 6t-13.5 0.5t-13 -3z" />
    <glyph glyph-name="daggerdbl" unicode="&#x2021;" horiz-adv-x="496" 
d="M219 368h-168l19 100h168l44 228h121l-44 -228h167l-19 -100h-167l-31 -159h167l-20 -100h-167l-55 -283h-121l55 283h-167l19 100h168z" />
    <glyph glyph-name="circumflex" unicode="&#x2c6;" horiz-adv-x="508" 
d="M347 640l-165 -109l-43 49l175 153h87l116 -153l-53 -43z" />
    <glyph glyph-name="quotesinglbase" unicode="&#x201a;" horiz-adv-x="293" 
d="M6 -97q30 19 51 44t29 49q-43 8 -43 56q0 39 25.5 67t66.5 28q35 0 54 -24.5t19 -62.5q0 -30 -12 -61t-34 -59.5t-53 -53.5t-70 -43z" />
    <glyph glyph-name="quotedblbase" unicode="&#x201e;" horiz-adv-x="525" 
d="M6 -97q30 19 51 44t29 49q-43 8 -43 56q0 39 25.5 67t66.5 28q35 0 54 -24.5t19 -62.5q0 -30 -12 -61t-34 -59.5t-53 -53.5t-70 -43zM228 -97q30 19 50.5 44t28.5 49q-20 4 -31 17.5t-11 36.5q0 40 24.5 68.5t66.5 28.5q35 0 54.5 -24.5t19.5 -62.5q0 -30 -12 -61
t-34 -59.5t-53 -53.5t-70 -43z" />
    <glyph glyph-name="zero.numerator" unicode="&#xe2d0;" horiz-adv-x="348" 
d="M351 387q-11 -58 -50.5 -85.5t-100.5 -27.5q-23 0 -47 7t-44 21t-32.5 35.5t-12.5 50.5q0 6 0.5 12t1.5 12l31 163q11 57 48.5 87.5t101.5 30.5q27 0 51.5 -8t43 -23t29.5 -36.5t11 -48.5q0 -13 -3 -26zM289 555q1 4 1 10q0 20 -13.5 32t-32.5 12q-18 0 -33.5 -11
t-20.5 -36l-29 -154q-1 -4 -1 -11q0 -22 15.5 -31t31.5 -9q18 0 33 10.5t20 34.5z" />
    <glyph glyph-name="one.numerator" unicode="&#xe2d1;" horiz-adv-x="290" 
d="M123 277l58 297l-45 -30l-40 64l117 81h83l-80 -412h-93z" />
    <glyph glyph-name="two.numerator" unicode="&#xe2d2;" horiz-adv-x="348" 
d="M259 693q21 0 43.5 -4.5t41 -16t31 -31t12.5 -49.5q0 -26 -11 -46.5t-28 -38.5t-38 -33t-41 -28q-13 -9 -30.5 -19t-34 -21.5t-30 -24.5t-19.5 -26h190q-5 -20 -8 -39t-7 -39h-289l12 63q5 28 18.5 50t32.5 40t41 33t44 28q18 10 36 20.5t32.5 21t24 22t9.5 24.5
q0 15 -15 23t-35 8q-46 0 -92 -31l-36 71q32 21 69.5 32t76.5 11z" />
    <glyph glyph-name="three.numerator" unicode="&#xe2d3;" horiz-adv-x="347" 
d="M295 484q26 -9 38.5 -29.5t12.5 -46.5q0 -35 -14.5 -60t-37.5 -42t-52.5 -25t-59.5 -8q-40 0 -77 10.5t-60 32.5l53 70q17 -15 39.5 -22.5t42.5 -7.5q32 0 52 14t20 39q0 17 -12.5 28t-30.5 11h-61l15 76h59q8 0 18 2.5t19 8.5t15.5 15t6.5 23q0 20 -15 28.5t-35 8.5
t-45 -7.5t-48 -23.5l-33 71q33 23 68.5 33t76.5 10q24 0 47 -5.5t40.5 -17.5t28.5 -31.5t11 -47.5q0 -38 -23 -67.5t-60 -38.5z" />
    <glyph glyph-name="four.numerator" unicode="&#xe2d4;" horiz-adv-x="348" 
d="M322 334l-12 -57h-91l12 57h-188l13 68l200 287h99l-192 -276h83l22 107h90l-21 -107h37l-16 -79h-36z" />
    <glyph glyph-name="five.numerator" unicode="&#xe2d5;" horiz-adv-x="348" 
d="M355 381q-4 -26 -18 -46t-35 -33.5t-48 -20.5t-57 -7q-40 0 -78 13.5t-61 36.5l59 67q40 -34 81 -34q57 0 65 43l8 44q1 3 1 9q0 13 -7.5 19t-18.5 6q-9 0 -19.5 -3t-21 -7t-20 -9t-14.5 -8l-75 30l40 208h264l-16 -79h-171l-12 -64q18 8 36.5 13.5t32.5 5.5q54 0 76 -24
t22 -63v-13.5t-2 -13.5z" />
    <glyph glyph-name="six.numerator" unicode="&#xe2d6;" horiz-adv-x="348" 
d="M356 392q-10 -60 -54 -89t-104 -29q-24 0 -47 6.5t-41 20t-29.5 33.5t-11.5 48q0 12 3 27l31 167q5 29 20.5 51t37 36.5t48.5 22t55 7.5q42 0 75 -11t54 -33l-52 -68q-20 17 -41 23.5t-42 6.5q-23 0 -41 -13.5t-23 -37.5l-6 -31q26 13 46.5 18t36.5 5q48 0 71.5 -26
t23.5 -64q0 -13 -3 -28zM269 433q1 4 1 10q0 14 -8.5 20t-20.5 6q-14 0 -30.5 -6t-37.5 -15l-9 -46q-1 -3 -1 -10q0 -19 13 -27t29 -8q20 0 36.5 11t21.5 34z" />
    <glyph glyph-name="seven.numerator" unicode="&#xe2d7;" horiz-adv-x="337" 
d="M173 277h-102q9 14 26 40.5t37.5 58.5t43.5 67.5t43.5 67.5t37.5 58.5t26 40.5h-89l-11 -59h-89l26 138h288l-14 -70z" />
    <glyph glyph-name="eight.numerator" unicode="&#xe2d8;" horiz-adv-x="348" 
d="M263 693q23 0 45 -6.5t39 -19t27.5 -32t10.5 -46.5q0 -39 -18.5 -64.5t-48.5 -36.5q20 -8 29.5 -28.5t9.5 -44.5q0 -36 -15 -63t-39 -44t-53 -25.5t-57 -8.5q-24 0 -47.5 6t-41.5 19t-29.5 32.5t-11.5 46.5q0 45 22 71.5t51 37.5q-34 18 -34 62q0 37 14.5 64t37.5 45
t51.5 26.5t57.5 8.5zM251 608q-21 0 -39.5 -13t-18.5 -37q0 -16 12 -24.5t29 -8.5q20 0 38 13.5t18 35.5q0 17 -11.5 25.5t-27.5 8.5zM219 443q-21 0 -40 -13t-19 -38q0 -17 12.5 -26t29.5 -9q20 0 39 13t19 37q0 16 -11.5 26t-29.5 10z" />
    <glyph glyph-name="nine.numerator" unicode="&#xe2d9;" horiz-adv-x="347" 
d="M94 575q11 61 55 89.5t104 28.5q24 0 47 -7t40.5 -20.5t28.5 -34.5t11 -49q0 -12 -3 -27l-30 -164q-5 -29 -20 -51t-36.5 -36.5t-48.5 -22t-55 -7.5q-42 0 -75.5 11t-54.5 34l52 67q20 -17 40.5 -23.5t41.5 -6.5q25 0 42 13.5t22 37.5l7 32q-26 -13 -46.5 -18t-36.5 -5
q-48 0 -71 25.5t-23 64.5v13.5t2 13.5zM181 535q-1 -3 -1 -9q0 -14 9 -20.5t20 -6.5q14 0 30 5.5t37 13.5l9 47q1 4 1 11q0 19 -12.5 26.5t-28.5 7.5q-20 0 -36.5 -10.5t-21.5 -34.5z" />
    <glyph glyph-name="parenleft.numerator" unicode="&#xe2da;" horiz-adv-x="229" 
d="M164 196q-36 45 -60.5 100t-24.5 116q0 45 15 87.5t40.5 81.5t59 74.5t69.5 66.5l52 -34q-36 -35 -63 -71.5t-44 -72.5t-25.5 -70t-8.5 -64q0 -45 13.5 -90t38.5 -85z" />
    <glyph glyph-name="parenright.numerator" unicode="&#xe2db;" horiz-adv-x="227" 
d="M26 235q67 66 103.5 139t36.5 141q0 43 -12.5 88t-39.5 85l63 34q36 -45 60.5 -98.5t24.5 -114.5q0 -44 -15.5 -86.5t-41.5 -82.5t-60.5 -76t-71.5 -67l-47 38v0z" />
    <glyph glyph-name="comma.numerator" unicode="&#xe2dc;" horiz-adv-x="191" 
d="M46 220q19 11 32 26t18 26q-13 3 -22.5 14t-9.5 28q0 27 20 44t43 17q26 0 40 -14.5t14 -41.5q0 -19 -8 -38.5t-23 -38t-35.5 -34.5t-45.5 -28z" />
    <glyph glyph-name="period.numerator" unicode="&#xe2dd;" horiz-adv-x="187" 
d="M109 273q-22 0 -34.5 12.5t-12.5 31.5q0 24 18.5 42t44.5 18q23 0 36 -12.5t13 -33.5q0 -23 -19 -40.5t-46 -17.5z" />
    <glyph glyph-name="ring" unicode="&#x2da;" horiz-adv-x="513" 
d="M329 600q19 0 36 15t17 35q0 14 -10.5 24t-26.5 10q-22 0 -37.5 -15t-15.5 -35q0 -14 10 -24t27 -10zM319 531q-42 0 -71.5 26t-29.5 65q0 26 9.5 50t27.5 42t42.5 29t54.5 11q44 0 74 -26.5t30 -66.5q0 -27 -10 -50.5t-28 -41.5t-43.5 -28t-55.5 -10z" />
    <glyph glyph-name="fraction" unicode="&#x2044;" horiz-adv-x="170" 
d="M-124 -17h-90l567 730h91z" />
    <glyph glyph-name="fraction" unicode="&#x2215;" horiz-adv-x="170" 
d="M-124 -17h-90l567 730h91z" />
    <glyph glyph-name="florin" unicode="&#x192;" horiz-adv-x="534" 
d="M158 425h96l13 64q8 36 22.5 73t39.5 68t61.5 50.5t87.5 19.5q25 -1 51 -6t45 -13l-35 -98q-17 7 -33.5 9.5t-33.5 2.5q-19 0 -33.5 -9.5t-24.5 -24.5t-17 -34.5t-11 -38.5l-14 -63h98l-7 -102h-112l-45 -205q-10 -46 -25.5 -86t-38.5 -69t-55.5 -46t-76.5 -17
q-23 0 -55.5 7.5t-56.5 18.5l39 94q23 -10 38.5 -11.5t27.5 -1.5q32 0 51.5 30.5t32.5 88.5l44 197h-80z" />
    <glyph glyph-name="Alphatonos" unicode="&#x386;" horiz-adv-x="638" 
d="M427 142h-239l-72 -142h-149l374 689h140l106 -689h-144zM246 257h166l-11 105l-18 161h-4l-74 -149zM9 538l118 195l109 -37l-159 -185z" />
    <glyph glyph-name="Epsilontonos" unicode="&#x388;" horiz-adv-x="579" 
d="M159 689h464l-23 -123h-328l-31 -158h288l-23 -123h-289l-32 -163h352l-24 -122h-488zM-104 538l118 195l109 -37l-159 -185z" />
    <glyph glyph-name="Etatonos" unicode="&#x389;" horiz-adv-x="631" 
d="M409 0l56 288h-254l-56 -288h-137l134 689h137l-54 -277h254l54 277h139l-134 -689h-139zM-104 538l118 195l109 -37l-159 -185z" />
    <glyph glyph-name="Iotatonos" unicode="&#x38a;" horiz-adv-x="295" 
d="M311 689l-134 -689h-137l134 689h137zM-96 538l118 195l109 -37l-159 -185z" />
    <glyph glyph-name="Omicrontonos" unicode="&#x38c;" horiz-adv-x="635" 
d="M589 214q-21 -110 -92.5 -165t-191.5 -55q-45 0 -88.5 13.5t-77 40.5t-54.5 67.5t-21 94.5q0 27 6 57l40 208q10 55 35 96.5t61 69t82 41.5t99 14q47 0 92 -14t79.5 -40.5t55.5 -66t21 -90.5q0 -11 -1.5 -23t-3.5 -24zM494 436q3 15 3 28q0 27 -10 46.5t-26 33t-36 20
t-41 6.5q-53 0 -91.5 -28.5t-51.5 -96.5l-37 -192q-3 -18 -3 -33q0 -27 9.5 -46.5t25.5 -31.5t36 -17.5t40 -5.5q58 0 95 31t50 98zM-73 538l118 195l109 -37l-159 -185z" />
    <glyph glyph-name="Upsilontonos" unicode="&#x38e;" horiz-adv-x="557" 
d="M310 396l87 137l99 156h150l-288 -419l-52 -270h-137l52 270l-128 419h142l41 -167l29 -126h5zM-146 538l118 195l109 -37l-159 -185z" />
    <glyph glyph-name="Omegatonos" unicode="&#x38f;" horiz-adv-x="647" 
d="M331 0l29 144q36 10 66 39.5t40 81.5l34 174q3 15 3 28q0 27 -10 46.5t-26 32.5t-36 19t-40 6q-24 0 -47.5 -7t-43 -22t-34 -38.5t-20.5 -57.5l-34 -177q-3 -17 -3 -30q0 -39 20 -62.5t46 -32.5l-30 -144h-234l23 117h78q-22 17 -31 47t-9 62q0 22 3 40l38 202
q21 111 96 170t190 59q47 0 90.5 -14t77.5 -41t54 -65.5t20 -87.5q0 -23 -4 -42l-35 -192q-8 -44 -27 -81.5t-58 -56.5h75l-23 -117h-238zM-64 538l118 195l109 -37l-159 -185z" />
    <glyph glyph-name="iotadieresistonos" unicode="&#x390;" horiz-adv-x="287" 
d="M253 496l-61 -312q-2 -11 -3.5 -19.5t-0.5 -15.5q0 -23 12 -31.5t38 -10.5l-24 -109h-25q-63 0 -99 27t-36 85q0 21 4 41l66 345h129zM295 625q5 29 28.5 48.5t51.5 19.5q26 0 41 -15.5t15 -39.5q0 -16 -7 -30.5t-18 -26t-25.5 -18t-30.5 -6.5q-25 0 -40.5 16.5
t-15.5 39.5q0 8 1 12zM0 625q5 29 28.5 48.5t52.5 19.5q26 0 41.5 -16t15.5 -39q0 -16 -7 -30.5t-18.5 -26t-26.5 -18t-30 -6.5q-26 0 -41.5 16.5t-15.5 39.5q0 8 1 12zM129 558l96 202l115 -23l-139 -198z" />
    <glyph glyph-name="alphatonos" unicode="&#x3ac;" horiz-adv-x="525" 
d="M64 320q36 181 197 181q26 0 62 -10.5t74 -35.5l18 39h117l-96 -494h-118l-2 41q-53 -27 -89.5 -36t-62.5 -9q-69 0 -101 33.5t-32 92.5q0 13 1 26t4 27zM167 192q-3 -14 -3 -25q0 -28 14.5 -39t37.5 -11q24 0 56.5 13t67.5 32l35 185q-19 14 -50 25.5t-57 11.5t-48 -18
t-30 -58zM268 568l118 195l109 -37l-159 -185z" />
    <glyph glyph-name="epsilontonos" unicode="&#x3ad;" horiz-adv-x="446" 
d="M412 60q-51 -39 -102.5 -51.5t-102.5 -12.5q-84 0 -131.5 33.5t-47.5 93.5q0 7 2.5 24t12 37t28.5 39.5t52 32.5q0 1 0.5 1t0.5 2q-29 15 -41 39t-12 48q0 28 13.5 56t40.5 49.5t66 35t90 13.5q23 0 47 -3t47.5 -10t46 -19t41.5 -30l-72 -90q-22 23 -52.5 31.5t-55.5 8.5
q-12 0 -27 -3t-28 -9.5t-22 -17t-9 -26.5q0 -15 15.5 -24.5t40.5 -9.5h71q-4 -24 -8.5 -48t-9.5 -49h-73q-30 0 -51.5 -13t-21.5 -39q0 -16 17.5 -27.5t52.5 -11.5q26 0 60 7.5t66 34.5zM233 568l118 195l109 -37l-159 -185z" />
    <glyph glyph-name="etatonos" unicode="&#x3ae;" horiz-adv-x="529" 
d="M291 -141l85 446q3 13 3 24q0 29 -15 40t-38 11q-24 0 -53 -10t-72 -36l-65 -334h-127l97 494h116l2 -42q31 17 55.5 26.5t43.5 14.5t34 6.5t27 1.5q68 0 99 -33t31 -91q0 -24 -6 -54l-88 -464h-129zM251 568l118 195l109 -37l-159 -185z" />
    <glyph glyph-name="iotatonos" unicode="&#x3af;" horiz-adv-x="287" 
d="M253 496l-61 -312q-2 -11 -3.5 -19.5t-0.5 -15.5q0 -23 12 -31.5t38 -10.5l-24 -109h-25q-63 0 -99 27t-36 85q0 21 4 41l66 345h129zM142 568l118 195l109 -37l-159 -185z" />
    <glyph glyph-name="upsilondieresistonos" unicode="&#x3b0;" horiz-adv-x="524" 
d="M470 174q-18 -93 -78.5 -136t-156.5 -43q-33 0 -68.5 8.5t-64.5 27.5t-47.5 49.5t-18.5 75.5q0 22 4 42l58 298h127l-58 -297q-1 -5 -1.5 -9.5t-0.5 -9.5q0 -18 7 -31t18.5 -21.5t26 -12t28.5 -3.5q16 0 32.5 4.5t30.5 15t24 27t15 40.5l58 297h127zM412 625
q5 29 28.5 48.5t51.5 19.5q26 0 41 -15.5t15 -39.5q0 -16 -7 -30.5t-18 -26t-25.5 -18t-30.5 -6.5q-25 0 -40.5 16.5t-15.5 39.5q0 8 1 12zM117 625q5 29 28.5 48.5t52.5 19.5q26 0 41.5 -16t15.5 -39q0 -16 -7 -30.5t-18.5 -26t-26.5 -18t-30 -6.5q-26 0 -41.5 16.5
t-15.5 39.5q0 8 1 12zM246 558l96 202l115 -23l-139 -198z" />
    <glyph glyph-name="iotadieresis" unicode="&#x3ca;" horiz-adv-x="287" 
d="M253 496l-61 -312q-2 -11 -3.5 -19.5t-0.5 -15.5q0 -23 12 -31.5t38 -10.5l-24 -109h-25q-63 0 -99 27t-36 85q0 21 4 41l66 345h129zM330 693q25 0 40.5 -15.5t15.5 -40.5q0 -16 -7 -30.5t-19 -25.5t-27 -17.5t-30 -6.5q-25 0 -40.5 15.5t-15.5 38.5q0 16 7 31t18 26.5
t26 18t32 6.5zM132 693q25 0 40.5 -15.5t15.5 -40.5q0 -16 -7 -30.5t-19 -25.5t-27 -17.5t-30 -6.5q-25 0 -40.5 15.5t-15.5 38.5q0 16 7 31t18.5 26.5t26.5 18t31 6.5z" />
    <glyph glyph-name="upsilondieresis" unicode="&#x3cb;" horiz-adv-x="524" 
d="M470 174q-18 -93 -78.5 -136t-156.5 -43q-33 0 -68.5 8.5t-64.5 27.5t-47.5 49.5t-18.5 75.5q0 22 4 42l58 298h127l-58 -297q-1 -5 -1.5 -9.5t-0.5 -9.5q0 -18 7 -31t18.5 -21.5t26 -12t28.5 -3.5q16 0 32.5 4.5t30.5 15t24 27t15 40.5l58 297h127zM447 693
q25 0 40.5 -15.5t15.5 -40.5q0 -16 -7 -30.5t-19 -25.5t-27 -17.5t-30 -6.5q-25 0 -40.5 15.5t-15.5 38.5q0 16 7 31t18 26.5t26 18t32 6.5zM249 693q25 0 40.5 -15.5t15.5 -40.5q0 -16 -7 -30.5t-19 -25.5t-27 -17.5t-30 -6.5q-25 0 -40.5 15.5t-15.5 38.5q0 16 7 31
t18.5 26.5t26.5 18t31 6.5z" />
    <glyph glyph-name="omicrontonos" unicode="&#x3cc;" horiz-adv-x="521" 
d="M276 568l119 195l108 -37l-158 -185zM473 174q-18 -92 -77 -135.5t-159 -43.5q-38 0 -73 11t-61.5 33.5t-42.5 55.5t-16 77q0 11 1 22t3 23l19 102q17 92 76 137t153 45q45 0 82.5 -13t63.5 -36.5t40.5 -56t14.5 -72.5q0 -23 -4 -43zM367 281q3 13 3 25q0 39 -24.5 58.5
t-56.5 19.5q-35 0 -60.5 -19.5t-35.5 -67.5l-18 -89q-3 -14 -3 -24q0 -20 7.5 -33.5t19 -22t25.5 -12.5t28 -4q38 0 63 19t35 68z" />
    <glyph glyph-name="upsilontonos" unicode="&#x3cd;" horiz-adv-x="524" 
d="M470 174q-18 -93 -78.5 -136t-156.5 -43q-33 0 -68.5 8.5t-64.5 27.5t-47.5 49.5t-18.5 75.5q0 22 4 42l58 298h127l-58 -297q-1 -5 -1.5 -9.5t-0.5 -9.5q0 -18 7 -31t18.5 -21.5t26 -12t28.5 -3.5q16 0 32.5 4.5t30.5 15t24 27t15 40.5l58 297h127zM261 568l118 195
l109 -37l-159 -185z" />
    <glyph glyph-name="omegatonos" unicode="&#x3ce;" horiz-adv-x="788" 
d="M738 175q-20 -94 -80.5 -137t-150.5 -43q-20 0 -41.5 4t-41 12.5t-35 22t-22.5 33.5q-32 -36 -74.5 -54t-82.5 -18q-34 0 -64.5 9.5t-54 29t-37.5 49t-14 70.5q0 11 1 22t3 23l22 121q15 82 66 129t140 51l3 -114q-32 -5 -56 -26t-32 -63l-17 -96q-1 -7 -1.5 -13
t-0.5 -11q0 -34 18.5 -49t45.5 -15q32 0 60 20t37 68l29 155h126l-27 -155q-1 -6 -1.5 -12t-0.5 -11q0 -32 17.5 -48.5t48.5 -16.5q36 0 61.5 21.5t33.5 66.5l18 96q3 13 3 25q0 29 -15.5 44.5t-38.5 18.5l42 115q29 -4 54 -15.5t44 -30.5t29.5 -45t10.5 -60q0 -16 -3 -35z
M383 568l118 195l109 -37l-159 -185z" />
    <glyph glyph-name="exclamdown" unicode="&#xa1;" horiz-adv-x="266" 
d="M214 289l-88 -489h-126l103 489h111zM200 503q29 0 46.5 -18t17.5 -46q0 -18 -7 -35t-20 -30.5t-30 -21.5t-37 -8q-29 0 -47.5 17.5t-18.5 44.5q0 18 7.5 35.5t20.5 31t30.5 22t37.5 8.5z" />
    <glyph glyph-name="questiondown" unicode="&#xbf;" horiz-adv-x="489" 
d="M215 -196q-40 0 -73.5 11.5t-58 32.5t-38 49.5t-13.5 62.5q0 30 11.5 59.5t33.5 58.5q20 27 43 50t44 46.5t37.5 49t22.5 58.5l6 28h130l-6 -28q-6 -30 -16.5 -55t-26 -49t-36 -48t-45.5 -52q-17 -17 -32.5 -43t-15.5 -52q0 -24 17 -40t55 -16q32 0 66.5 12.5t66.5 37.5
q3 -6 9.5 -21t13.5 -32.5t13.5 -32.5t9.5 -20q-48 -35 -104 -51t-114 -16zM378 435q0 -30 -21 -52.5t-53 -22.5q-30 0 -49 19.5t-19 47.5q0 31 21.5 53t53.5 22q30 0 48.5 -19t18.5 -48z" />
    <glyph glyph-name="acute" unicode="&#xb4;" horiz-adv-x="508" 
d="M272 568l118 195l109 -37l-160 -185z" />
    <glyph glyph-name="macron" unicode="&#xaf;" horiz-adv-x="509" 
d="M177 585l21 104h312l-21 -104h-312z" />
    <glyph glyph-name="primemod" unicode="&#x2b9;" horiz-adv-x="278" 
d="M376 689l-198 -297l-87 30l161 311z" />
    <glyph glyph-name="caron" unicode="&#x2c7;" horiz-adv-x="511" 
d="M511 736l42 -46l-176 -153h-87l-118 154l57 45q10 -8 26 -22.5t32.5 -30t32 -30t26.5 -23.5z" />
    <glyph glyph-name="breve" unicode="&#x2d8;" horiz-adv-x="523" 
d="M339 564q-41 0 -67.5 14.5t-41.5 36.5t-19.5 49t-2.5 53h91q-2 -10 -0.5 -21.5t7.5 -22t16 -17.5t26 -7q15 0 28 6.5t22.5 17t15.5 22t8 22.5h92q-5 -23 -17.5 -49.5t-33.5 -49.5t-51.5 -38.5t-72.5 -15.5z" />
    <glyph glyph-name="dotaccent" unicode="&#x2d9;" horiz-adv-x="516" 
d="M333 563q-30 0 -47.5 20.5t-12.5 50.5q5 31 30 52.5t56 21.5q29 0 46.5 -19t12.5 -50q-2 -15 -9.5 -29t-19 -24.5t-26 -16.5t-30.5 -6z" />
    <glyph glyph-name="ogonek" unicode="&#x2db;" horiz-adv-x="442" 
d="M168 -105q3 23 17 49.5t51 64.5l73 -5l1 -4q-53 -59 -57 -90q-3 -28 31 -28q11 0 26.5 3t37.5 13l15 -66q-27 -15 -55.5 -21t-54.5 -6q-44 0 -67 26t-18 64z" />
    <glyph glyph-name="hungarumlaut" unicode="&#x2dd;" horiz-adv-x="551" 
d="M335 568l119 195l108 -37l-159 -185zM165 568l118 195l109 -37l-159 -185z" />
    <glyph glyph-name="Circumflex" unicode="&#xf6c0;" horiz-adv-x="608" 
d="M428 812l-167 -81l-32 52l173 123h84l124 -123l-54 -52z" />
    <glyph glyph-name="commaaccent" unicode="&#xf6c3;" horiz-adv-x="614" 
d="M156 -263q31 15 49.5 32t26.5 40q-18 4 -30.5 22t-12.5 40q0 36 24.5 62t64.5 26q34 0 54.5 -22.5t20.5 -59.5q0 -58 -44.5 -110t-120.5 -84z" />
    <glyph glyph-name="Acute" unicode="&#xf6c9;" horiz-adv-x="612" 
d="M361 784l190 137l72 -86l-221 -108z" />
    <glyph glyph-name="Caron" unicode="&#xf6ca;" horiz-adv-x="630" 
d="M589 908l34 -52l-175 -124h-84l-122 123l52 51l129 -80z" />
    <glyph glyph-name="Dieresis" unicode="&#xf6cb;" horiz-adv-x="630" 
d="M548 872q26 0 41.5 -16.5t14.5 -40.5q-1 -16 -8 -30t-18.5 -25t-26 -17.5t-29.5 -6.5q-26 0 -42 16.5t-14 42.5q0 15 7.5 29t18.5 24.5t26 17t30 6.5zM344 872q26 0 41.5 -16.5t13.5 -40.5q-2 -32 -26.5 -55.5t-55.5 -23.5q-25 0 -41 16.5t-15 41.5q1 16 8 30t18.5 24.5
t26.5 17t30 6.5z" />
    <glyph glyph-name="DieresisAcute" unicode="&#xf6cc;" horiz-adv-x="630" 
d="M319 754l121 195l105 -42l-160 -183zM607 884q26 0 42 -16t14 -41q-1 -16 -8 -30t-18.5 -25t-26 -17.5t-29.5 -6.5q-26 0 -42 16.5t-14 41.5q1 16 8 30t18.5 24.5t26 17t29.5 6.5zM260 884q26 0 42 -16.5t14 -40.5q-2 -32 -27 -55.5t-56 -23.5q-25 0 -41 16.5t-14 40.5
q2 32 26.5 55.5t55.5 23.5z" />
    <glyph glyph-name="DieresisGrave" unicode="&#xf6cd;" horiz-adv-x="608" 
d="M429 722l-111 183l116 42l69 -195zM603 884q26 0 41.5 -16t14.5 -41q-1 -16 -8 -30t-18.5 -25t-26.5 -17.5t-30 -6.5q-26 0 -41.5 16.5t-13.5 41.5q0 16 7.5 30t18.5 24.5t26 17t30 6.5zM255 884q26 0 42 -16.5t14 -40.5q-1 -16 -8 -30.5t-18.5 -25t-26 -17t-29.5 -6.5
q-26 0 -42 16.5t-14 40.5q2 32 26.5 55.5t55.5 23.5z" />
    <glyph glyph-name="Grave" unicode="&#xf6ce;" horiz-adv-x="576" 
d="M408 730l-203 105l81 81l171 -134z" />
    <glyph glyph-name="Hungarumlaut" unicode="&#xf6cf;" horiz-adv-x="593" 
d="M207 783l175 141l78 -83l-206 -113zM407 783l185 141l73 -83l-212 -113z" />
    <glyph glyph-name="Macron" unicode="&#xf6d0;" horiz-adv-x="626" 
d="M255 761l20 105h312l-21 -105h-311z" />
    <glyph glyph-name="cyrBreve" unicode="&#xf6d1;" horiz-adv-x="626" 
d="M416 734q-42 0 -68 15.5t-40.5 38t-19 49t-2.5 48.5h91q-2 -11 -0.5 -22.5t7.5 -21.5t15.5 -16t24.5 -6q16 0 29 6.5t22.5 16.5t15 21.5t7.5 21.5h92q-6 -23 -18 -49.5t-32.5 -49t-51 -37.5t-72.5 -15z" />
    <glyph glyph-name="cyrbreve" unicode="&#xf6d4;" horiz-adv-x="509" 
d="M339 568q-42 0 -68 15.5t-40.5 38t-19 49t-2.5 48.5h91q-2 -11 -0.5 -23t7.5 -21.5t16 -16t25 -6.5t27.5 6.5t22 16.5t16 22t8.5 22h91q-5 -25 -17 -51.5t-33 -48.5t-51.5 -36.5t-72.5 -14.5z" />
    <glyph glyph-name="Scaron" unicode="&#x160;" horiz-adv-x="583" 
d="M365 701q63 0 123.5 -12t111.5 -50l-67 -112q-39 29 -81.5 40t-84.5 11q-21 0 -43 -5t-40 -15.5t-30 -27.5t-12 -42q0 -18 9.5 -31t27 -22.5t41 -17t51.5 -14.5q100 -25 144.5 -68t44.5 -116q0 -51 -23 -92.5t-63 -71t-92.5 -45t-111.5 -15.5q-75 0 -141 21.5t-117 74.5
q2 2 15 16.5t28 32t27.5 32t15.5 17.5q36 -34 81.5 -51t94.5 -17q37 0 63 8.5t43 21.5t25 29t8 31q0 18 -10.5 30.5t-29 22.5t-43.5 18t-54 16q-35 10 -67 23.5t-56 34t-38 49.5t-14 69q0 54 21 96t57 71t84 44.5t102 15.5zM585 908l34 -52l-175 -124h-84l-122 123l52 51
l129 -80z" />
    <glyph glyph-name="Zcaron" unicode="&#x17d;" horiz-adv-x="540" 
d="M17 118l398 449h-298l23 122h463l-21 -114l-404 -453h315l-23 -122h-476zM571 908l34 -52l-175 -124h-84l-122 123l52 51l129 -80z" />
    <glyph glyph-name="scaron" unicode="&#x161;" horiz-adv-x="467" 
d="M277 500q51 0 100 -12t89 -47q-17 -23 -32.5 -47t-32.5 -48q-33 26 -66 34.5t-65 8.5q-37 0 -54.5 -16t-17.5 -31q0 -17 17.5 -24.5t44 -13t57 -11.5t57 -19t44 -37t17.5 -65q0 -45 -19.5 -78.5t-51.5 -55t-73.5 -32.5t-85.5 -11q-28 0 -54 2.5t-51.5 10t-50.5 22
t-49 37.5q18 23 36.5 45t37.5 45q32 -31 66.5 -42.5t73.5 -11.5q43 0 65 18t22 38q0 16 -17 24.5t-42.5 15t-55.5 14t-55.5 21.5t-42.5 37t-17 61q0 45 19 77t48.5 52t66 29.5t72.5 9.5zM475 736l42 -46l-176 -153h-87l-118 154l57 45q10 -8 26 -22.5t32.5 -30t32 -30
t26.5 -23.5z" />
    <glyph glyph-name="zcaron" unicode="&#x17e;" horiz-adv-x="474" 
d="M-9 0l19 103l302 285h-232l21 107h387l-19 -100l-302 -283h246l-21 -112h-401zM480 736l42 -46l-176 -153h-87l-118 154l57 45q10 -8 26 -22.5t32.5 -30t32 -30t26.5 -23.5z" />
    <glyph glyph-name="Ydieresis" unicode="&#x178;" horiz-adv-x="557" 
d="M310 396l87 137l99 156h150l-288 -419l-52 -270h-137l52 270l-128 419h142l41 -167l29 -126h5zM500 872q26 0 41.5 -16.5t14.5 -40.5q-1 -16 -8 -30t-18.5 -25t-26 -17.5t-29.5 -6.5q-26 0 -42 16.5t-14 42.5q0 15 7.5 29t18.5 24.5t26 17t30 6.5zM296 872
q26 0 41.5 -16.5t13.5 -40.5q-2 -32 -26.5 -55.5t-55.5 -23.5q-25 0 -41 16.5t-15 41.5q1 16 8 30t18.5 24.5t26.5 17t30 6.5z" />
    <glyph glyph-name="cent" unicode="&#xa2;" horiz-adv-x="451" 
d="M425 61q-46 -36 -91.5 -49.5t-93.5 -15.5l-23 -127h-56l25 129q-63 9 -103 48.5t-40 106.5q0 11 1 21t3 21l22 127q17 88 72.5 132.5t141.5 46.5l24 122h55l-24 -126q37 -5 71.5 -21.5t58.5 -49.5l-75 -91q-19 22 -39.5 32.5t-38.5 14.5l-51 -268q20 2 43 12t46 31z
M171 199q-1 -5 -1.5 -10.5t-0.5 -10.5q0 -24 11.5 -38.5t28.5 -20.5l51 262q-29 -6 -45 -26t-24 -57z" />
    <glyph glyph-name="Agrave" unicode="&#xc0;" horiz-adv-x="638" 
d="M427 142h-239l-72 -142h-149l374 689h140l106 -689h-144zM246 257h166l-11 105l-18 161h-4l-74 -149zM421 730l-203 105l81 81l171 -134z" />
    <glyph glyph-name="Aacute" unicode="&#xc1;" horiz-adv-x="638" 
d="M427 142h-239l-72 -142h-149l374 689h140l106 -689h-144zM246 257h166l-11 105l-18 161h-4l-74 -149zM366 784l190 137l72 -86l-221 -108z" />
    <glyph glyph-name="Acircumflex" unicode="&#xc2;" horiz-adv-x="638" 
d="M427 142h-239l-72 -142h-149l374 689h140l106 -689h-144zM246 257h166l-11 105l-18 161h-4l-74 -149zM431 812l-167 -81l-32 52l173 123h84l124 -123l-54 -52z" />
    <glyph glyph-name="Atilde" unicode="&#xc3;" horiz-adv-x="638" 
d="M427 142h-239l-72 -142h-149l374 689h140l106 -689h-144zM370 879q19 0 35 -7t30 -15.5t26 -15t23 -6.5q16 0 32 9.5t39 35.5l12 -8t19.5 -13.5t20 -13.5t12.5 -8q-31 -57 -63.5 -79.5t-66.5 -22.5q-19 0 -35 6t-30.5 13.5t-27.5 13.5t-27 6q-17 0 -32.5 -8t-41.5 -35
l-63 45q32 51 65 77t73 26zM246 257h166l-11 105l-18 161h-4l-74 -149z" />
    <glyph glyph-name="Adieresis" unicode="&#xc4;" horiz-adv-x="638" 
d="M427 142h-239l-72 -142h-149l374 689h140l106 -689h-144zM246 257h166l-11 105l-18 161h-4l-74 -149zM550 872q26 0 41.5 -16.5t14.5 -40.5q-1 -16 -8 -30t-18.5 -25t-26 -17.5t-29.5 -6.5q-26 0 -42 16.5t-14 42.5q0 15 7.5 29t18.5 24.5t26 17t30 6.5zM346 872
q26 0 41.5 -16.5t13.5 -40.5q-2 -32 -26.5 -55.5t-55.5 -23.5q-25 0 -41 16.5t-15 41.5q1 16 8 30t18.5 24.5t26.5 17t30 6.5z" />
    <glyph glyph-name="Aring" unicode="&#xc5;" horiz-adv-x="638" 
d="M427 142h-239l-72 -142h-149l374 689h140l106 -689h-144zM246 257h166l-11 105l-18 161h-4l-74 -149zM427 781q19 0 36 15t17 35q0 14 -10.5 24t-26.5 10q-22 0 -37.5 -15t-15.5 -35q0 -14 10 -24t27 -10zM417 712q-42 0 -71.5 26t-29.5 65q0 26 9.5 50t27.5 42t42.5 29
t54.5 11q44 0 74 -26.5t30 -66.5q0 -27 -10 -50.5t-28 -41.5t-43.5 -28t-55.5 -10z" />
    <glyph glyph-name="AE" unicode="&#xc6;" horiz-adv-x="1029" 
d="M513 0l23 162q-60 0 -119 0.5t-119 0.5q-30 -42 -60 -82t-61 -81h-162q128 174 258.5 344.5t258.5 344.5h543l-17 -123h-329l-22 -159h288l-17 -122h-289q-5 -41 -11 -82l-12 -82h337l-16 -121h-474zM375 277q45 0 88.5 -0.5t87.5 -0.5l42 288h-2z" />
    <glyph glyph-name="Ccedilla" unicode="&#xc7;" horiz-adv-x="563" 
d="M210 -74l36 72q-36 6 -69 21.5t-58.5 40t-41 59t-15.5 79.5q0 13 1 26t4 27l43 222q22 111 92.5 167t186.5 56q60 0 119 -19t94 -54l-79 -104q-26 27 -64.5 39.5t-73.5 12.5q-58 0 -95.5 -31.5t-50.5 -100.5l-36 -193q-3 -15 -3 -28q0 -26 10 -44.5t26 -30t36.5 -17
t42.5 -5.5q17 0 37 3t40.5 9.5t40 16t35.5 21.5l57 -112q-49 -35 -107 -49t-112 -16l-15 -31q24 -1 39.5 -8t25.5 -18t14 -24t4 -26q0 -20 -8.5 -38.5t-25.5 -33t-41.5 -23t-55.5 -8.5q-25 0 -52.5 7t-50.5 18l29 58q21 -11 39 -15t34 -4q17 0 33.5 7t16.5 26q0 8 -4.5 12.5
t-11 6t-13.5 0.5t-13 -3z" />
    <glyph glyph-name="Egrave" unicode="&#xc8;" horiz-adv-x="579" 
d="M159 689h464l-23 -123h-328l-31 -158h288l-23 -123h-289l-32 -163h352l-24 -122h-488zM433 730l-203 105l81 81l171 -134z" />
    <glyph glyph-name="Eacute" unicode="&#xc9;" horiz-adv-x="579" 
d="M159 689h464l-23 -123h-328l-31 -158h288l-23 -123h-289l-32 -163h352l-24 -122h-488zM317 784l190 137l72 -86l-221 -108z" />
    <glyph glyph-name="Ecircumflex" unicode="&#xca;" horiz-adv-x="579" 
d="M159 689h464l-23 -123h-328l-31 -158h288l-23 -123h-289l-32 -163h352l-24 -122h-488zM413 812l-167 -81l-32 52l173 123h84l124 -123l-54 -52z" />
    <glyph glyph-name="Edieresis" unicode="&#xcb;" horiz-adv-x="579" 
d="M159 689h464l-23 -123h-328l-31 -158h288l-23 -123h-289l-32 -163h352l-24 -122h-488zM516 872q26 0 41.5 -16.5t14.5 -40.5q-1 -16 -8 -30t-18.5 -25t-26 -17.5t-29.5 -6.5q-26 0 -42 16.5t-14 42.5q0 15 7.5 29t18.5 24.5t26 17t30 6.5zM312 872q26 0 41.5 -16.5
t13.5 -40.5q-2 -32 -26.5 -55.5t-55.5 -23.5q-25 0 -41 16.5t-15 41.5q1 16 8 30t18.5 24.5t26.5 17t30 6.5z" />
    <glyph glyph-name="Igrave" unicode="&#xcc;" horiz-adv-x="295" 
d="M311 689l-134 -689h-137l134 689h137zM262 730l-203 105l81 81l171 -134z" />
    <glyph glyph-name="Iacute" unicode="&#xcd;" horiz-adv-x="295" 
d="M311 689l-134 -689h-137l134 689h137zM203 784l190 137l72 -86l-221 -108z" />
    <glyph glyph-name="Icircumflex" unicode="&#xce;" horiz-adv-x="295" 
d="M311 689l-134 -689h-137l134 689h137zM272 812l-167 -81l-32 52l173 123h84l124 -123l-54 -52z" />
    <glyph glyph-name="Idieresis" unicode="&#xcf;" horiz-adv-x="295" 
d="M311 689l-134 -689h-137l134 689h137zM375 877q25 0 40.5 -15.5t15.5 -39.5q0 -16 -7 -30.5t-19 -26t-26.5 -18t-29.5 -6.5q-25 0 -40.5 15.5t-15.5 38.5q0 16 7 31t18 26.5t26 18t31 6.5zM171 877q25 0 40 -15t15 -38q0 -17 -7 -32t-18 -26.5t-26 -18t-31 -6.5
q-24 0 -40 15.5t-16 38.5q0 16 7 31t18.5 26.5t26.5 18t31 6.5z" />
    <glyph glyph-name="Eth" unicode="&#xd0;" horiz-adv-x="630" 
d="M33 391h69l58 298h254q43 0 80.5 -12.5t65.5 -36t44.5 -58t16.5 -79.5q0 -20 -5 -48l-41 -234q-22 -112 -91.5 -166.5t-172.5 -54.5h-285l58 297h-70zM479 442q2 9 3 17t1 16q0 25 -8.5 42t-23.5 28t-34 16t-40 5h-104l-34 -175h87l-18 -94h-88l-34 -176h114
q22 0 44.5 6.5t41.5 21t33.5 38.5t21.5 59z" />
    <glyph glyph-name="Ntilde" unicode="&#xd1;" horiz-adv-x="675" 
d="M485 248q22 111 43 220.5t42 220.5h135l-132 -689h-124q-12 25 -28.5 61t-35.5 76.5t-39.5 83.5t-39 83.5t-34.5 75t-27 58.5l-90 -438h-136l132 689h125q11 -23 28 -57.5t36 -75.5t39 -85.5t39 -86t35.5 -77t27.5 -59.5h4zM386 881q19 0 35 -7t30 -15.5t26 -15t23 -6.5
q16 0 32 9.5t39 35.5l12 -8t19.5 -13.5t20 -13.5t12.5 -8q-31 -57 -63.5 -79.5t-66.5 -22.5q-19 0 -35 6t-30.5 13.5t-27.5 13.5t-27 6q-17 0 -32.5 -8t-41.5 -35l-63 45q32 51 65 77t73 26z" />
    <glyph glyph-name="Ograve" unicode="&#xd2;" horiz-adv-x="635" 
d="M589 214q-21 -110 -92.5 -165t-191.5 -55q-45 0 -88.5 13.5t-77 40.5t-54.5 67.5t-21 94.5q0 27 6 57l40 208q10 55 35 96.5t61 69t82 41.5t99 14q47 0 92 -14t79.5 -40.5t55.5 -66t21 -90.5q0 -11 -1.5 -23t-3.5 -24zM494 436q3 15 3 28q0 27 -10 46.5t-26 33t-36 20
t-41 6.5q-53 0 -91.5 -28.5t-51.5 -96.5l-37 -192q-3 -18 -3 -33q0 -27 9.5 -46.5t25.5 -31.5t36 -17.5t40 -5.5q58 0 95 31t50 98zM468 730l-203 105l81 81l171 -134z" />
    <glyph glyph-name="Oacute" unicode="&#xd3;" horiz-adv-x="635" 
d="M589 214q-21 -110 -92.5 -165t-191.5 -55q-45 0 -88.5 13.5t-77 40.5t-54.5 67.5t-21 94.5q0 27 6 57l40 208q10 55 35 96.5t61 69t82 41.5t99 14q47 0 92 -14t79.5 -40.5t55.5 -66t21 -90.5q0 -11 -1.5 -23t-3.5 -24zM494 436q3 15 3 28q0 27 -10 46.5t-26 33t-36 20
t-41 6.5q-53 0 -91.5 -28.5t-51.5 -96.5l-37 -192q-3 -18 -3 -33q0 -27 9.5 -46.5t25.5 -31.5t36 -17.5t40 -5.5q58 0 95 31t50 98zM348 784l190 137l72 -86l-221 -108z" />
    <glyph glyph-name="Ocircumflex" unicode="&#xd4;" horiz-adv-x="635" 
d="M589 214q-21 -110 -92.5 -165t-191.5 -55q-45 0 -88.5 13.5t-77 40.5t-54.5 67.5t-21 94.5q0 27 6 57l40 208q10 55 35 96.5t61 69t82 41.5t99 14q47 0 92 -14t79.5 -40.5t55.5 -66t21 -90.5q0 -11 -1.5 -23t-3.5 -24zM494 436q3 15 3 28q0 27 -10 46.5t-26 33t-36 20
t-41 6.5q-53 0 -91.5 -28.5t-51.5 -96.5l-37 -192q-3 -18 -3 -33q0 -27 9.5 -46.5t25.5 -31.5t36 -17.5t40 -5.5q58 0 95 31t50 98zM442 812l-167 -81l-32 52l173 123h84l124 -123l-54 -52z" />
    <glyph glyph-name="Otilde" unicode="&#xd5;" horiz-adv-x="635" 
d="M589 214q-21 -110 -92.5 -165t-191.5 -55q-45 0 -88.5 13.5t-77 40.5t-54.5 67.5t-21 94.5q0 27 6 57l40 208q10 55 35 96.5t61 69t82 41.5t99 14q47 0 92 -14t79.5 -40.5t55.5 -66t21 -90.5q0 -11 -1.5 -23t-3.5 -24zM494 436q3 15 3 28q0 27 -10 46.5t-26 33t-36 20
t-41 6.5q-53 0 -91.5 -28.5t-51.5 -96.5l-37 -192q-3 -18 -3 -33q0 -27 9.5 -46.5t25.5 -31.5t36 -17.5t40 -5.5q58 0 95 31t50 98zM369 879q19 0 35 -7t30 -15.5t26 -15t23 -6.5q16 0 32 9.5t39 35.5l12 -8t19.5 -13.5t20 -13.5t12.5 -8q-31 -57 -63.5 -79.5t-66.5 -22.5
q-19 0 -35 6t-30.5 13.5t-27.5 13.5t-27 6q-17 0 -32.5 -8t-41.5 -35l-63 45q32 51 65 77t73 26z" />
    <glyph glyph-name="Odieresis" unicode="&#xd6;" horiz-adv-x="635" 
d="M589 214q-21 -110 -92.5 -165t-191.5 -55q-45 0 -88.5 13.5t-77 40.5t-54.5 67.5t-21 94.5q0 27 6 57l40 208q10 55 35 96.5t61 69t82 41.5t99 14q47 0 92 -14t79.5 -40.5t55.5 -66t21 -90.5q0 -11 -1.5 -23t-3.5 -24zM494 436q3 15 3 28q0 27 -10 46.5t-26 33t-36 20
t-41 6.5q-53 0 -91.5 -28.5t-51.5 -96.5l-37 -192q-3 -18 -3 -33q0 -27 9.5 -46.5t25.5 -31.5t36 -17.5t40 -5.5q58 0 95 31t50 98zM551 872q26 0 41.5 -16.5t14.5 -40.5q-1 -16 -8 -30t-18.5 -25t-26 -17.5t-29.5 -6.5q-26 0 -42 16.5t-14 42.5q0 15 7.5 29t18.5 24.5
t26 17t30 6.5zM347 872q26 0 41.5 -16.5t13.5 -40.5q-2 -32 -26.5 -55.5t-55.5 -23.5q-25 0 -41 16.5t-15 41.5q1 16 8 30t18.5 24.5t26.5 17t30 6.5z" />
    <glyph glyph-name="multiply" unicode="&#xd7;" horiz-adv-x="562" 
d="M289 208l-193 -160l-59 74l192 160l-131 166l83 67l132 -165l189 158l60 -76l-190 -157l134 -169l-83 -67z" />
    <glyph glyph-name="Oslash" unicode="&#xd8;" horiz-adv-x="635" 
d="M589 214q-21 -110 -92.5 -165t-191.5 -55q-48 0 -93 15t-80 45l-54 -61l-37 32l57 66q-34 49 -34 119q0 27 6 57l40 208q10 55 35 96.5t61 69t82 41.5t99 14q52 0 100 -16.5t83 -48.5q23 26 38.5 43.5t20.5 24.5q11 -8 20.5 -17t19.5 -17l-65 -74q14 -22 22.5 -48.5
t8.5 -57.5q0 -11 -1.5 -23t-3.5 -24zM478 526q-16 22 -42 33t-52 11q-53 0 -91.5 -28.5t-51.5 -96.5l-37 -192q-3 -18 -3 -33v-11zM494 436q3 15 3 28v5l-276 -313q17 -20 41 -28.5t50 -8.5q58 0 95 31t50 98z" />
    <glyph glyph-name="Ugrave" unicode="&#xd9;" horiz-adv-x="634" 
d="M589 219q-11 -56 -36.5 -98t-63 -70t-86 -42t-104.5 -14q-47 0 -90.5 12.5t-76.5 37.5t-52.5 63.5t-19.5 89.5q0 13 1 27t4 28l86 436h137l-88 -438q-3 -18 -3 -32q0 -27 9.5 -46.5t25 -32t34.5 -18t39 -5.5q24 0 48 7t45 23t36.5 41.5t22.5 62.5l85 438h139zM450 730
l-203 105l81 81l171 -134z" />
    <glyph glyph-name="Uacute" unicode="&#xda;" horiz-adv-x="634" 
d="M589 219q-11 -56 -36.5 -98t-63 -70t-86 -42t-104.5 -14q-47 0 -90.5 12.5t-76.5 37.5t-52.5 63.5t-19.5 89.5q0 13 1 27t4 28l86 436h137l-88 -438q-3 -18 -3 -32q0 -27 9.5 -46.5t25 -32t34.5 -18t39 -5.5q24 0 48 7t45 23t36.5 41.5t22.5 62.5l85 438h139zM348 784
l190 137l72 -86l-221 -108z" />
    <glyph glyph-name="Ucircumflex" unicode="&#xdb;" horiz-adv-x="634" 
d="M589 219q-11 -56 -36.5 -98t-63 -70t-86 -42t-104.5 -14q-47 0 -90.5 12.5t-76.5 37.5t-52.5 63.5t-19.5 89.5q0 13 1 27t4 28l86 436h137l-88 -438q-3 -18 -3 -32q0 -27 9.5 -46.5t25 -32t34.5 -18t39 -5.5q24 0 48 7t45 23t36.5 41.5t22.5 62.5l85 438h139zM435 812
l-167 -81l-32 52l173 123h84l124 -123l-54 -52z" />
    <glyph glyph-name="Udieresis" unicode="&#xdc;" horiz-adv-x="634" 
d="M589 219q-11 -56 -36.5 -98t-63 -70t-86 -42t-104.5 -14q-47 0 -90.5 12.5t-76.5 37.5t-52.5 63.5t-19.5 89.5q0 13 1 27t4 28l86 436h137l-88 -438q-3 -18 -3 -32q0 -27 9.5 -46.5t25 -32t34.5 -18t39 -5.5q24 0 48 7t45 23t36.5 41.5t22.5 62.5l85 438h139zM556 872
q26 0 41.5 -16.5t14.5 -40.5q-1 -16 -8 -30t-18.5 -25t-26 -17.5t-29.5 -6.5q-26 0 -42 16.5t-14 42.5q0 15 7.5 29t18.5 24.5t26 17t30 6.5zM352 872q26 0 41.5 -16.5t13.5 -40.5q-2 -32 -26.5 -55.5t-55.5 -23.5q-25 0 -41 16.5t-15 41.5q1 16 8 30t18.5 24.5t26.5 17
t30 6.5z" />
    <glyph glyph-name="Yacute" unicode="&#xdd;" horiz-adv-x="557" 
d="M310 396l87 137l99 156h150l-288 -419l-52 -270h-137l52 270l-128 419h142l41 -167l29 -126h5zM307 784l190 137l72 -86l-221 -108z" />
    <glyph glyph-name="Thorn" unicode="&#xde;" horiz-adv-x="576" 
d="M204 255h131q53 0 84.5 32t31.5 78q0 32 -20.5 52.5t-61.5 20.5h-130zM155 0h-137l134 689l137 -1l-25 -126h151q43 0 75 -16t53 -42.5t31.5 -60.5t10.5 -69q0 -45 -15.5 -88.5t-45.5 -77.5t-73 -55t-98 -21h-173z" />
    <glyph glyph-name="agrave" unicode="&#xe0;" horiz-adv-x="525" 
d="M64 320q36 181 197 181q26 0 62 -10.5t74 -35.5l18 39h117l-96 -494h-118l-2 41q-53 -27 -89.5 -36t-62.5 -9q-69 0 -101 33.5t-32 92.5q0 13 1 26t4 27zM167 192q-3 -14 -3 -25q0 -28 14.5 -39t37.5 -11q24 0 56.5 13t67.5 32l35 185q-19 14 -50 25.5t-57 11.5t-48 -18
t-30 -58zM345 542l-166 181l106 40l120 -184z" />
    <glyph glyph-name="aacute" unicode="&#xe1;" horiz-adv-x="525" 
d="M64 320q36 181 197 181q26 0 62 -10.5t74 -35.5l18 39h117l-96 -494h-118l-2 41q-53 -27 -89.5 -36t-62.5 -9q-69 0 -101 33.5t-32 92.5q0 13 1 26t4 27zM167 192q-3 -14 -3 -25q0 -28 14.5 -39t37.5 -11q24 0 56.5 13t67.5 32l35 185q-19 14 -50 25.5t-57 11.5t-48 -18
t-30 -58zM259 568l118 195l109 -37l-160 -185z" />
    <glyph glyph-name="acircumflex" unicode="&#xe2;" horiz-adv-x="525" 
d="M64 320q36 181 197 181q26 0 62 -10.5t74 -35.5l18 39h117l-96 -494h-118l-2 41q-53 -27 -89.5 -36t-62.5 -9q-69 0 -101 33.5t-32 92.5q0 13 1 26t4 27zM167 192q-3 -14 -3 -25q0 -28 14.5 -39t37.5 -11q24 0 56.5 13t67.5 32l35 185q-19 14 -50 25.5t-57 11.5t-48 -18
t-30 -58zM363 640l-165 -109l-43 49l175 153h87l116 -153l-53 -43z" />
    <glyph glyph-name="atilde" unicode="&#xe3;" horiz-adv-x="525" 
d="M64 320q36 181 197 181q26 0 62 -10.5t74 -35.5l18 39h117l-96 -494h-118l-2 41q-53 -27 -89.5 -36t-62.5 -9q-69 0 -101 33.5t-32 92.5q0 13 1 26t4 27zM167 192q-3 -14 -3 -25q0 -28 14.5 -39t37.5 -11q24 0 56.5 13t67.5 32l35 185q-19 14 -50 25.5t-57 11.5t-48 -18
t-30 -58zM280 713q19 0 35 -7t30 -15.5t26 -15t23 -6.5q16 0 32 9.5t39 35.5l12 -8t19.5 -13.5t20 -13.5t12.5 -8q-31 -57 -63.5 -79.5t-66.5 -22.5q-19 0 -35 6t-30.5 13.5t-27.5 13.5t-27 6q-17 0 -32.5 -8t-41.5 -35l-63 45q32 51 65 77t73 26z" />
    <glyph glyph-name="adieresis" unicode="&#xe4;" horiz-adv-x="525" 
d="M64 320q36 181 197 181q26 0 62 -10.5t74 -35.5l18 39h117l-96 -494h-118l-2 41q-53 -27 -89.5 -36t-62.5 -9q-69 0 -101 33.5t-32 92.5q0 13 1 26t4 27zM167 192q-3 -14 -3 -25q0 -28 14.5 -39t37.5 -11q24 0 56.5 13t67.5 32l35 185q-19 14 -50 25.5t-57 11.5t-48 -18
t-30 -58zM458 693q25 0 40.5 -15.5t15.5 -40.5q0 -16 -7 -30.5t-19 -25.5t-27 -17.5t-30 -6.5q-25 0 -40.5 15.5t-15.5 38.5q0 16 7 31t18 26.5t26 18t32 6.5zM260 693q25 0 40.5 -15.5t15.5 -40.5q0 -16 -7 -30.5t-19 -25.5t-27 -17.5t-30 -6.5q-25 0 -40.5 15.5
t-15.5 38.5q0 16 7 31t18.5 26.5t26.5 18t31 6.5z" />
    <glyph glyph-name="aring" unicode="&#xe5;" horiz-adv-x="525" 
d="M64 320q36 181 197 181q26 0 62 -10.5t74 -35.5l18 39h117l-96 -494h-118l-2 41q-53 -27 -89.5 -36t-62.5 -9q-69 0 -101 33.5t-32 92.5q0 13 1 26t4 27zM167 192q-3 -14 -3 -25q0 -28 14.5 -39t37.5 -11q24 0 56.5 13t67.5 32l35 185q-19 14 -50 25.5t-57 11.5t-48 -18
t-30 -58zM347 600q19 0 36 15t17 35q0 14 -10.5 24t-26.5 10q-22 0 -37.5 -15t-15.5 -35q0 -14 10 -24t27 -10zM337 531q-42 0 -71.5 26t-29.5 65q0 26 9.5 50t27.5 42t42.5 29t54.5 11q44 0 74 -26.5t30 -66.5q0 -27 -10 -50.5t-28 -41.5t-43.5 -28t-55.5 -10z" />
    <glyph glyph-name="ae" unicode="&#xe6;" horiz-adv-x="811" 
d="M603 389q-44 0 -70.5 -29t-37.5 -76q12 -1 24 -1h23q29 0 50.5 6.5t35.5 16t20.5 21t6.5 20.5q0 17 -12 29.5t-40 12.5zM460 452q28 23 66 36t83 13q50 0 84.5 -11.5t56 -31t31 -44t9.5 -50.5q0 -44 -22.5 -76.5t-60.5 -54t-88 -32t-106 -10.5q-8 0 -16.5 0.5t-16.5 1.5
q-3 -14 -3 -25q0 -32 22.5 -47.5t61.5 -15.5q23 0 52.5 9.5t61.5 35.5q15 -25 29.5 -48t30.5 -47q-28 -20 -55 -32t-52.5 -18t-50 -8t-47.5 -2q-51 0 -91.5 14.5t-64.5 49.5q-25 -21 -51.5 -33.5t-53 -19.5t-52.5 -9t-48 -2q-63 0 -99 33t-36 87q0 47 17.5 81.5t46 57
t65 33.5t73.5 11q19 0 34.5 -0.5t29.5 -1t29.5 -2t34.5 -3.5l4 24t2 17q0 55 -85 55q-25 0 -58 -7t-75 -36q-11 23 -20.5 46t-20.5 46q60 40 111.5 52t96.5 12q51 0 86 -11t55 -37zM215 107q18 0 37 3.5t36.5 9t32 13t23.5 15.5q1 14 2.5 27t3.5 30q-27 3 -47.5 5t-47.5 2
q-15 0 -31 -2.5t-29.5 -9.5t-22 -19t-8.5 -31q0 -18 14 -30.5t37 -12.5z" />
    <glyph glyph-name="ccedilla" unicode="&#xe7;" horiz-adv-x="452" 
d="M154 -74q8 18 17 36t18 35q-63 8 -104.5 49t-41.5 109q0 9 1 19t3 21l22 127q17 91 77 135t147 44q23 0 47.5 -3.5t47.5 -12t43.5 -23t36.5 -36.5l-75 -91q-26 31 -55.5 40.5t-47.5 9.5q-39 0 -64.5 -20.5t-34.5 -66.5l-20 -99q-1 -5 -1.5 -10t-0.5 -10q0 -36 23.5 -51.5
t51.5 -15.5q20 0 50 9t59 36l72 -96q-44 -35 -86.5 -49t-87.5 -16q-5 -8 -8.5 -16.5t-7.5 -16.5q24 -1 39.5 -8t25.5 -18t14 -24t4 -26q0 -20 -8.5 -38.5t-25.5 -33t-41.5 -23t-55.5 -8.5q-25 0 -52.5 7t-50.5 18l29 58q21 -11 39 -15t34 -4q17 0 33.5 7t16.5 26
q0 8 -4.5 12.5t-11 6t-13.5 0.5t-13 -3z" />
    <glyph glyph-name="egrave" unicode="&#xe8;" horiz-adv-x="494" 
d="M294 502q50 0 84.5 -12t56 -31.5t31 -44t9.5 -50.5q0 -42 -19.5 -73.5t-55 -52.5t-84.5 -32t-109 -11h-21t-21 1q-3 -12 -3 -23q0 -37 23.5 -52.5t60.5 -15.5q23 0 51.5 10.5t60.5 36.5q4 -5 12.5 -19t18.5 -30t18.5 -29.5t12.5 -18.5q-56 -40 -108 -50t-98 -10
q-38 0 -71 9t-57.5 29t-39 50.5t-14.5 74.5q0 63 13.5 124.5t44.5 110t81 79t123 30.5zM288 389q-44 0 -68.5 -26.5t-37.5 -71.5q10 -1 19.5 -1h17.5q37 0 60.5 5.5t37 13.5t18.5 18.5t5 19.5q0 17 -10 29.5t-42 12.5zM315 542l-166 181l106 40l120 -184z" />
    <glyph glyph-name="eacute" unicode="&#xe9;" horiz-adv-x="494" 
d="M294 502q50 0 84.5 -12t56 -31.5t31 -44t9.5 -50.5q0 -42 -19.5 -73.5t-55 -52.5t-84.5 -32t-109 -11h-21t-21 1q-3 -12 -3 -23q0 -37 23.5 -52.5t60.5 -15.5q23 0 51.5 10.5t60.5 36.5q4 -5 12.5 -19t18.5 -30t18.5 -29.5t12.5 -18.5q-56 -40 -108 -50t-98 -10
q-38 0 -71 9t-57.5 29t-39 50.5t-14.5 74.5q0 63 13.5 124.5t44.5 110t81 79t123 30.5zM288 389q-44 0 -68.5 -26.5t-37.5 -71.5q10 -1 19.5 -1h17.5q37 0 60.5 5.5t37 13.5t18.5 18.5t5 19.5q0 17 -10 29.5t-42 12.5zM257 568l118 195l109 -37l-160 -185z" />
    <glyph glyph-name="ecircumflex" unicode="&#xea;" horiz-adv-x="494" 
d="M294 502q50 0 84.5 -12t56 -31.5t31 -44t9.5 -50.5q0 -42 -19.5 -73.5t-55 -52.5t-84.5 -32t-109 -11h-21t-21 1q-3 -12 -3 -23q0 -37 23.5 -52.5t60.5 -15.5q23 0 51.5 10.5t60.5 36.5q4 -5 12.5 -19t18.5 -30t18.5 -29.5t12.5 -18.5q-56 -40 -108 -50t-98 -10
q-38 0 -71 9t-57.5 29t-39 50.5t-14.5 74.5q0 63 13.5 124.5t44.5 110t81 79t123 30.5zM288 389q-44 0 -68.5 -26.5t-37.5 -71.5q10 -1 19.5 -1h17.5q37 0 60.5 5.5t37 13.5t18.5 18.5t5 19.5q0 17 -10 29.5t-42 12.5zM332 640l-165 -109l-43 49l175 153h87l116 -153
l-53 -43z" />
    <glyph glyph-name="edieresis" unicode="&#xeb;" horiz-adv-x="494" 
d="M294 502q50 0 84.5 -12t56 -31.5t31 -44t9.5 -50.5q0 -42 -19.5 -73.5t-55 -52.5t-84.5 -32t-109 -11h-21t-21 1q-3 -12 -3 -23q0 -37 23.5 -52.5t60.5 -15.5q23 0 51.5 10.5t60.5 36.5q4 -5 12.5 -19t18.5 -30t18.5 -29.5t12.5 -18.5q-56 -40 -108 -50t-98 -10
q-38 0 -71 9t-57.5 29t-39 50.5t-14.5 74.5q0 63 13.5 124.5t44.5 110t81 79t123 30.5zM288 389q-44 0 -68.5 -26.5t-37.5 -71.5q10 -1 19.5 -1h17.5q37 0 60.5 5.5t37 13.5t18.5 18.5t5 19.5q0 17 -10 29.5t-42 12.5zM433 693q25 0 40.5 -15.5t15.5 -40.5q0 -16 -7 -30.5
t-19 -25.5t-27 -17.5t-30 -6.5q-25 0 -40.5 15.5t-15.5 38.5q0 16 7 31t18 26.5t26 18t32 6.5zM235 693q25 0 40.5 -15.5t15.5 -40.5q0 -16 -7 -30.5t-19 -25.5t-27 -17.5t-30 -6.5q-25 0 -40.5 15.5t-15.5 38.5q0 16 7 31t18.5 26.5t26.5 18t31 6.5z" />
    <glyph glyph-name="eth" unicode="&#xf0;" horiz-adv-x="523" 
d="M560 673q-19 -14 -38 -27.5t-38 -27.5q18 -31 25.5 -67t8 -74.5t-3.5 -78t-10 -75.5l-20 -118q-8 -49 -25.5 -87.5t-45.5 -65.5t-68.5 -41.5t-95.5 -14.5q-51 0 -92 16t-68 44.5t-38 66.5t-3 83l16 86q17 91 70.5 136t138.5 45q32 0 67.5 -11.5t57.5 -35.5h2q1 0 2 1
q3 19 3 37q0 22 -4.5 44.5t-12.5 39.5l-58 -42q-8 13 -17 24.5t-18 24.5q14 10 28.5 20.5t28.5 20.5q-17 16 -42 29.5t-62 24.5q10 24 17.5 48.5t17.5 47.5q54 -10 96 -31t68 -48q19 14 38 27.5t38 27.5zM363 260q8 42 -16.5 69t-64.5 27q-36 0 -61.5 -20.5t-34.5 -65.5
l-12 -61q-8 -42 15.5 -69.5t66.5 -27.5q39 0 63 22t32 64z" />
    <glyph glyph-name="ntilde" unicode="&#xf1;" horiz-adv-x="529" 
d="M317 0l59 305q3 13 3 24q0 29 -15 40t-38 11q-24 0 -53 -10t-72 -36l-65 -334h-127l97 494h116l2 -42q31 17 55.5 26.5t43.5 14.5t34 6.5t27 1.5q68 0 99 -33t31 -91q0 -24 -6 -54l-62 -323h-129zM277 713q19 0 35 -7t30 -15.5t26 -15t23 -6.5q16 0 32 9.5t39 35.5l12 -8
t19.5 -13.5t20 -13.5t12.5 -8q-31 -57 -63.5 -79.5t-66.5 -22.5q-19 0 -35 6t-30.5 13.5t-27.5 13.5t-27 6q-17 0 -32.5 -8t-41.5 -35l-63 45q32 51 65 77t73 26z" />
    <glyph glyph-name="ograve" unicode="&#xf2;" horiz-adv-x="521" 
d="M473 174q-18 -92 -77 -135.5t-159 -43.5q-38 0 -73 11t-61.5 33.5t-42.5 55.5t-16 77q0 11 1 22t3 23l19 102q17 92 76 137t153 45q45 0 82.5 -13t63.5 -36.5t40.5 -56t14.5 -72.5q0 -23 -4 -43zM367 281q3 13 3 25q0 39 -24.5 58.5t-56.5 19.5q-35 0 -60.5 -19.5
t-35.5 -67.5l-18 -89q-3 -14 -3 -24q0 -20 7.5 -33.5t19 -22t25.5 -12.5t28 -4q38 0 63 19t35 68zM328 542l-166 181l106 40l120 -184z" />
    <glyph glyph-name="oacute" unicode="&#xf3;" horiz-adv-x="521" 
d="M473 174q-18 -92 -77 -135.5t-159 -43.5q-38 0 -73 11t-61.5 33.5t-42.5 55.5t-16 77q0 11 1 22t3 23l19 102q17 92 76 137t153 45q45 0 82.5 -13t63.5 -36.5t40.5 -56t14.5 -72.5q0 -23 -4 -43zM367 281q3 13 3 25q0 39 -24.5 58.5t-56.5 19.5q-35 0 -60.5 -19.5
t-35.5 -67.5l-18 -89q-3 -14 -3 -24q0 -20 7.5 -33.5t19 -22t25.5 -12.5t28 -4q38 0 63 19t35 68zM262 568l118 195l109 -37l-160 -185z" />
    <glyph glyph-name="ocircumflex" unicode="&#xf4;" horiz-adv-x="521" 
d="M473 174q-18 -92 -77 -135.5t-159 -43.5q-38 0 -73 11t-61.5 33.5t-42.5 55.5t-16 77q0 11 1 22t3 23l19 102q17 92 76 137t153 45q45 0 82.5 -13t63.5 -36.5t40.5 -56t14.5 -72.5q0 -23 -4 -43zM367 281q3 13 3 25q0 39 -24.5 58.5t-56.5 19.5q-35 0 -60.5 -19.5
t-35.5 -67.5l-18 -89q-3 -14 -3 -24q0 -20 7.5 -33.5t19 -22t25.5 -12.5t28 -4q38 0 63 19t35 68zM345 640l-165 -109l-43 49l175 153h87l116 -153l-53 -43z" />
    <glyph glyph-name="otilde" unicode="&#xf5;" horiz-adv-x="521" 
d="M473 174q-18 -92 -77 -135.5t-159 -43.5q-38 0 -73 11t-61.5 33.5t-42.5 55.5t-16 77q0 11 1 22t3 23l19 102q17 92 76 137t153 45q45 0 82.5 -13t63.5 -36.5t40.5 -56t14.5 -72.5q0 -23 -4 -43zM367 281q3 13 3 25q0 39 -24.5 58.5t-56.5 19.5q-35 0 -60.5 -19.5
t-35.5 -67.5l-18 -89q-3 -14 -3 -24q0 -20 7.5 -33.5t19 -22t25.5 -12.5t28 -4q38 0 63 19t35 68zM270 713q19 0 35 -7t30 -15.5t26 -15t23 -6.5q16 0 32 9.5t39 35.5l12 -8t19.5 -13.5t20 -13.5t12.5 -8q-31 -57 -63.5 -79.5t-66.5 -22.5q-19 0 -35 6t-30.5 13.5
t-27.5 13.5t-27 6q-17 0 -32.5 -8t-41.5 -35l-63 45q32 51 65 77t73 26z" />
    <glyph glyph-name="odieresis" unicode="&#xf6;" horiz-adv-x="521" 
d="M473 174q-18 -92 -77 -135.5t-159 -43.5q-38 0 -73 11t-61.5 33.5t-42.5 55.5t-16 77q0 11 1 22t3 23l19 102q17 92 76 137t153 45q45 0 82.5 -13t63.5 -36.5t40.5 -56t14.5 -72.5q0 -23 -4 -43zM367 281q3 13 3 25q0 39 -24.5 58.5t-56.5 19.5q-35 0 -60.5 -19.5
t-35.5 -67.5l-18 -89q-3 -14 -3 -24q0 -20 7.5 -33.5t19 -22t25.5 -12.5t28 -4q38 0 63 19t35 68zM449 693q25 0 40.5 -15.5t15.5 -40.5q0 -16 -7 -30.5t-19 -25.5t-27 -17.5t-30 -6.5q-25 0 -40.5 15.5t-15.5 38.5q0 16 7 31t18 26.5t26 18t32 6.5zM251 693
q25 0 40.5 -15.5t15.5 -40.5q0 -16 -7 -30.5t-19 -25.5t-27 -17.5t-30 -6.5q-25 0 -40.5 15.5t-15.5 38.5q0 16 7 31t18.5 26.5t26.5 18t31 6.5z" />
    <glyph glyph-name="oslash" unicode="&#xf8;" horiz-adv-x="521" 
d="M473 174q-18 -92 -77 -135.5t-159 -43.5q-42 0 -79 13t-64 39l-52 -52l-28 27q6 7 20.5 21.5l34.5 34.5q-25 39 -25 94q0 11 1 22t3 23l19 102q17 92 76 137t153 45q45 0 82.5 -13t63.5 -36l48 49l29 -28l-51 -51q29 -43 29 -99q0 -23 -4 -43zM367 281q3 13 3 25
q0 5 -0.5 8.5t-1.5 7.5l-182 -183q11 -15 29.5 -21t36.5 -6q38 0 63 19t35 68zM350 360q-24 24 -61 24q-35 0 -60.5 -19.5t-35.5 -67.5l-18 -89q-3 -14 -3 -24v-2z" />
    <glyph glyph-name="ugrave" unicode="&#xf9;" horiz-adv-x="531" 
d="M230 494l-60 -304q-1 -6 -1.5 -11.5t-0.5 -10.5q0 -29 16.5 -41t36.5 -12q24 0 53.5 11t71.5 36l65 332h128l-96 -494h-118l-2 43q-29 -17 -53 -27t-44 -15t-35.5 -6.5t-28.5 -1.5q-67 0 -97.5 36t-30.5 95q0 26 6 56l62 314h128zM343 542l-166 181l106 40l120 -184z" />
    <glyph glyph-name="uacute" unicode="&#xfa;" horiz-adv-x="531" 
d="M230 494l-60 -304q-1 -6 -1.5 -11.5t-0.5 -10.5q0 -29 16.5 -41t36.5 -12q24 0 53.5 11t71.5 36l65 332h128l-96 -494h-118l-2 43q-29 -17 -53 -27t-44 -15t-35.5 -6.5t-28.5 -1.5q-67 0 -97.5 36t-30.5 95q0 26 6 56l62 314h128zM272 568l118 195l109 -37l-160 -185z
" />
    <glyph glyph-name="ucircumflex" unicode="&#xfb;" horiz-adv-x="531" 
d="M230 494l-60 -304q-1 -6 -1.5 -11.5t-0.5 -10.5q0 -29 16.5 -41t36.5 -12q24 0 53.5 11t71.5 36l65 332h128l-96 -494h-118l-2 43q-29 -17 -53 -27t-44 -15t-35.5 -6.5t-28.5 -1.5q-67 0 -97.5 36t-30.5 95q0 26 6 56l62 314h128zM347 640l-165 -109l-43 49l175 153h87
l116 -153l-53 -43z" />
    <glyph glyph-name="udieresis" unicode="&#xfc;" horiz-adv-x="531" 
d="M230 494l-60 -304q-1 -6 -1.5 -11.5t-0.5 -10.5q0 -29 16.5 -41t36.5 -12q24 0 53.5 11t71.5 36l65 332h128l-96 -494h-118l-2 43q-29 -17 -53 -27t-44 -15t-35.5 -6.5t-28.5 -1.5q-67 0 -97.5 36t-30.5 95q0 26 6 56l62 314h128zM450 693q25 0 40.5 -15.5t15.5 -40.5
q0 -16 -7 -30.5t-19 -25.5t-27 -17.5t-30 -6.5q-25 0 -40.5 15.5t-15.5 38.5q0 16 7 31t18 26.5t26 18t32 6.5zM252 693q25 0 40.5 -15.5t15.5 -40.5q0 -16 -7 -30.5t-19 -25.5t-27 -17.5t-30 -6.5q-25 0 -40.5 15.5t-15.5 38.5q0 16 7 31t18.5 26.5t26.5 18t31 6.5z" />
    <glyph glyph-name="yacute" unicode="&#xfd;" horiz-adv-x="458" 
d="M12 -199l114 210l-29 22l-48 463h128l11 -182l10 -171h4l111 219q10 21 17 36.5t11.5 29t6 26t1.5 27.5v16h129v-15q0 -45 -12.5 -78t-33.5 -71l-292 -532h-128zM235 568l118 195l109 -37l-160 -185z" />
    <glyph glyph-name="thorn" unicode="&#xfe;" horiz-adv-x="523" 
d="M476 173q-16 -81 -68 -130.5t-140 -49.5q-26 0 -60 5t-68 24l-43 -220h-126l171 886h128l-47 -239q48 26 86.5 38t64.5 12q66 0 101 -30.5t35 -93.5q0 -26 -6 -57zM373 307q3 15 3 26q0 28 -14.5 38t-35.5 10q-23 0 -58.5 -13t-66.5 -30l-38 -197q32 -16 55 -21.5
t47 -5.5q30 0 54 16t32 59z" />
    <glyph glyph-name="ydieresis" unicode="&#xff;" horiz-adv-x="458" 
d="M12 -199l114 210l-29 22l-48 463h128l11 -182l10 -171h4l111 219q10 21 17 36.5t11.5 29t6 26t1.5 27.5v16h129v-15q0 -45 -12.5 -78t-33.5 -71l-292 -532h-128zM420 693q25 0 40.5 -15.5t15.5 -40.5q0 -16 -7 -30.5t-19 -25.5t-27 -17.5t-30 -6.5q-25 0 -40.5 15.5
t-15.5 38.5q0 16 7 31t18 26.5t26 18t32 6.5zM222 693q25 0 40.5 -15.5t15.5 -40.5q0 -16 -7 -30.5t-19 -25.5t-27 -17.5t-30 -6.5q-25 0 -40.5 15.5t-15.5 38.5q0 16 7 31t18.5 26.5t26.5 18t31 6.5z" />
    <glyph glyph-name="Amacron" unicode="&#x100;" horiz-adv-x="638" 
d="M427 142h-239l-72 -142h-149l374 689h140l106 -689h-144zM246 257h166l-11 105l-18 161h-4l-74 -149zM267 761l20 105h312l-21 -105h-311z" />
    <glyph glyph-name="amacron" unicode="&#x101;" horiz-adv-x="525" 
d="M64 320q36 181 197 181q26 0 62 -10.5t74 -35.5l18 39h117l-96 -494h-118l-2 41q-53 -27 -89.5 -36t-62.5 -9q-69 0 -101 33.5t-32 92.5q0 13 1 26t4 27zM167 192q-3 -14 -3 -25q0 -28 14.5 -39t37.5 -11q24 0 56.5 13t67.5 32l35 185q-19 14 -50 25.5t-57 11.5t-48 -18
t-30 -58zM185 585l21 104h312l-21 -104h-312z" />
    <glyph glyph-name="Abreve" unicode="&#x102;" horiz-adv-x="638" 
d="M427 142h-239l-72 -142h-149l374 689h140l106 -689h-144zM246 257h166l-11 105l-18 161h-4l-74 -149zM418 734q-42 0 -68 15.5t-40.5 38t-19 49t-2.5 48.5h91q-2 -11 -0.5 -22.5t7.5 -21.5t15.5 -16t24.5 -6q16 0 29 6.5t22.5 16.5t15 21.5t7.5 21.5h92q-6 -23 -18 -49.5
t-32.5 -49t-51 -37.5t-72.5 -15z" />
    <glyph glyph-name="abreve" unicode="&#x103;" horiz-adv-x="525" 
d="M64 320q36 181 197 181q26 0 62 -10.5t74 -35.5l18 39h117l-96 -494h-118l-2 41q-53 -27 -89.5 -36t-62.5 -9q-69 0 -101 33.5t-32 92.5q0 13 1 26t4 27zM167 192q-3 -14 -3 -25q0 -28 14.5 -39t37.5 -11q24 0 56.5 13t67.5 32l35 185q-19 14 -50 25.5t-57 11.5t-48 -18
t-30 -58zM335 564q-41 0 -67.5 14.5t-41.5 36.5t-19.5 49t-2.5 53h91q-2 -10 -0.5 -21.5t7.5 -22t16 -17.5t26 -7q15 0 28 6.5t22.5 17t15.5 22t8 22.5h92q-5 -23 -17.5 -49.5t-33.5 -49.5t-51.5 -38.5t-72.5 -15.5z" />
    <glyph glyph-name="Aogonek" unicode="&#x104;" horiz-adv-x="638" 
d="M427 142h-239l-72 -142h-149l374 689h140l106 -689h-60q-53 -59 -57 -90q-3 -28 31 -28q11 0 26.5 3t37.5 13l15 -66q-27 -15 -55.5 -21t-54.5 -6q-44 0 -67 26t-18 64q3 21 15 46t44 59h-1zM246 257h166l-11 105l-18 161h-4l-74 -149z" />
    <glyph glyph-name="aogonek" unicode="&#x105;" horiz-adv-x="525" 
d="M258 -105q3 22 15.5 46.5t44.5 58.5l-2 41q-53 -27 -89.5 -36t-62.5 -9q-69 0 -101 33.5t-32 92.5q0 13 1 26t4 27l28 145q36 181 197 181q26 0 62 -10.5t74 -35.5l18 39h117l-96 -494h-36q-53 -59 -57 -90q-3 -28 31 -28q11 0 26.5 3t37.5 13l15 -66q-27 -15 -55.5 -21
t-54.5 -6q-44 0 -67 26t-18 64zM167 192q-3 -14 -3 -25q0 -28 14.5 -39t37.5 -11q24 0 56.5 13t67.5 32l35 185q-19 14 -50 25.5t-57 11.5t-48 -18t-30 -58z" />
    <glyph glyph-name="Cacute" unicode="&#x106;" horiz-adv-x="563" 
d="M523 519q-26 27 -64.5 39.5t-73.5 12.5q-58 0 -95.5 -31.5t-50.5 -100.5l-36 -193q-3 -15 -3 -28q0 -26 10 -44.5t26 -30t36.5 -17t42.5 -5.5q17 0 37 3t40.5 9.5t40 16t35.5 21.5l57 -112q-26 -19 -55 -31.5t-59 -20t-60 -10.5t-58 -3q-41 0 -82.5 12.5t-74.5 38
t-53.5 63.5t-20.5 90q0 13 1 26t4 27l43 222q22 111 92.5 167t186.5 56q60 0 119 -19t94 -54zM335 784l190 137l72 -86l-221 -108z" />
    <glyph glyph-name="cacute" unicode="&#x107;" horiz-adv-x="452" 
d="M425 61q-50 -40 -99 -53t-103 -13q-38 0 -71 10.5t-57 31t-38 50t-14 68.5q0 9 1 19t3 21l22 127q17 91 77 135t147 44q23 0 47.5 -3.5t47.5 -12t43.5 -23t36.5 -36.5l-75 -91q-26 31 -55.5 40.5t-47.5 9.5q-39 0 -64.5 -20.5t-34.5 -66.5l-20 -99q-1 -5 -1.5 -10
t-0.5 -10q0 -36 23.5 -51.5t51.5 -15.5q20 0 50 9t59 36zM246 568l118 195l109 -37l-160 -185z" />
    <glyph glyph-name="Ccircumflex" unicode="&#x108;" horiz-adv-x="563" 
d="M523 519q-26 27 -64.5 39.5t-73.5 12.5q-58 0 -95.5 -31.5t-50.5 -100.5l-36 -193q-3 -15 -3 -28q0 -26 10 -44.5t26 -30t36.5 -17t42.5 -5.5q17 0 37 3t40.5 9.5t40 16t35.5 21.5l57 -112q-26 -19 -55 -31.5t-59 -20t-60 -10.5t-58 -3q-41 0 -82.5 12.5t-74.5 38
t-53.5 63.5t-20.5 90q0 13 1 26t4 27l43 222q22 111 92.5 167t186.5 56q60 0 119 -19t94 -54zM428 812l-167 -81l-32 52l173 123h84l124 -123l-54 -52z" />
    <glyph glyph-name="ccircumflex" unicode="&#x109;" horiz-adv-x="452" 
d="M425 61q-50 -40 -99 -53t-103 -13q-38 0 -71 10.5t-57 31t-38 50t-14 68.5q0 9 1 19t3 21l22 127q17 91 77 135t147 44q23 0 47.5 -3.5t47.5 -12t43.5 -23t36.5 -36.5l-75 -91q-26 31 -55.5 40.5t-47.5 9.5q-39 0 -64.5 -20.5t-34.5 -66.5l-20 -99q-1 -5 -1.5 -10
t-0.5 -10q0 -36 23.5 -51.5t51.5 -15.5q20 0 50 9t59 36zM325 640l-165 -109l-43 49l175 153h87l116 -153l-53 -43z" />
    <glyph glyph-name="Cdotaccent" unicode="&#x10a;" horiz-adv-x="563" 
d="M523 519q-26 27 -64.5 39.5t-73.5 12.5q-58 0 -95.5 -31.5t-50.5 -100.5l-36 -193q-3 -15 -3 -28q0 -26 10 -44.5t26 -30t36.5 -17t42.5 -5.5q17 0 37 3t40.5 9.5t40 16t35.5 21.5l57 -112q-26 -19 -55 -31.5t-59 -20t-60 -10.5t-58 -3q-41 0 -82.5 12.5t-74.5 38
t-53.5 63.5t-20.5 90q0 13 1 26t4 27l43 222q22 111 92.5 167t186.5 56q60 0 119 -19t94 -54zM407 732q-30 0 -47.5 20.5t-12.5 50.5q5 31 30 52.5t56 21.5q29 0 46.5 -19t12.5 -50q-2 -15 -9.5 -29t-19 -24.5t-26 -16.5t-30.5 -6z" />
    <glyph glyph-name="cdotaccent" unicode="&#x10b;" horiz-adv-x="452" 
d="M425 61q-50 -40 -99 -53t-103 -13q-38 0 -71 10.5t-57 31t-38 50t-14 68.5q0 9 1 19t3 21l22 127q17 91 77 135t147 44q23 0 47.5 -3.5t47.5 -12t43.5 -23t36.5 -36.5l-75 -91q-26 31 -55.5 40.5t-47.5 9.5q-39 0 -64.5 -20.5t-34.5 -66.5l-20 -99q-1 -5 -1.5 -10
t-0.5 -10q0 -36 23.5 -51.5t51.5 -15.5q20 0 50 9t59 36zM312 563q-30 0 -47.5 20.5t-12.5 50.5q5 31 30 52.5t56 21.5q29 0 46.5 -19t12.5 -50q-2 -15 -9.5 -29t-19 -24.5t-26 -16.5t-30.5 -6z" />
    <glyph glyph-name="Ccaron" unicode="&#x10c;" horiz-adv-x="563" 
d="M523 519q-26 27 -64.5 39.5t-73.5 12.5q-58 0 -95.5 -31.5t-50.5 -100.5l-36 -193q-3 -15 -3 -28q0 -26 10 -44.5t26 -30t36.5 -17t42.5 -5.5q17 0 37 3t40.5 9.5t40 16t35.5 21.5l57 -112q-26 -19 -55 -31.5t-59 -20t-60 -10.5t-58 -3q-41 0 -82.5 12.5t-74.5 38
t-53.5 63.5t-20.5 90q0 13 1 26t4 27l43 222q22 111 92.5 167t186.5 56q60 0 119 -19t94 -54zM585 908l34 -52l-175 -124h-84l-122 123l52 51l129 -80z" />
    <glyph glyph-name="ccaron" unicode="&#x10d;" horiz-adv-x="452" 
d="M425 61q-50 -40 -99 -53t-103 -13q-38 0 -71 10.5t-57 31t-38 50t-14 68.5q0 9 1 19t3 21l22 127q17 91 77 135t147 44q23 0 47.5 -3.5t47.5 -12t43.5 -23t36.5 -36.5l-75 -91q-26 31 -55.5 40.5t-47.5 9.5q-39 0 -64.5 -20.5t-34.5 -66.5l-20 -99q-1 -5 -1.5 -10
t-0.5 -10q0 -36 23.5 -51.5t51.5 -15.5q20 0 50 9t59 36zM486 736l42 -46l-176 -153h-87l-118 154l57 45q10 -8 26 -22.5t32.5 -30t32 -30t26.5 -23.5z" />
    <glyph glyph-name="Dcaron" unicode="&#x10e;" horiz-adv-x="630" 
d="M575 221q-22 -112 -91.5 -166.5t-172.5 -54.5h-285l134 689h254q43 0 80.5 -12.5t65.5 -36t44.5 -58t16.5 -79.5q0 -20 -5 -48zM479 442q2 9 3 17t1 16q0 25 -8.5 42t-23.5 28t-34 16t-40 5h-104l-87 -445h114q22 0 44.5 6.5t41.5 21t33.5 38.5t21.5 59zM565 908l34 -52
l-175 -124h-84l-122 123l52 51l129 -80z" />
    <glyph glyph-name="dcaron" unicode="&#x10f;" horiz-adv-x="661" 
d="M575 511q31 15 49.5 32t26.5 40q-18 4 -30.5 22t-12.5 40q0 36 24.5 62t64.5 26q34 0 54.5 -22.5t20.5 -59.5q0 -58 -44.5 -110t-120.5 -84zM64 322q16 81 66.5 130t138.5 49q26 0 62 -5.5t68 -22.5l49 243h125l-137 -716h-118l-1 46q-47 -26 -85.5 -38.5t-64.5 -12.5
q-66 0 -101.5 31t-35.5 94q0 26 6 56zM166 187q-3 -14 -3 -24q0 -28 14.5 -39t37.5 -11t58 12t65 31l39 198q-29 14 -53.5 20.5t-47.5 6.5q-30 0 -54.5 -18t-33.5 -60z" />
    <glyph glyph-name="Dcroat" unicode="&#x110;" horiz-adv-x="630" 
d="M33 391h69l58 298h254q43 0 80.5 -12.5t65.5 -36t44.5 -58t16.5 -79.5q0 -20 -5 -48l-41 -234q-22 -112 -91.5 -166.5t-172.5 -54.5h-285l58 297h-70zM479 442q2 9 3 17t1 16q0 25 -8.5 42t-23.5 28t-34 16t-40 5h-104l-34 -175h87l-18 -94h-88l-34 -176h114
q22 0 44.5 6.5t41.5 21t33.5 38.5t21.5 59z" />
    <glyph glyph-name="dcroat" unicode="&#x111;" horiz-adv-x="525" 
d="M278 638h154l16 78h125l-15 -78h46l-15 -81h-47l-106 -557h-118l-1 46q-47 -26 -85.5 -38.5t-64.5 -12.5q-66 0 -101.5 31t-35.5 94q0 26 6 56l28 146q16 81 66.5 130t138.5 49q26 0 62 -5.5t68 -22.5l17 84h-153zM166 187q-3 -14 -3 -24q0 -28 14.5 -39t37.5 -11t58 12
t65 31l39 198q-29 14 -53.5 20.5t-47.5 6.5q-30 0 -54.5 -18t-33.5 -60z" />
    <glyph glyph-name="Emacron" unicode="&#x112;" horiz-adv-x="579" 
d="M159 689h464l-23 -123h-328l-31 -158h288l-23 -123h-289l-32 -163h352l-24 -122h-488zM249 761l20 105h312l-21 -105h-311z" />
    <glyph glyph-name="emacron" unicode="&#x113;" horiz-adv-x="494" 
d="M294 502q50 0 84.5 -12t56 -31.5t31 -44t9.5 -50.5q0 -42 -19.5 -73.5t-55 -52.5t-84.5 -32t-109 -11h-21t-21 1q-3 -12 -3 -23q0 -37 23.5 -52.5t60.5 -15.5q23 0 51.5 10.5t60.5 36.5q4 -5 12.5 -19t18.5 -30t18.5 -29.5t12.5 -18.5q-56 -40 -108 -50t-98 -10
q-38 0 -71 9t-57.5 29t-39 50.5t-14.5 74.5q0 63 13.5 124.5t44.5 110t81 79t123 30.5zM288 389q-44 0 -68.5 -26.5t-37.5 -71.5q10 -1 19.5 -1h17.5q37 0 60.5 5.5t37 13.5t18.5 18.5t5 19.5q0 17 -10 29.5t-42 12.5zM165 585l21 104h312l-21 -104h-312z" />
    <glyph glyph-name="Ebreve" unicode="&#x114;" horiz-adv-x="579" 
d="M159 689h464l-23 -123h-328l-31 -158h288l-23 -123h-289l-32 -163h352l-24 -122h-488zM402 734q-42 0 -68 15.5t-40.5 38t-19 49t-2.5 48.5h91q-2 -11 -0.5 -22.5t7.5 -21.5t15.5 -16t24.5 -6q16 0 29 6.5t22.5 16.5t15 21.5t7.5 21.5h92q-6 -23 -18 -49.5t-32.5 -49
t-51 -37.5t-72.5 -15z" />
    <glyph glyph-name="ebreve" unicode="&#x115;" horiz-adv-x="494" 
d="M294 502q50 0 84.5 -12t56 -31.5t31 -44t9.5 -50.5q0 -42 -19.5 -73.5t-55 -52.5t-84.5 -32t-109 -11h-21t-21 1q-3 -12 -3 -23q0 -37 23.5 -52.5t60.5 -15.5q23 0 51.5 10.5t60.5 36.5q4 -5 12.5 -19t18.5 -30t18.5 -29.5t12.5 -18.5q-56 -40 -108 -50t-98 -10
q-38 0 -71 9t-57.5 29t-39 50.5t-14.5 74.5q0 63 13.5 124.5t44.5 110t81 79t123 30.5zM288 389q-44 0 -68.5 -26.5t-37.5 -71.5q10 -1 19.5 -1h17.5q37 0 60.5 5.5t37 13.5t18.5 18.5t5 19.5q0 17 -10 29.5t-42 12.5zM318 564q-41 0 -67.5 14.5t-41.5 36.5t-19.5 49
t-2.5 53h91q-2 -10 -0.5 -21.5t7.5 -22t16 -17.5t26 -7q15 0 28 6.5t22.5 17t15.5 22t8 22.5h92q-5 -23 -17.5 -49.5t-33.5 -49.5t-51.5 -38.5t-72.5 -15.5z" />
    <glyph glyph-name="Edotaccent" unicode="&#x116;" horiz-adv-x="579" 
d="M159 689h464l-23 -123h-328l-31 -158h288l-23 -123h-289l-32 -163h352l-24 -122h-488zM399 737q-30 0 -47.5 20.5t-12.5 50.5q5 31 30 52.5t56 21.5q29 0 46.5 -19t12.5 -50q-2 -15 -9.5 -29t-19 -24.5t-26 -16.5t-30.5 -6z" />
    <glyph glyph-name="edotaccent" unicode="&#x117;" horiz-adv-x="494" 
d="M294 502q50 0 84.5 -12t56 -31.5t31 -44t9.5 -50.5q0 -42 -19.5 -73.5t-55 -52.5t-84.5 -32t-109 -11h-21t-21 1q-3 -12 -3 -23q0 -37 23.5 -52.5t60.5 -15.5q23 0 51.5 10.5t60.5 36.5q4 -5 12.5 -19t18.5 -30t18.5 -29.5t12.5 -18.5q-56 -40 -108 -50t-98 -10
q-38 0 -71 9t-57.5 29t-39 50.5t-14.5 74.5q0 63 13.5 124.5t44.5 110t81 79t123 30.5zM288 389q-44 0 -68.5 -26.5t-37.5 -71.5q10 -1 19.5 -1h17.5q37 0 60.5 5.5t37 13.5t18.5 18.5t5 19.5q0 17 -10 29.5t-42 12.5zM303 563q-30 0 -47.5 20.5t-12.5 50.5q5 31 30 52.5
t56 21.5q29 0 46.5 -19t12.5 -50q-2 -15 -9.5 -29t-19 -24.5t-26 -16.5t-30.5 -6z" />
    <glyph glyph-name="Eogonek" unicode="&#x118;" horiz-adv-x="579" 
d="M159 689h464l-23 -123h-328l-31 -158h288l-23 -123h-289l-32 -163h352l-24 -122h-15q-53 -59 -57 -90q-3 -28 31 -28q11 0 26.5 3t37.5 13l15 -66q-27 -15 -55.5 -21t-54.5 -6q-44 0 -67 26t-18 64q3 21 15 46t44 59h-390z" />
    <glyph glyph-name="eogonek" unicode="&#x119;" horiz-adv-x="494" 
d="M239 -74q2 16 8.5 33.5t22.5 38.5q-29 -3 -56 -3q-38 0 -71 9t-57.5 29t-39 50.5t-14.5 74.5q0 63 13.5 124.5t44.5 110t81 79t123 30.5q50 0 84.5 -12t56 -31.5t31 -44t9.5 -50.5q0 -42 -19.5 -73.5t-55 -52.5t-84.5 -32t-109 -11h-21t-21 1q-3 -12 -3 -23
q0 -37 23.5 -52.5t60.5 -15.5q23 0 51.5 10.5t60.5 36.5q4 -5 12.5 -19t18.5 -30t18.5 -29.5t12.5 -18.5q-20 -15 -39 -24q-53 -59 -57 -90q-3 -28 31 -28q11 0 26.5 3t37.5 13l15 -66q-27 -15 -55.5 -21t-54.5 -6q-44 0 -67 26t-18 64zM288 389q-44 0 -68.5 -26.5
t-37.5 -71.5q10 -1 19.5 -1h17.5q37 0 60.5 5.5t37 13.5t18.5 18.5t5 19.5q0 17 -10 29.5t-42 12.5z" />
    <glyph glyph-name="Ecaron" unicode="&#x11a;" horiz-adv-x="579" 
d="M159 689h464l-23 -123h-328l-31 -158h288l-23 -123h-289l-32 -163h352l-24 -122h-488zM566 908l34 -52l-175 -124h-84l-122 123l52 51l129 -80z" />
    <glyph glyph-name="ecaron" unicode="&#x11b;" horiz-adv-x="494" 
d="M294 502q50 0 84.5 -12t56 -31.5t31 -44t9.5 -50.5q0 -42 -19.5 -73.5t-55 -52.5t-84.5 -32t-109 -11h-21t-21 1q-3 -12 -3 -23q0 -37 23.5 -52.5t60.5 -15.5q23 0 51.5 10.5t60.5 36.5q4 -5 12.5 -19t18.5 -30t18.5 -29.5t12.5 -18.5q-56 -40 -108 -50t-98 -10
q-38 0 -71 9t-57.5 29t-39 50.5t-14.5 74.5q0 63 13.5 124.5t44.5 110t81 79t123 30.5zM288 389q-44 0 -68.5 -26.5t-37.5 -71.5q10 -1 19.5 -1h17.5q37 0 60.5 5.5t37 13.5t18.5 18.5t5 19.5q0 17 -10 29.5t-42 12.5zM474 736l42 -46l-176 -153h-87l-118 154l57 45
q10 -8 26 -22.5t32.5 -30t32 -30t26.5 -23.5z" />
    <glyph glyph-name="Gcircumflex" unicode="&#x11c;" horiz-adv-x="609" 
d="M528 79q-30 -26 -61 -43t-62.5 -26.5t-62 -13t-57.5 -3.5q-46 0 -86.5 14t-71 41t-48.5 65.5t-18 86.5q0 13 1 26t4 27l44 222q11 56 38 97.5t65.5 69t85 41t96.5 13.5q30 0 61.5 -4t60.5 -12.5t54 -21.5t42 -30l-80 -106q-26 27 -63 37.5t-72 10.5q-25 0 -49.5 -6.5
t-46 -21.5t-37.5 -39t-23 -58l-38 -187q-4 -19 -4 -38q0 -52 30.5 -76.5t75.5 -24.5q20 0 45 5.5t51 24.5l23 113h-101l23 122h238zM424 812l-167 -81l-32 52l173 123h84l124 -123l-54 -52z" />
    <glyph glyph-name="gcircumflex" unicode="&#x11d;" horiz-adv-x="516" 
d="M428 -27q-17 -93 -79 -136t-166 -43q-26 0 -54 5.5t-53.5 16t-47 26t-35.5 34.5l85 80q10 -13 24 -21.5t29.5 -14t30.5 -8t26 -2.5q41 0 73 19t43 68l12 51q-51 -29 -89.5 -37t-63.5 -8q-70 0 -100 34.5t-30 93.5q0 13 1.5 26.5t3.5 28.5l22 128q17 102 77 145.5
t155 43.5q35 0 95 -11.5t128 -50.5zM166 198q-3 -14 -3 -25q0 -28 15 -39t36 -11q24 0 57 12t68 34l37 195q-23 12 -52 18t-52 6q-31 0 -53.5 -17.5t-29.5 -53.5zM352 640l-165 -109l-43 49l175 153h87l116 -153l-53 -43z" />
    <glyph glyph-name="Gbreve" unicode="&#x11e;" horiz-adv-x="609" 
d="M528 79q-30 -26 -61 -43t-62.5 -26.5t-62 -13t-57.5 -3.5q-46 0 -86.5 14t-71 41t-48.5 65.5t-18 86.5q0 13 1 26t4 27l44 222q11 56 38 97.5t65.5 69t85 41t96.5 13.5q30 0 61.5 -4t60.5 -12.5t54 -21.5t42 -30l-80 -106q-26 27 -63 37.5t-72 10.5q-25 0 -49.5 -6.5
t-46 -21.5t-37.5 -39t-23 -58l-38 -187q-4 -19 -4 -38q0 -52 30.5 -76.5t75.5 -24.5q20 0 45 5.5t51 24.5l23 113h-101l23 122h238zM421 734q-42 0 -68 15.5t-40.5 38t-19 49t-2.5 48.5h91q-2 -11 -0.5 -22.5t7.5 -21.5t15.5 -16t24.5 -6q16 0 29 6.5t22.5 16.5t15 21.5
t7.5 21.5h92q-6 -23 -18 -49.5t-32.5 -49t-51 -37.5t-72.5 -15z" />
    <glyph glyph-name="gbreve" unicode="&#x11f;" horiz-adv-x="516" 
d="M428 -27q-17 -93 -79 -136t-166 -43q-26 0 -54 5.5t-53.5 16t-47 26t-35.5 34.5l85 80q10 -13 24 -21.5t29.5 -14t30.5 -8t26 -2.5q41 0 73 19t43 68l12 51q-51 -29 -89.5 -37t-63.5 -8q-70 0 -100 34.5t-30 93.5q0 13 1.5 26.5t3.5 28.5l22 128q17 102 77 145.5
t155 43.5q35 0 95 -11.5t128 -50.5zM166 198q-3 -14 -3 -25q0 -28 15 -39t36 -11q24 0 57 12t68 34l37 195q-23 12 -52 18t-52 6q-31 0 -53.5 -17.5t-29.5 -53.5zM329 564q-41 0 -67.5 14.5t-41.5 36.5t-19.5 49t-2.5 53h91q-2 -10 -0.5 -21.5t7.5 -22t16 -17.5t26 -7
q15 0 28 6.5t22.5 17t15.5 22t8 22.5h92q-5 -23 -17.5 -49.5t-33.5 -49.5t-51.5 -38.5t-72.5 -15.5z" />
    <glyph glyph-name="Gdotaccent" unicode="&#x120;" horiz-adv-x="609" 
d="M528 79q-30 -26 -61 -43t-62.5 -26.5t-62 -13t-57.5 -3.5q-46 0 -86.5 14t-71 41t-48.5 65.5t-18 86.5q0 13 1 26t4 27l44 222q11 56 38 97.5t65.5 69t85 41t96.5 13.5q30 0 61.5 -4t60.5 -12.5t54 -21.5t42 -30l-80 -106q-26 27 -63 37.5t-72 10.5q-25 0 -49.5 -6.5
t-46 -21.5t-37.5 -39t-23 -58l-38 -187q-4 -19 -4 -38q0 -52 30.5 -76.5t75.5 -24.5q20 0 45 5.5t51 24.5l23 113h-101l23 122h238zM406 732q-30 0 -47.5 20.5t-12.5 50.5q5 31 30 52.5t56 21.5q29 0 46.5 -19t12.5 -50q-2 -15 -9.5 -29t-19 -24.5t-26 -16.5t-30.5 -6z" />
    <glyph glyph-name="gdotaccent" unicode="&#x121;" horiz-adv-x="516" 
d="M428 -27q-17 -93 -79 -136t-166 -43q-26 0 -54 5.5t-53.5 16t-47 26t-35.5 34.5l85 80q10 -13 24 -21.5t29.5 -14t30.5 -8t26 -2.5q41 0 73 19t43 68l12 51q-51 -29 -89.5 -37t-63.5 -8q-70 0 -100 34.5t-30 93.5q0 13 1.5 26.5t3.5 28.5l22 128q17 102 77 145.5
t155 43.5q35 0 95 -11.5t128 -50.5zM166 198q-3 -14 -3 -25q0 -28 15 -39t36 -11q24 0 57 12t68 34l37 195q-23 12 -52 18t-52 6q-31 0 -53.5 -17.5t-29.5 -53.5zM331 563q-30 0 -47.5 20.5t-12.5 50.5q5 31 30 52.5t56 21.5q29 0 46.5 -19t12.5 -50q-2 -15 -9.5 -29
t-19 -24.5t-26 -16.5t-30.5 -6z" />
    <glyph glyph-name="Gcommaaccent" unicode="&#x122;" horiz-adv-x="609" 
d="M528 79q-30 -26 -61 -43t-62.5 -26.5t-62 -13t-57.5 -3.5q-46 0 -86.5 14t-71 41t-48.5 65.5t-18 86.5q0 13 1 26t4 27l44 222q11 56 38 97.5t65.5 69t85 41t96.5 13.5q30 0 61.5 -4t60.5 -12.5t54 -21.5t42 -30l-80 -106q-26 27 -63 37.5t-72 10.5q-25 0 -49.5 -6.5
t-46 -21.5t-37.5 -39t-23 -58l-38 -187q-4 -19 -4 -38q0 -52 30.5 -76.5t75.5 -24.5q20 0 45 5.5t51 24.5l23 113h-101l23 122h238zM147 -263q31 15 49.5 32t26.5 40q-18 4 -30.5 22t-12.5 40q0 36 24.5 62t64.5 26q34 0 54.5 -22.5t20.5 -59.5q0 -58 -44.5 -110t-120.5 -84
z" />
    <glyph glyph-name="gcommaaccent" unicode="&#x123;" horiz-adv-x="516" 
d="M459 769q-30 -15 -49 -32t-27 -40q19 -4 31 -22.5t12 -40.5q0 -35 -24 -61t-65 -26q-33 0 -54.5 22.5t-21.5 58.5q0 58 44.5 110.5t122.5 85.5zM428 -27q-17 -93 -79 -136t-166 -43q-26 0 -54 5.5t-53.5 16t-47 26t-35.5 34.5l85 80q10 -13 24 -21.5t29.5 -14t30.5 -8
t26 -2.5q41 0 73 19t43 68l12 51q-51 -29 -89.5 -37t-63.5 -8q-70 0 -100 34.5t-30 93.5q0 13 1.5 26.5t3.5 28.5l22 128q17 102 77 145.5t155 43.5q35 0 95 -11.5t128 -50.5zM166 198q-3 -14 -3 -25q0 -28 15 -39t36 -11q24 0 57 12t68 34l37 195q-23 12 -52 18t-52 6
q-31 0 -53.5 -17.5t-29.5 -53.5z" />
    <glyph glyph-name="Hcircumflex" unicode="&#x124;" horiz-adv-x="631" 
d="M409 0l56 288h-254l-56 -288h-137l134 689h137l-54 -277h254l54 277h139l-134 -689h-139zM438 812l-167 -81l-32 52l173 123h84l124 -123l-54 -52z" />
    <glyph glyph-name="hcircumflex" unicode="&#x125;" horiz-adv-x="529" 
d="M317 0l59 305q3 13 3 23q0 29 -16 40.5t-37 11.5q-24 0 -53.5 -10t-71.5 -36l-65 -334h-127l140 716h127l-52 -264q59 34 97 41.5t63 7.5q68 0 99 -33.5t31 -91.5q0 -25 -6 -55l-62 -321h-129zM234 812l-167 -81l-32 52l173 123h84l124 -123l-54 -52z" />
    <glyph glyph-name="Hbar" unicode="&#x126;" horiz-adv-x="631" 
d="M409 0l56 288h-254l-56 -288h-137l100 515h-45l16 82h45l18 92h137l-18 -92h254l18 92h139l-18 -92h42l-16 -82h-42l-100 -515h-139zM489 412l20 103h-254l-20 -103h254z" />
    <glyph glyph-name="hbar" unicode="&#x127;" horiz-adv-x="529" 
d="M81 638h53l15 78h127l-16 -78h181l-16 -81h-181l-20 -105q59 34 97 41.5t63 7.5q68 0 99 -33.5t31 -91.5q0 -25 -6 -55l-62 -321h-129l59 305q3 13 3 23q0 29 -16 40.5t-37 11.5q-24 0 -53.5 -10t-71.5 -36l-65 -334h-127l109 557h-53z" />
    <glyph glyph-name="Itilde" unicode="&#x128;" horiz-adv-x="295" 
d="M311 689l-134 -689h-137l134 689h137zM209 879q19 0 35 -7t30 -15.5t26 -15t23 -6.5q16 0 32 9.5t39 35.5l12 -8t19.5 -13.5t20 -13.5t12.5 -8q-31 -57 -63.5 -79.5t-66.5 -22.5q-19 0 -35 6t-30.5 13.5t-27.5 13.5t-27 6q-17 0 -32.5 -8t-41.5 -35l-63 45q32 51 65 77
t73 26z" />
    <glyph glyph-name="itilde" unicode="&#x129;" horiz-adv-x="337" 
d="M295 496l-61 -312q-2 -11 -3.5 -19.5t-0.5 -15.5q0 -23 12 -31.5t38 -10.5l-24 -109h-25q-63 0 -99 27t-36 85q0 21 4 41l66 345h129zM190 713q19 0 35 -7t30 -15.5t26 -15t23 -6.5q16 0 32 9.5t39 35.5l12 -8t19.5 -13.5t20 -13.5t12.5 -8q-31 -57 -63.5 -79.5
t-66.5 -22.5q-19 0 -35 6t-30.5 13.5t-27.5 13.5t-27 6q-17 0 -32.5 -8t-41.5 -35l-63 45q32 51 65 77t73 26z" />
    <glyph glyph-name="Imacron" unicode="&#x12a;" horiz-adv-x="295" 
d="M311 689l-134 -689h-137l134 689h137zM101 761l20 105h312l-21 -105h-311z" />
    <glyph glyph-name="imacron" unicode="&#x12b;" horiz-adv-x="337" 
d="M276 496l-61 -312q-2 -11 -3.5 -19.5t-0.5 -15.5q0 -23 12 -31.5t38 -10.5l-24 -109h-25q-63 0 -99 27t-36 85q0 21 4 41l66 345h129zM71 585l21 104h312l-21 -104h-312z" />
    <glyph glyph-name="Ibreve" unicode="&#x12c;" horiz-adv-x="295" 
d="M247 734q-42 0 -68 15.5t-40.5 38t-19 49t-2.5 48.5h91q-2 -11 -0.5 -22.5t7.5 -21.5t15.5 -16t24.5 -6q16 0 29 6.5t22.5 16.5t15 21.5t7.5 21.5h92q-6 -23 -18 -49.5t-32.5 -49t-51 -37.5t-72.5 -15zM311 689l-134 -689h-137l134 689h137z" />
    <glyph glyph-name="ibreve" unicode="&#x12d;" horiz-adv-x="327" 
d="M292 496l-61 -312q-2 -11 -3.5 -19.5t-0.5 -15.5q0 -23 12 -31.5t38 -10.5l-24 -109h-25q-63 0 -99 27t-36 85q0 21 4 41l66 345h129zM234 570q-41 0 -67.5 14.5t-41.5 36.5t-19.5 49t-2.5 53h91q-2 -10 -0.5 -21.5t7.5 -22t16 -17.5t26 -7q15 0 28 6.5t22.5 17t15.5 22
t8 22.5h92q-5 -23 -17.5 -49.5t-33.5 -49.5t-51.5 -38.5t-72.5 -15.5z" />
    <glyph glyph-name="Iogonek" unicode="&#x12e;" horiz-adv-x="295" 
d="M6 -105q3 21 15 46t44 59h-25l134 689h137l-134 -689h-29q-53 -59 -57 -90q-3 -28 31 -28q11 0 26.5 3t37.5 13l15 -66q-27 -15 -55.5 -21t-54.5 -6q-44 0 -67 26t-18 64z" />
    <glyph glyph-name="iogonek" unicode="&#x12f;" horiz-adv-x="287" 
d="M71 -106q3 22 16 48.5t48 61.5q-38 10 -59.5 35.5t-21.5 70.5q0 21 4 41l67 344h127l-61 -311l-3.5 -21t-1.5 -17q0 -22 12 -29.5t40 -9.5l-24 -109h-2q-27 -29 -40.5 -50.5t-15.5 -38.5q-3 -28 31 -28q11 0 26.5 3t37.5 13l15 -66q-27 -15 -55.5 -21t-54.5 -6
q-44 0 -67 26t-18 64zM142 628q6 30 29.5 51t53.5 21q26 0 43.5 -16.5t17.5 -42.5q0 -17 -7 -32.5t-19 -27t-27 -18t-31 -6.5q-26 0 -43.5 16t-17.5 42v6.5t1 6.5z" />
    <glyph glyph-name="Idotaccent" unicode="&#x130;" horiz-adv-x="295" 
d="M311 689l-134 -689h-137l134 689h137zM252 732q-30 0 -47.5 20.5t-12.5 50.5q5 31 30 52.5t56 21.5q29 0 46.5 -19t12.5 -50q-2 -15 -9.5 -29t-19 -24.5t-26 -16.5t-30.5 -6z" />
    <glyph glyph-name="dotlessi" unicode="&#x131;" horiz-adv-x="287" 
d="M253 496l-61 -312q-2 -11 -3.5 -19.5t-0.5 -15.5q0 -23 12 -31.5t38 -10.5l-24 -109h-25q-63 0 -99 27t-36 85q0 21 4 41l66 345h129z" />
    <glyph glyph-name="IJ" unicode="&#x132;" horiz-adv-x="803" 
d="M311 689l-134 -689h-137l134 689h137zM728 216q-21 -112 -88.5 -167.5t-186.5 -55.5q-28 0 -57.5 4.5t-57 12.5t-51 20.5t-39.5 28.5l78 105q29 -25 64 -34t65 -9q53 0 90.5 28.5t51.5 99.5l86 440h138z" />
    <glyph glyph-name="ij" unicode="&#x133;" horiz-adv-x="525" 
d="M142 628q6 30 29.5 51t53.5 21q26 0 43.5 -16.5t17.5 -42.5q0 -17 -7 -32.5t-19 -27t-27 -18t-31 -6.5q-26 0 -43.5 16t-17.5 42v6.5t1 6.5zM252 495l-61 -311l-3.5 -21t-1.5 -17q0 -22 12 -29.5t40 -9.5l-24 -109h-25q-63 0 -99 27t-36 85q0 21 4 41l67 344h127z
M406 -45q-6 -32 -16 -62.5t-28 -54t-47.5 -37.5t-75.5 -14q-16 0 -34.5 1.5t-38.5 5.5l22 120q5 -1 10 -1h10q36 0 52.5 15t21.5 44l100 523h127zM484 700q26 0 43 -16.5t17 -40.5q0 -17 -7.5 -32.5t-20 -27t-28.5 -18.5t-32 -7q-26 0 -42.5 16t-16.5 41q0 17 7.5 32.5
t20 27t28 18.5t31.5 7z" />
    <glyph glyph-name="Jcircumflex" unicode="&#x134;" horiz-adv-x="536" 
d="M461 217q-21 -112 -88.5 -167.5t-186.5 -55.5q-28 0 -57.5 4.5t-57 12.5t-51 20.5t-39.5 28.5l78 105q29 -25 64 -34t65 -9q53 0 90.5 28.5t51.5 99.5l86 440h138zM510 814l-167 -81l-32 52l173 123h84l124 -123l-54 -52z" />
    <glyph glyph-name="jcircumflex" unicode="&#x135;" horiz-adv-x="363" 
d="M272 640l-165 -106l-40 45l177 154h87l117 -153l-59 -46zM203 -45q-6 -32 -15.5 -62.5t-28 -54t-48 -37.5t-75.5 -14q-16 0 -34.5 1.5t-38.5 5.5l22 120q5 -1 10 -1h10q36 0 52.5 15t21.5 44l100 523h127z" />
    <glyph glyph-name="Kcommaaccent" unicode="&#x136;" horiz-adv-x="611" 
d="M315 313l-126 -120l-37 -193h-137l134 689h137l-59 -301l310 301h163l-283 -278l164 -411h-150zM155 -246q31 15 49.5 32t26.5 40q-18 4 -30.5 22t-12.5 40q0 36 24.5 62t64.5 26q34 0 54.5 -22.5t20.5 -59.5q0 -58 -44.5 -110t-120.5 -84z" />
    <glyph glyph-name="kcommaaccent" unicode="&#x137;" horiz-adv-x="502" 
d="M14 0l134 716h127l-70 -368h39q27 0 49 11.5t40 44.5l50 91h146l-71 -123q-17 -29 -37.5 -52t-52.5 -34q19 -7 30.5 -18t17.5 -24.5t9 -29.5t5 -32l26 -182h-131l-19 161q-5 37 -20 52.5t-53 15.5h-50l-43 -229h-126zM94 -263q31 15 49.5 32t26.5 40q-18 4 -30.5 22
t-12.5 40q0 36 24.5 62t64.5 26q34 0 54.5 -22.5t20.5 -59.5q0 -58 -44.5 -110t-120.5 -84z" />
    <glyph glyph-name="kgreenlandic" unicode="&#x138;" horiz-adv-x="514" 
d="M523 495l-66 -145q-18 -36 -39.5 -59t-53.5 -35q34 -12 45 -36t17 -61l25 -159h-132l-16 135q-5 45 -26.5 57t-56.5 12h-49l-36 -204h-125l91 495h126l-35 -178h48q31 0 53.5 12.5t42.5 53.5l53 112h134z" />
    <glyph glyph-name="Lacute" unicode="&#x139;" horiz-adv-x="557" 
d="M22 0l134 689h136l-111 -567h342l-24 -122h-477zM196 784l190 137l72 -86l-221 -108z" />
    <glyph glyph-name="lacute" unicode="&#x13a;" horiz-adv-x="274" 
d="M180 -1q-72 0 -103.5 25.5t-31.5 79.5q0 23 6 52l108 560h126l-106 -554q-1 -5 -1.5 -9.5t-0.5 -9.5q0 -19 13.5 -25.5t48.5 -7.5l-21 -111h-38zM194 798l190 137l72 -86l-221 -108z" />
    <glyph glyph-name="Lcommaaccent" unicode="&#x13b;" horiz-adv-x="557" 
d="M22 0l134 689h136l-111 -567h342l-24 -122h-477zM116 -263q31 15 49.5 32t26.5 40q-18 4 -30.5 22t-12.5 40q0 36 24.5 62t64.5 26q34 0 54.5 -22.5t20.5 -59.5q0 -58 -44.5 -110t-120.5 -84z" />
    <glyph glyph-name="lcommaaccent" unicode="&#x13c;" horiz-adv-x="274" 
d="M180 -1q-72 0 -103.5 25.5t-31.5 79.5q0 23 6 52l108 560h126l-106 -554q-1 -5 -1.5 -9.5t-0.5 -9.5q0 -19 13.5 -25.5t48.5 -7.5l-21 -111h-38zM-20 -260q31 15 49.5 32t26.5 40q-18 4 -30.5 22t-12.5 40q0 36 24.5 62t64.5 26q34 0 54.5 -22.5t20.5 -59.5
q0 -58 -44.5 -110t-120.5 -84z" />
    <glyph glyph-name="Lcaron" unicode="&#x13d;" horiz-adv-x="557" 
d="M22 0l134 689h136l-111 -567h342l-24 -122h-477zM331 471q31 15 49.5 32t26.5 40q-18 4 -30.5 22t-12.5 40q0 36 24.5 62t64.5 26q34 0 54.5 -22.5t20.5 -59.5q0 -58 -44.5 -110t-120.5 -84z" />
    <glyph glyph-name="lcaron" unicode="&#x13e;" horiz-adv-x="404" 
d="M290 499q31 15 49.5 32t26.5 40q-18 4 -30.5 22t-12.5 40q0 36 24.5 62t64.5 26q34 0 54.5 -22.5t20.5 -59.5q0 -58 -44.5 -110t-120.5 -84zM180 -1q-72 0 -103.5 25.5t-31.5 79.5q0 23 6 52l108 560h126l-106 -554q-1 -5 -1.5 -9.5t-0.5 -9.5q0 -19 13.5 -25.5
t48.5 -7.5l-21 -111h-38z" />
    <glyph glyph-name="Ldot" unicode="&#x13f;" horiz-adv-x="557" 
d="M22 0l134 689h136l-111 -567h342l-24 -122h-477zM382 291q-30 0 -47.5 20.5t-12.5 50.5q5 31 30 52.5t56 21.5q29 0 46.5 -19t12.5 -50q-2 -15 -9.5 -29t-19 -24.5t-26 -16.5t-30.5 -6z" />
    <glyph glyph-name="ldot" unicode="&#x140;" horiz-adv-x="401" 
d="M338 304q-30 0 -47.5 20.5t-12.5 50.5q5 31 30 52.5t56 21.5q29 0 46.5 -19t12.5 -50q-2 -15 -9.5 -29t-19 -24.5t-26 -16.5t-30.5 -6zM180 -1q-72 0 -103.5 25.5t-31.5 79.5q0 23 6 52l108 560h126l-106 -554q-1 -5 -1.5 -9.5t-0.5 -9.5q0 -19 13.5 -25.5t48.5 -7.5
l-21 -111h-38z" />
    <glyph glyph-name="Lslash" unicode="&#x141;" horiz-adv-x="569" 
d="M34 0l40 209l-49 -26l-29 78l98 52l74 376h136l-58 -297l127 67l30 -78l-178 -93l-32 -166h342l-24 -122h-477z" />
    <glyph glyph-name="lslash" unicode="&#x142;" horiz-adv-x="318" 
d="M199 -1q-72 0 -103.5 25.5t-31.5 79.5q0 23 6 52l21 108q-14 -7 -27 -14t-27 -15l-28 77q26 14 51 28t51 28l67 348h126l-52 -271l58 32l16 -38t16 -39l-110 -60l-34 -178q-1 -5 -1.5 -9.5t-0.5 -9.5q0 -19 13.5 -25.5t48.5 -7.5l-21 -111h-38z" />
    <glyph glyph-name="Nacute" unicode="&#x143;" horiz-adv-x="675" 
d="M485 248q22 111 43 220.5t42 220.5h135l-132 -689h-124q-12 25 -28.5 61t-35.5 76.5t-39.5 83.5t-39 83.5t-34.5 75t-27 58.5l-90 -438h-136l132 689h125q11 -23 28 -57.5t36 -75.5t39 -85.5t39 -86t35.5 -77t27.5 -59.5h4zM367 784l190 137l72 -86l-221 -108z" />
    <glyph glyph-name="nacute" unicode="&#x144;" horiz-adv-x="529" 
d="M317 0l59 305q3 13 3 24q0 29 -15 40t-38 11q-24 0 -53 -10t-72 -36l-65 -334h-127l97 494h116l2 -42q31 17 55.5 26.5t43.5 14.5t34 6.5t27 1.5q68 0 99 -33t31 -91q0 -24 -6 -54l-62 -323h-129zM246 568l118 195l109 -37l-160 -185z" />
    <glyph glyph-name="Ncommaaccent" unicode="&#x145;" horiz-adv-x="675" 
d="M485 248q22 111 43 220.5t42 220.5h135l-132 -689h-124q-12 25 -28.5 61t-35.5 76.5t-39.5 83.5t-39 83.5t-34.5 75t-27 58.5l-90 -438h-136l132 689h125q11 -23 28 -57.5t36 -75.5t39 -85.5t39 -86t35.5 -77t27.5 -59.5h4zM181 -243q31 15 49.5 32t26.5 40
q-18 4 -30.5 22t-12.5 40q0 36 24.5 62t64.5 26q34 0 54.5 -22.5t20.5 -59.5q0 -58 -44.5 -110t-120.5 -84z" />
    <glyph glyph-name="ncommaaccent" unicode="&#x146;" horiz-adv-x="529" 
d="M317 0l59 305q3 13 3 24q0 29 -15 40t-38 11q-24 0 -53 -10t-72 -36l-65 -334h-127l97 494h116l2 -42q31 17 55.5 26.5t43.5 14.5t34 6.5t27 1.5q68 0 99 -33t31 -91q0 -24 -6 -54l-62 -323h-129zM97 -263q31 15 49.5 32t26.5 40q-18 4 -30.5 22t-12.5 40q0 36 24.5 62
t64.5 26q34 0 54.5 -22.5t20.5 -59.5q0 -58 -44.5 -110t-120.5 -84z" />
    <glyph glyph-name="Ncaron" unicode="&#x147;" horiz-adv-x="675" 
d="M485 248q22 111 43 220.5t42 220.5h135l-132 -689h-124q-12 25 -28.5 61t-35.5 76.5t-39.5 83.5t-39 83.5t-34.5 75t-27 58.5l-90 -438h-136l132 689h125q11 -23 28 -57.5t36 -75.5t39 -85.5t39 -86t35.5 -77t27.5 -59.5h4zM607 908l34 -52l-175 -124h-84l-122 123l52 51
l129 -80z" />
    <glyph glyph-name="ncaron" unicode="&#x148;" horiz-adv-x="529" 
d="M317 0l59 305q3 13 3 24q0 29 -15 40t-38 11q-24 0 -53 -10t-72 -36l-65 -334h-127l97 494h116l2 -42q31 17 55.5 26.5t43.5 14.5t34 6.5t27 1.5q68 0 99 -33t31 -91q0 -24 -6 -54l-62 -323h-129zM496 736l42 -46l-176 -153h-87l-118 154l57 45q10 -8 26 -22.5t32.5 -30
t32 -30t26.5 -23.5z" />
    <glyph glyph-name="napostrophe" unicode="&#x149;" horiz-adv-x="662" 
d="M450 0l59 305q3 13 3 24q0 29 -15 40t-38 11q-24 0 -53 -10t-72 -36l-65 -334h-127l97 494h116l2 -42q31 17 55.5 26.5t43.5 14.5t34 6.5t27 1.5q68 0 99 -33t31 -91q0 -24 -6 -54l-62 -323h-129zM37 464q31 15 49.5 32t26.5 40q-18 4 -30.5 22t-12.5 40q0 36 24.5 62
t64.5 26q34 0 54.5 -22.5t20.5 -59.5q0 -58 -44.5 -110t-120.5 -84z" />
    <glyph glyph-name="Eng" unicode="&#x14a;" horiz-adv-x="675" 
d="M237 434l-84 -434h-136l134 689h124l114 -236l92 -200h4l85 436h137l-151 -771q-13 -64 -50 -90t-88 -26q-28 0 -55.5 6t-50.5 17l36 100q23 -5 37 -5q21 0 34 10.5t18 35.5l8 40l-122 254l-80 174h-6z" />
    <glyph glyph-name="eng" unicode="&#x14b;" horiz-adv-x="529" 
d="M430 -82q-13 -64 -50.5 -90t-88.5 -26q-27 0 -54 6t-51 17l35 100q11 -2 20 -3.5t17 -1.5q22 0 35 10.5t18 35.5l65 339q3 13 3 24q0 29 -15 40t-38 11t-53 -10.5t-72 -33.5l-65 -336h-127l96 494h113l2 -43q62 34 102.5 42t65.5 8q67 0 97 -32t30 -89q0 -27 -6 -57
l-79 -405v0z" />
    <glyph glyph-name="Omacron" unicode="&#x14c;" horiz-adv-x="635" 
d="M589 214q-21 -110 -92.5 -165t-191.5 -55q-45 0 -88.5 13.5t-77 40.5t-54.5 67.5t-21 94.5q0 27 6 57l40 208q10 55 35 96.5t61 69t82 41.5t99 14q47 0 92 -14t79.5 -40.5t55.5 -66t21 -90.5q0 -11 -1.5 -23t-3.5 -24zM494 436q3 15 3 28q0 27 -10 46.5t-26 33t-36 20
t-41 6.5q-53 0 -91.5 -28.5t-51.5 -96.5l-37 -192q-3 -18 -3 -33q0 -27 9.5 -46.5t25.5 -31.5t36 -17.5t40 -5.5q58 0 95 31t50 98zM276 761l20 105h312l-21 -105h-311z" />
    <glyph glyph-name="omacron" unicode="&#x14d;" horiz-adv-x="521" 
d="M473 174q-18 -92 -77 -135.5t-159 -43.5q-38 0 -73 11t-61.5 33.5t-42.5 55.5t-16 77q0 11 1 22t3 23l19 102q17 92 76 137t153 45q45 0 82.5 -13t63.5 -36.5t40.5 -56t14.5 -72.5q0 -23 -4 -43zM367 281q3 13 3 25q0 39 -24.5 58.5t-56.5 19.5q-35 0 -60.5 -19.5
t-35.5 -67.5l-18 -89q-3 -14 -3 -24q0 -20 7.5 -33.5t19 -22t25.5 -12.5t28 -4q38 0 63 19t35 68zM173 585l21 104h312l-21 -104h-312z" />
    <glyph glyph-name="Obreve" unicode="&#x14e;" horiz-adv-x="635" 
d="M589 214q-21 -110 -92.5 -165t-191.5 -55q-45 0 -88.5 13.5t-77 40.5t-54.5 67.5t-21 94.5q0 27 6 57l40 208q10 55 35 96.5t61 69t82 41.5t99 14q47 0 92 -14t79.5 -40.5t55.5 -66t21 -90.5q0 -11 -1.5 -23t-3.5 -24zM494 436q3 15 3 28q0 27 -10 46.5t-26 33t-36 20
t-41 6.5q-53 0 -91.5 -28.5t-51.5 -96.5l-37 -192q-3 -18 -3 -33q0 -27 9.5 -46.5t25.5 -31.5t36 -17.5t40 -5.5q58 0 95 31t50 98zM420 734q-42 0 -68 15.5t-40.5 38t-19 49t-2.5 48.5h91q-2 -11 -0.5 -22.5t7.5 -21.5t15.5 -16t24.5 -6q16 0 29 6.5t22.5 16.5t15 21.5
t7.5 21.5h92q-6 -23 -18 -49.5t-32.5 -49t-51 -37.5t-72.5 -15z" />
    <glyph glyph-name="obreve" unicode="&#x14f;" horiz-adv-x="521" 
d="M473 174q-18 -92 -77 -135.5t-159 -43.5q-38 0 -73 11t-61.5 33.5t-42.5 55.5t-16 77q0 11 1 22t3 23l19 102q17 92 76 137t153 45q45 0 82.5 -13t63.5 -36.5t40.5 -56t14.5 -72.5q0 -23 -4 -43zM367 281q3 13 3 25q0 39 -24.5 58.5t-56.5 19.5q-35 0 -60.5 -19.5
t-35.5 -67.5l-18 -89q-3 -14 -3 -24q0 -20 7.5 -33.5t19 -22t25.5 -12.5t28 -4q38 0 63 19t35 68zM328 564q-41 0 -67.5 14.5t-41.5 36.5t-19.5 49t-2.5 53h91q-2 -10 -0.5 -21.5t7.5 -22t16 -17.5t26 -7q15 0 28 6.5t22.5 17t15.5 22t8 22.5h92q-5 -23 -17.5 -49.5
t-33.5 -49.5t-51.5 -38.5t-72.5 -15.5z" />
    <glyph glyph-name="Ohungarumlaut" unicode="&#x150;" horiz-adv-x="635" 
d="M589 214q-21 -110 -92.5 -165t-191.5 -55q-45 0 -88.5 13.5t-77 40.5t-54.5 67.5t-21 94.5q0 27 6 57l40 208q10 55 35 96.5t61 69t82 41.5t99 14q47 0 92 -14t79.5 -40.5t55.5 -66t21 -90.5q0 -11 -1.5 -23t-3.5 -24zM494 436q3 15 3 28q0 27 -10 46.5t-26 33t-36 20
t-41 6.5q-53 0 -91.5 -28.5t-51.5 -96.5l-37 -192q-3 -18 -3 -33q0 -27 9.5 -46.5t25.5 -31.5t36 -17.5t40 -5.5q58 0 95 31t50 98zM253 783l175 141l78 -83l-206 -113zM453 783l185 141l73 -83l-212 -113z" />
    <glyph glyph-name="ohungarumlaut" unicode="&#x151;" horiz-adv-x="521" 
d="M473 174q-18 -92 -77 -135.5t-159 -43.5q-38 0 -73 11t-61.5 33.5t-42.5 55.5t-16 77q0 11 1 22t3 23l19 102q17 92 76 137t153 45q45 0 82.5 -13t63.5 -36.5t40.5 -56t14.5 -72.5q0 -23 -4 -43zM367 281q3 13 3 25q0 39 -24.5 58.5t-56.5 19.5q-35 0 -60.5 -19.5
t-35.5 -67.5l-18 -89q-3 -14 -3 -24q0 -20 7.5 -33.5t19 -22t25.5 -12.5t28 -4q38 0 63 19t35 68zM352 568l119 195l108 -37l-159 -185zM182 568l118 195l109 -37l-159 -185z" />
    <glyph glyph-name="Racute" unicode="&#x154;" horiz-adv-x="594" 
d="M449 689q44 0 76 -15t53 -40t31.5 -57t10.5 -66q0 -29 -7 -61t-24.5 -63t-47 -58.5t-74.5 -46.5q4 -18 13.5 -57.5t20.5 -83.5t20.5 -83.5t14.5 -57.5h-147l-56 259h-127l-50 -259h-137l133 689h297zM230 383h139q53 0 84.5 31.5t31.5 78.5q0 32 -19.5 52.5t-60.5 20.5
h-139zM312 784l190 137l72 -86l-221 -108z" />
    <glyph glyph-name="racute" unicode="&#x155;" horiz-adv-x="376" 
d="M400 370q-67 -8 -112.5 -21t-83.5 -34l-61 -315h-127l96 496h116l-4 -72h1q16 13 39 26.5t49.5 25t54.5 19t54 7.5zM198 568l118 195l109 -37l-160 -185z" />
    <glyph glyph-name="Rcommaaccent" unicode="&#x156;" horiz-adv-x="594" 
d="M449 689q44 0 76 -15t53 -40t31.5 -57t10.5 -66q0 -29 -7 -61t-24.5 -63t-47 -58.5t-74.5 -46.5q4 -18 13.5 -57.5t20.5 -83.5t20.5 -83.5t14.5 -57.5h-147l-56 259h-127l-50 -259h-137l133 689h297zM230 383h139q53 0 84.5 31.5t31.5 78.5q0 32 -19.5 52.5t-60.5 20.5
h-139zM146 -243q31 15 49.5 32t26.5 40q-18 4 -30.5 22t-12.5 40q0 36 24.5 62t64.5 26q34 0 54.5 -22.5t20.5 -59.5q0 -58 -44.5 -110t-120.5 -84z" />
    <glyph glyph-name="rcommaaccent" unicode="&#x157;" horiz-adv-x="376" 
d="M400 370q-67 -8 -112.5 -21t-83.5 -34l-61 -315h-127l96 496h116l-4 -72h1q16 13 39 26.5t49.5 25t54.5 19t54 7.5zM-58 -263q31 15 49.5 32t26.5 40q-18 4 -30.5 22t-12.5 40q0 36 24.5 62t64.5 26q34 0 54.5 -22.5t20.5 -59.5q0 -58 -44.5 -110t-120.5 -84z" />
    <glyph glyph-name="Rcaron" unicode="&#x158;" horiz-adv-x="594" 
d="M449 689q44 0 76 -15t53 -40t31.5 -57t10.5 -66q0 -29 -7 -61t-24.5 -63t-47 -58.5t-74.5 -46.5q4 -18 13.5 -57.5t20.5 -83.5t20.5 -83.5t14.5 -57.5h-147l-56 259h-127l-50 -259h-137l133 689h297zM230 383h139q53 0 84.5 31.5t31.5 78.5q0 32 -19.5 52.5t-60.5 20.5
h-139zM562 908l34 -52l-175 -124h-84l-122 123l52 51l129 -80z" />
    <glyph glyph-name="rcaron" unicode="&#x159;" horiz-adv-x="376" 
d="M400 370q-67 -8 -112.5 -21t-83.5 -34l-61 -315h-127l96 496h116l-4 -72h1q16 13 39 26.5t49.5 25t54.5 19t54 7.5zM432 736l42 -46l-176 -153h-87l-118 154l57 45q10 -8 26 -22.5t32.5 -30t32 -30t26.5 -23.5z" />
    <glyph glyph-name="Sacute" unicode="&#x15a;" horiz-adv-x="583" 
d="M365 701q63 0 123.5 -12t111.5 -50l-67 -112q-39 29 -81.5 40t-84.5 11q-21 0 -43 -5t-40 -15.5t-30 -27.5t-12 -42q0 -18 9.5 -31t27 -22.5t41 -17t51.5 -14.5q100 -25 144.5 -68t44.5 -116q0 -51 -23 -92.5t-63 -71t-92.5 -45t-111.5 -15.5q-75 0 -141 21.5t-117 74.5
q2 2 15 16.5t28 32t27.5 32t15.5 17.5q36 -34 81.5 -51t94.5 -17q37 0 63 8.5t43 21.5t25 29t8 31q0 18 -10.5 30.5t-29 22.5t-43.5 18t-54 16q-35 10 -67 23.5t-56 34t-38 49.5t-14 69q0 54 21 96t57 71t84 44.5t102 15.5zM311 784l190 137l72 -86l-221 -108z" />
    <glyph glyph-name="sacute" unicode="&#x15b;" horiz-adv-x="467" 
d="M277 500q51 0 100 -12t89 -47q-17 -23 -32.5 -47t-32.5 -48q-33 26 -66 34.5t-65 8.5q-37 0 -54.5 -16t-17.5 -31q0 -17 17.5 -24.5t44 -13t57 -11.5t57 -19t44 -37t17.5 -65q0 -45 -19.5 -78.5t-51.5 -55t-73.5 -32.5t-85.5 -11q-28 0 -54 2.5t-51.5 10t-50.5 22
t-49 37.5q18 23 36.5 45t37.5 45q32 -31 66.5 -42.5t73.5 -11.5q43 0 65 18t22 38q0 16 -17 24.5t-42.5 15t-55.5 14t-55.5 21.5t-42.5 37t-17 61q0 45 19 77t48.5 52t66 29.5t72.5 9.5zM242 568l118 195l109 -37l-160 -185z" />
    <glyph glyph-name="Scircumflex" unicode="&#x15c;" horiz-adv-x="583" 
d="M365 701q63 0 123.5 -12t111.5 -50l-67 -112q-39 29 -81.5 40t-84.5 11q-21 0 -43 -5t-40 -15.5t-30 -27.5t-12 -42q0 -18 9.5 -31t27 -22.5t41 -17t51.5 -14.5q100 -25 144.5 -68t44.5 -116q0 -51 -23 -92.5t-63 -71t-92.5 -45t-111.5 -15.5q-75 0 -141 21.5t-117 74.5
q2 2 15 16.5t28 32t27.5 32t15.5 17.5q36 -34 81.5 -51t94.5 -17q37 0 63 8.5t43 21.5t25 29t8 31q0 18 -10.5 30.5t-29 22.5t-43.5 18t-54 16q-35 10 -67 23.5t-56 34t-38 49.5t-14 69q0 54 21 96t57 71t84 44.5t102 15.5zM408 812l-167 -81l-32 52l173 123h84l124 -123
l-54 -52z" />
    <glyph glyph-name="scircumflex" unicode="&#x15d;" horiz-adv-x="467" 
d="M277 500q51 0 100 -12t89 -47q-17 -23 -32.5 -47t-32.5 -48q-33 26 -66 34.5t-65 8.5q-37 0 -54.5 -16t-17.5 -31q0 -17 17.5 -24.5t44 -13t57 -11.5t57 -19t44 -37t17.5 -65q0 -45 -19.5 -78.5t-51.5 -55t-73.5 -32.5t-85.5 -11q-28 0 -54 2.5t-51.5 10t-50.5 22
t-49 37.5q18 23 36.5 45t37.5 45q32 -31 66.5 -42.5t73.5 -11.5q43 0 65 18t22 38q0 16 -17 24.5t-42.5 15t-55.5 14t-55.5 21.5t-42.5 37t-17 61q0 45 19 77t48.5 52t66 29.5t72.5 9.5zM321 640l-165 -109l-43 49l175 153h87l116 -153l-53 -43z" />
    <glyph glyph-name="Scedilla" unicode="&#x15e;" horiz-adv-x="583" 
d="M196 -74q8 18 17 35.5t18 35.5q-64 4 -119.5 26t-99.5 68q2 2 15 16.5t28 32t27.5 32t15.5 17.5q36 -34 81.5 -51t94.5 -17q37 0 63 8.5t43 21.5t25 29t8 31q0 18 -10.5 30.5t-29 22.5t-43.5 18t-54 16q-35 10 -67 23.5t-56 34t-38 49.5t-14 69q0 54 21 96t57 71t84 44.5
t102 15.5q63 0 123.5 -12t111.5 -50l-67 -112q-39 29 -81.5 40t-84.5 11q-21 0 -43 -5t-40 -15.5t-30 -27.5t-12 -42q0 -18 9.5 -31t27 -22.5t41 -17t51.5 -14.5q100 -25 144.5 -68t44.5 -116q0 -49 -21 -89t-57.5 -69t-85 -45.5t-103.5 -19.5q-5 -8 -8.5 -16.5t-7.5 -16.5
q24 -1 39.5 -8t25.5 -18t14 -24t4 -26q0 -20 -8.5 -38.5t-25.5 -33t-41.5 -23t-55.5 -8.5q-25 0 -52.5 7t-50.5 18l29 58q21 -11 39 -15t34 -4q17 0 33.5 7t16.5 26q0 8 -4.5 12.5t-11 6t-13.5 0.5t-13 -3z" />
    <glyph glyph-name="scedilla" unicode="&#x15f;" horiz-adv-x="467" 
d="M135 -74q8 18 17 35.5t18 34.5q-45 3 -87 17.5t-83 53.5q18 23 36.5 45t37.5 45q32 -31 66.5 -42.5t73.5 -11.5q43 0 65 18t22 38q0 16 -17 24.5t-42.5 15t-55.5 14t-55.5 21.5t-42.5 37t-17 61q0 45 19 77t48.5 52t66 29.5t72.5 9.5q51 0 100 -12t89 -47
q-17 -23 -32.5 -47t-32.5 -48q-33 26 -66 34.5t-65 8.5q-37 0 -54.5 -16t-17.5 -31q0 -17 17.5 -24.5t44 -13t57 -11.5t57 -19t44 -37t17.5 -65q0 -42 -16.5 -73.5t-44.5 -53t-65 -34t-77 -15.5l-16 -33q24 -1 39.5 -8t25.5 -18t14 -24t4 -26q0 -20 -8.5 -38.5t-25.5 -33
t-41.5 -23t-55.5 -8.5q-25 0 -52.5 7t-50.5 18l29 58q21 -11 39 -15t34 -4q17 0 33.5 7t16.5 26q0 8 -4.5 12.5t-11 6t-13.5 0.5t-13 -3z" />
    <glyph glyph-name="Tcommaaccent" unicode="&#x162;" horiz-adv-x="526" 
d="M410 565l-110 -565h-137l109 565h-182l24 124h502l-24 -124h-182zM98 -263q31 15 49.5 32t26.5 40q-18 4 -30.5 22t-12.5 40q0 36 24.5 62t64.5 26q34 0 54.5 -22.5t20.5 -59.5q0 -58 -44.5 -110t-120.5 -84z" />
    <glyph glyph-name="tcommaaccent" unicode="&#x163;" horiz-adv-x="374" 
d="M62 393l19 103h63l45 122h101l-24 -122h115l-19 -103h-115l-39 -208q-3 -15 -3 -28q0 -23 13 -33.5t45 -10.5q15 0 33.5 1t40.5 3l2 -105q-17 -6 -35.5 -9.5t-36.5 -5.5t-33.5 -2.5t-27.5 -0.5q-38 0 -64 7.5t-41.5 22t-22 34.5t-6.5 45q0 27 6 57l45 233h-61zM0 -263
q31 15 49.5 32t26.5 40q-18 4 -30.5 22t-12.5 40q0 36 24.5 62t64.5 26q34 0 54.5 -22.5t20.5 -59.5q0 -58 -44.5 -110t-120.5 -84z" />
    <glyph glyph-name="Tcaron" unicode="&#x164;" horiz-adv-x="526" 
d="M410 565l-110 -565h-137l109 565h-182l24 124h502l-24 -124h-182zM552 908l34 -52l-175 -124h-84l-122 123l52 51l129 -80z" />
    <glyph glyph-name="tcaron" unicode="&#x165;" horiz-adv-x="413" 
d="M336 593q31 15 49.5 32t26.5 40q-18 4 -30.5 22t-12.5 40q0 36 24.5 62t64.5 26q34 0 54.5 -22.5t20.5 -59.5q0 -58 -44.5 -110t-120.5 -84zM62 393l19 103h63l45 122h101l-24 -122h115l-19 -103h-115l-39 -208q-3 -15 -3 -28q0 -23 13 -33.5t45 -10.5q15 0 33.5 1
t40.5 3l2 -105q-17 -6 -35.5 -9.5t-36.5 -5.5t-33.5 -2.5t-27.5 -0.5q-38 0 -64 7.5t-41.5 22t-22 34.5t-6.5 45q0 27 6 57l45 233h-61z" />
    <glyph glyph-name="Tbar" unicode="&#x166;" horiz-adv-x="526" 
d="M410 565l-32 -162h159l-17 -90h-159l-61 -313h-137l60 313h-145l17 90h146l31 162h-182l24 124h502l-24 -124h-182z" />
    <glyph glyph-name="tbar" unicode="&#x167;" horiz-adv-x="374" 
d="M62 393l19 103h63l45 122h101l-24 -122h115l-19 -103h-115l-16 -82h121l-17 -81h-119l-8 -45q-3 -15 -3 -28q0 -23 13 -33.5t45 -10.5q15 0 33.5 1t40.5 3l2 -105q-17 -6 -35.5 -9.5t-36.5 -5.5t-33.5 -2.5t-27.5 -0.5q-38 0 -64 7.5t-41.5 22t-22 34.5t-6.5 45
q0 27 6 57l13 70h-59l17 81h58l16 82h-61z" />
    <glyph glyph-name="Utilde" unicode="&#x168;" horiz-adv-x="634" 
d="M589 219q-11 -56 -36.5 -98t-63 -70t-86 -42t-104.5 -14q-47 0 -90.5 12.5t-76.5 37.5t-52.5 63.5t-19.5 89.5q0 13 1 27t4 28l86 436h137l-88 -438q-3 -18 -3 -32q0 -27 9.5 -46.5t25 -32t34.5 -18t39 -5.5q24 0 48 7t45 23t36.5 41.5t22.5 62.5l85 438h139zM375 879
q19 0 35 -7t30 -15.5t26 -15t23 -6.5q16 0 32 9.5t39 35.5l12 -8t19.5 -13.5t20 -13.5t12.5 -8q-31 -57 -63.5 -79.5t-66.5 -22.5q-19 0 -35 6t-30.5 13.5t-27.5 13.5t-27 6q-17 0 -32.5 -8t-41.5 -35l-63 45q32 51 65 77t73 26z" />
    <glyph glyph-name="utilde" unicode="&#x169;" horiz-adv-x="531" 
d="M230 494l-60 -304q-1 -6 -1.5 -11.5t-0.5 -10.5q0 -29 16.5 -41t36.5 -12q24 0 53.5 11t71.5 36l65 332h128l-96 -494h-118l-2 43q-29 -17 -53 -27t-44 -15t-35.5 -6.5t-28.5 -1.5q-67 0 -97.5 36t-30.5 95q0 26 6 56l62 314h128zM285 713q19 0 35 -7t30 -15.5t26 -15
t23 -6.5q16 0 32 9.5t39 35.5l12 -8t19.5 -13.5t20 -13.5t12.5 -8q-31 -57 -63.5 -79.5t-66.5 -22.5q-19 0 -35 6t-30.5 13.5t-27.5 13.5t-27 6q-17 0 -32.5 -8t-41.5 -35l-63 45q32 51 65 77t73 26z" />
    <glyph glyph-name="Umacron" unicode="&#x16a;" horiz-adv-x="634" 
d="M589 219q-11 -56 -36.5 -98t-63 -70t-86 -42t-104.5 -14q-47 0 -90.5 12.5t-76.5 37.5t-52.5 63.5t-19.5 89.5q0 13 1 27t4 28l86 436h137l-88 -438q-3 -18 -3 -32q0 -27 9.5 -46.5t25 -32t34.5 -18t39 -5.5q24 0 48 7t45 23t36.5 41.5t22.5 62.5l85 438h139zM272 761
l20 105h312l-21 -105h-311z" />
    <glyph glyph-name="umacron" unicode="&#x16b;" horiz-adv-x="531" 
d="M230 494l-60 -304q-1 -6 -1.5 -11.5t-0.5 -10.5q0 -29 16.5 -41t36.5 -12q24 0 53.5 11t71.5 36l65 332h128l-96 -494h-118l-2 43q-29 -17 -53 -27t-44 -15t-35.5 -6.5t-28.5 -1.5q-67 0 -97.5 36t-30.5 95q0 26 6 56l62 314h128zM183 585l21 104h312l-21 -104h-312z" />
    <glyph glyph-name="Ubreve" unicode="&#x16c;" horiz-adv-x="634" 
d="M423 728q-41 0 -67.5 14t-41.5 36.5t-20 49.5t-3 53h90q-2 -10 0 -22t7.5 -22t16 -17t25.5 -7t28 6.5t22.5 16.5t15.5 22t8 23h92q-7 -24 -19 -50.5t-32.5 -49.5t-50 -38t-71.5 -15zM589 219q-11 -56 -36.5 -98t-63 -70t-86 -42t-104.5 -14q-47 0 -90.5 12.5t-76.5 37.5
t-52.5 63.5t-19.5 89.5q0 13 1 27t4 28l86 436h137l-88 -438q-3 -18 -3 -32q0 -27 9.5 -46.5t25 -32t34.5 -18t39 -5.5q24 0 48 7t45 23t36.5 41.5t22.5 62.5l85 438h139z" />
    <glyph glyph-name="ubreve" unicode="&#x16d;" horiz-adv-x="531" 
d="M230 494l-60 -304q-1 -6 -1.5 -11.5t-0.5 -10.5q0 -29 16.5 -41t36.5 -12q24 0 53.5 11t71.5 36l65 332h128l-96 -494h-118l-2 43q-29 -17 -53 -27t-44 -15t-35.5 -6.5t-28.5 -1.5q-67 0 -97.5 36t-30.5 95q0 26 6 56l62 314h128zM333 564q-41 0 -67.5 14.5t-41.5 36.5
t-19.5 49t-2.5 53h91q-2 -10 -0.5 -21.5t7.5 -22t16 -17.5t26 -7q15 0 28 6.5t22.5 17t15.5 22t8 22.5h92q-5 -23 -17.5 -49.5t-33.5 -49.5t-51.5 -38.5t-72.5 -15.5z" />
    <glyph glyph-name="Uring" unicode="&#x16e;" horiz-adv-x="634" 
d="M589 219q-11 -56 -36.5 -98t-63 -70t-86 -42t-104.5 -14q-47 0 -90.5 12.5t-76.5 37.5t-52.5 63.5t-19.5 89.5q0 13 1 27t4 28l86 436h137l-88 -438q-3 -18 -3 -32q0 -27 9.5 -46.5t25 -32t34.5 -18t39 -5.5q24 0 48 7t45 23t36.5 41.5t22.5 62.5l85 438h139zM425 767
q19 0 36 15t17 35q0 14 -10.5 24t-26.5 10q-22 0 -37.5 -15t-15.5 -35q0 -14 10 -24t27 -10zM415 698q-42 0 -71.5 26t-29.5 65q0 26 9.5 50t27.5 42t42.5 29t54.5 11q44 0 74 -26.5t30 -66.5q0 -27 -10 -50.5t-28 -41.5t-43.5 -28t-55.5 -10z" />
    <glyph glyph-name="uring" unicode="&#x16f;" horiz-adv-x="531" 
d="M230 494l-60 -304q-1 -6 -1.5 -11.5t-0.5 -10.5q0 -29 16.5 -41t36.5 -12q24 0 53.5 11t71.5 36l65 332h128l-96 -494h-118l-2 43q-29 -17 -53 -27t-44 -15t-35.5 -6.5t-28.5 -1.5q-67 0 -97.5 36t-30.5 95q0 26 6 56l62 314h128zM341 600q19 0 36 15t17 35
q0 14 -10.5 24t-26.5 10q-22 0 -37.5 -15t-15.5 -35q0 -14 10 -24t27 -10zM331 531q-42 0 -71.5 26t-29.5 65q0 26 9.5 50t27.5 42t42.5 29t54.5 11q44 0 74 -26.5t30 -66.5q0 -27 -10 -50.5t-28 -41.5t-43.5 -28t-55.5 -10z" />
    <glyph glyph-name="Uhungarumlaut" unicode="&#x170;" horiz-adv-x="634" 
d="M589 219q-11 -56 -36.5 -98t-63 -70t-86 -42t-104.5 -14q-47 0 -90.5 12.5t-76.5 37.5t-52.5 63.5t-19.5 89.5q0 13 1 27t4 28l86 436h137l-88 -438q-3 -18 -3 -32q0 -27 9.5 -46.5t25 -32t34.5 -18t39 -5.5q24 0 48 7t45 23t36.5 41.5t22.5 62.5l85 438h139zM268 783
l175 141l78 -83l-206 -113zM468 783l185 141l73 -83l-212 -113z" />
    <glyph glyph-name="uhungarumlaut" unicode="&#x171;" horiz-adv-x="531" 
d="M230 494l-60 -304q-1 -6 -1.5 -11.5t-0.5 -10.5q0 -29 16.5 -41t36.5 -12q24 0 53.5 11t71.5 36l65 332h128l-96 -494h-118l-2 43q-29 -17 -53 -27t-44 -15t-35.5 -6.5t-28.5 -1.5q-67 0 -97.5 36t-30.5 95q0 26 6 56l62 314h128zM360 568l119 195l108 -37l-159 -185z
M190 568l118 195l109 -37l-159 -185z" />
    <glyph glyph-name="Uogonek" unicode="&#x172;" horiz-adv-x="634" 
d="M186 -103q2 21 14 45.5t43 57.5q-38 6 -71.5 21t-58.5 40t-39 59t-14 78q0 13 1 27t4 28l86 436h137l-88 -438q-3 -18 -3 -32q0 -27 9.5 -46.5t25 -32t34.5 -18t39 -5.5q24 0 48 7t45 23t36.5 41.5t22.5 62.5l85 438h139l-92 -470q-10 -53 -34 -93.5t-58.5 -68.5t-79 -43
t-95.5 -18q-47 -54 -51 -84q-3 -28 31 -28q11 0 26.5 3t37.5 13l15 -66q-27 -15 -55.5 -21t-54.5 -6q-44 0 -67 26t-18 64z" />
    <glyph glyph-name="uogonek" unicode="&#x173;" horiz-adv-x="531" 
d="M266 -104q2 21 14.5 46t44.5 58l-2 43q-29 -17 -53 -27t-44 -15t-35.5 -6.5t-28.5 -1.5q-67 0 -97.5 36t-30.5 95q0 26 6 56l62 314h128l-60 -304q-1 -6 -1.5 -11.5t-0.5 -10.5q0 -29 16.5 -41t36.5 -12q24 0 53.5 11t71.5 36l65 332h128l-96 -494h-36
q-27 -29 -40.5 -50.5t-15.5 -38.5q-3 -28 31 -28q11 0 26.5 3t37.5 13l15 -66q-27 -15 -55.5 -21t-54.5 -6q-44 0 -67 26t-18 64z" />
    <glyph glyph-name="Wcircumflex" unicode="&#x174;" horiz-adv-x="908" 
d="M498 455l-86 -196l-114 -259h-150l-42 689h139l7 -272l5 -213h6l95 215l120 270h134l17 -284l11 -201h6l83 203l117 282h144l-309 -689h-149l-14 260l-12 195h-8zM574 812l-167 -81l-32 52l173 123h84l124 -123l-54 -52z" />
    <glyph glyph-name="wcircumflex" unicode="&#x175;" horiz-adv-x="709" 
d="M521 0h-125l-16 105q-5 38 -10.5 76t-10.5 76q-1 0 -2 0.5t-2 0.5l-75 -153q-13 -26 -26 -51.5t-27 -53.5h-125l-51 496h130l9 -154l10 -158h6l75 152l57 112h105q4 -29 7.5 -57.5t8.5 -57.5q5 -40 9.5 -79.5t10.5 -78.5h4l86 184q17 38 23.5 64t6.5 54v20h129v-19
q0 -37 -9 -70.5t-28 -71.5zM452 640l-165 -109l-43 49l175 153h87l116 -153l-53 -43z" />
    <glyph glyph-name="Ycircumflex" unicode="&#x176;" horiz-adv-x="557" 
d="M310 396l87 137l99 156h150l-288 -419l-52 -270h-137l52 270l-128 419h142l41 -167l29 -126h5zM395 812l-167 -81l-32 52l173 123h84l124 -123l-54 -52z" />
    <glyph glyph-name="ycircumflex" unicode="&#x177;" horiz-adv-x="458" 
d="M12 -199l114 210l-29 22l-48 463h128l11 -182l10 -171h4l111 219q10 21 17 36.5t11.5 29t6 26t1.5 27.5v16h129v-15q0 -45 -12.5 -78t-33.5 -71l-292 -532h-128zM320 640l-165 -109l-43 49l175 153h87l116 -153l-53 -43z" />
    <glyph glyph-name="Zacute" unicode="&#x179;" horiz-adv-x="540" 
d="M17 118l398 449h-298l23 122h463l-21 -114l-404 -453h315l-23 -122h-476zM307 784l190 137l72 -86l-221 -108z" />
    <glyph glyph-name="zacute" unicode="&#x17a;" horiz-adv-x="474" 
d="M-9 0l19 103l302 285h-232l21 107h387l-19 -100l-302 -283h246l-21 -112h-401zM241 568l118 195l109 -37l-160 -185z" />
    <glyph glyph-name="Zdotaccent" unicode="&#x17b;" horiz-adv-x="540" 
d="M17 118l398 449h-298l23 122h463l-21 -114l-404 -453h315l-23 -122h-476zM383 732q-30 0 -47.5 20.5t-12.5 50.5q5 31 30 52.5t56 21.5q29 0 46.5 -19t12.5 -50q-2 -15 -9.5 -29t-19 -24.5t-26 -16.5t-30.5 -6z" />
    <glyph glyph-name="zdotaccent" unicode="&#x17c;" horiz-adv-x="474" 
d="M-9 0l19 103l302 285h-232l21 107h387l-19 -100l-302 -283h246l-21 -112h-401zM310 563q-30 0 -47.5 20.5t-12.5 50.5q5 31 30 52.5t56 21.5q29 0 46.5 -19t12.5 -50q-2 -15 -9.5 -29t-19 -24.5t-26 -16.5t-30.5 -6z" />
    <glyph glyph-name="AEacute" unicode="&#x1fc;" horiz-adv-x="1029" 
d="M513 0l23 162q-60 0 -119 0.5t-119 0.5q-30 -42 -60 -82t-61 -81h-162q128 174 258.5 344.5t258.5 344.5h543l-17 -123h-329l-22 -159h288l-17 -122h-289q-5 -41 -11 -82l-12 -82h337l-16 -121h-474zM375 277q45 0 88.5 -0.5t87.5 -0.5l42 288h-2zM724 784l190 137
l72 -86l-221 -108z" />
    <glyph glyph-name="aeacute" unicode="&#x1fd;" horiz-adv-x="811" 
d="M603 389q-44 0 -70.5 -29t-37.5 -76q12 -1 24 -1h23q29 0 50.5 6.5t35.5 16t20.5 21t6.5 20.5q0 17 -12 29.5t-40 12.5zM460 452q28 23 66 36t83 13q50 0 84.5 -11.5t56 -31t31 -44t9.5 -50.5q0 -44 -22.5 -76.5t-60.5 -54t-88 -32t-106 -10.5q-8 0 -16.5 0.5t-16.5 1.5
q-3 -14 -3 -25q0 -32 22.5 -47.5t61.5 -15.5q23 0 52.5 9.5t61.5 35.5q15 -25 29.5 -48t30.5 -47q-28 -20 -55 -32t-52.5 -18t-50 -8t-47.5 -2q-51 0 -91.5 14.5t-64.5 49.5q-25 -21 -51.5 -33.5t-53 -19.5t-52.5 -9t-48 -2q-63 0 -99 33t-36 87q0 47 17.5 81.5t46 57
t65 33.5t73.5 11q19 0 34.5 -0.5t29.5 -1t29.5 -2t34.5 -3.5l4 24t2 17q0 55 -85 55q-25 0 -58 -7t-75 -36q-11 23 -20.5 46t-20.5 46q60 40 111.5 52t96.5 12q51 0 86 -11t55 -37zM215 107q18 0 37 3.5t36.5 9t32 13t23.5 15.5q1 14 2.5 27t3.5 30q-27 3 -47.5 5t-47.5 2
q-15 0 -31 -2.5t-29.5 -9.5t-22 -19t-8.5 -31q0 -18 14 -30.5t37 -12.5zM431 568l118 195l109 -37l-160 -185z" />
    <glyph glyph-name="Oslashacute" unicode="&#x1fe;" horiz-adv-x="635" 
d="M589 214q-21 -110 -92.5 -165t-191.5 -55q-48 0 -93 15t-80 45l-54 -61l-37 32l58 66q-17 24 -26 53.5t-9 65.5q0 27 6 57l40 208q10 55 35 96.5t61 69t82 41.5t99 14q51 0 99.5 -16.5t83.5 -48.5l59 68l40 -34l-65 -74q14 -22 22.5 -48.5t8.5 -57.5q0 -11 -1.5 -23
t-3.5 -24zM201 209l277 317q-17 22 -42.5 33t-51.5 11q-53 0 -91.5 -28.5t-51.5 -96.5l-37 -192q-3 -18 -3 -33v-11zM494 436q3 15 3 28v5l-276 -313q17 -20 41 -28.5t50 -8.5q58 0 95 31t50 98zM355 781l186 134l81 -80l-218 -105z" />
    <glyph glyph-name="oslashacute" unicode="&#x1ff;" horiz-adv-x="521" 
d="M473 174q-18 -92 -77 -135.5t-159 -43.5q-42 0 -79 13t-64 39l-52 -52l-28 27l55 55q-12 20 -18.5 43t-6.5 52q0 11 1 22t3 23l19 102q17 92 76 137t153 45q45 0 82.5 -13t63.5 -36l49 49l29 -28l-52 -52q29 -41 29 -98q0 -23 -4 -43zM262 568l118 195l109 -37l-159 -185
zM367 281q3 13 3 25v8t-1 8l-183 -183q11 -15 29.5 -21t36.5 -6q38 0 63 19t35 68zM172 180l178 179q-11 13 -27.5 19t-33.5 6q-35 0 -60.5 -19.5t-35.5 -67.5l-18 -89q-3 -14 -3 -24v-4z" />
    <glyph glyph-name="Scommaaccent" unicode="&#x218;" horiz-adv-x="583" 
d="M365 701q63 0 123.5 -12t111.5 -50l-67 -112q-39 29 -81.5 40t-84.5 11q-21 0 -43 -5t-40 -15.5t-30 -27.5t-12 -42q0 -18 9.5 -31t27 -22.5t41 -17t51.5 -14.5q100 -25 144.5 -68t44.5 -116q0 -51 -23 -92.5t-63 -71t-92.5 -45t-111.5 -15.5q-75 0 -141 21.5t-117 74.5
q2 2 15 16.5t28 32t27.5 32t15.5 17.5q36 -34 81.5 -51t94.5 -17q37 0 63 8.5t43 21.5t25 29t8 31q0 18 -10.5 30.5t-29 22.5t-43.5 18t-54 16q-35 10 -67 23.5t-56 34t-38 49.5t-14 69q0 54 21 96t57 71t84 44.5t102 15.5zM129 -263q31 15 49.5 32t26.5 40q-18 4 -30.5 22
t-12.5 40q0 36 24.5 62t64.5 26q34 0 54.5 -22.5t20.5 -59.5q0 -58 -44.5 -110t-120.5 -84z" />
    <glyph glyph-name="scommaaccent" unicode="&#x219;" horiz-adv-x="467" 
d="M277 500q51 0 100 -12t89 -47q-17 -23 -32.5 -47t-32.5 -48q-33 26 -66 34.5t-65 8.5q-37 0 -54.5 -16t-17.5 -31q0 -17 17.5 -24.5t44 -13t57 -11.5t57 -19t44 -37t17.5 -65q0 -45 -19.5 -78.5t-51.5 -55t-73.5 -32.5t-85.5 -11q-28 0 -54 2.5t-51.5 10t-50.5 22
t-49 37.5q18 23 36.5 45t37.5 45q32 -31 66.5 -42.5t73.5 -11.5q43 0 65 18t22 38q0 16 -17 24.5t-42.5 15t-55.5 14t-55.5 21.5t-42.5 37t-17 61q0 45 19 77t48.5 52t66 29.5t72.5 9.5zM66 -263q31 15 49.5 32t26.5 40q-18 4 -30.5 22t-12.5 40q0 36 24.5 62t64.5 26
q34 0 54.5 -22.5t20.5 -59.5q0 -58 -44.5 -110t-120.5 -84z" />
    <glyph glyph-name="igrave" unicode="&#xec;" horiz-adv-x="322" 
d="M230 542l-166 181l106 40l120 -184zM294 496l-61 -312q-2 -10 -3 -18.5t-1 -16.5q0 -26 12.5 -34t37.5 -8l-24 -109h-25q-63 0 -99 27t-36 85q0 21 4 41l66 345h129z" />
    <glyph glyph-name="iacute" unicode="&#xed;" horiz-adv-x="302" 
d="M148 568l119 195l108 -37l-159 -185zM245 496l-61 -312q-2 -10 -3 -18.5t-1 -16.5q0 -26 12.5 -34t37.5 -8l-24 -109h-25q-63 0 -99 27t-36 85q0 21 4 41l66 345h129z" />
    <glyph glyph-name="icircumflex" unicode="&#xee;" horiz-adv-x="336" 
d="M249 640l-165 -106l-40 45l178 154h87l116 -153l-59 -46zM281 496l-61 -312q-2 -10 -3 -18.5t-1 -16.5q0 -26 12.5 -34t37.5 -8l-24 -109h-25q-63 0 -99 27t-36 85q0 21 4 41l66 345h129z" />
    <glyph glyph-name="idieresis" unicode="&#xef;" horiz-adv-x="332" 
d="M356 693q26 0 41 -15t15 -39q0 -16 -7 -30.5t-18.5 -26t-26 -18.5t-30.5 -7q-25 0 -41 15.5t-16 38.5q0 16 7 31t19 26.5t27 18t30 6.5zM159 693q25 0 40 -15t15 -39q0 -17 -7 -31.5t-18 -26t-26 -18t-31 -6.5q-25 0 -40.5 15.5t-15.5 38.5q0 16 7 31t18.5 26.5t26.5 18
t31 6.5zM284 496l-61 -312q-2 -10 -3 -18.5t-1 -16.5q0 -26 12.5 -34t37.5 -8l-24 -109h-25q-63 0 -99 27t-36 85q0 21 4 41l66 345h129z" />
    <glyph glyph-name="OE" unicode="&#x152;" horiz-adv-x="908" 
d="M388 696q20 0 48 -2t46 -5h474l-24 -123h-337l-31 -158h288l-24 -123h-288l-32 -163h337l-23 -122h-467q-17 -3 -35.5 -4t-36.5 -1q-52 0 -93 15.5t-70 43.5t-44.5 67t-15.5 86q0 29 6 61l40 207q22 111 95 166t187 55zM306 119q15 0 32.5 3t35.5 13l81 416
q-14 11 -35.5 15t-40.5 4q-51 0 -90 -28.5t-52 -96.5l-38 -198q-3 -17 -3 -30q0 -26 9.5 -44.5t25 -30.5t35 -17.5t40.5 -5.5z" />
    <glyph glyph-name="ampersandsmall" unicode="&#xe0fb;" horiz-adv-x="637" 
d="M406 624q60 0 104.5 -18.5t74 -49.5t44.5 -72t15 -87q0 -84 -41 -161t-113 -139q20 -21 45 -37.5t56 -30.5l-60 -79q-15 6 -32.5 16t-34.5 22t-32.5 25t-27.5 26q-15 -10 -34 -18t-40 -14t-43 -9t-42 -3q-64 0 -102.5 32t-38.5 92q0 31 12 58.5t31.5 50.5t45 42.5
t53.5 34.5q-5 15 -9 30t-4 29q0 30 11.5 56.5t31.5 46t47 31t58 11.5q49 0 78 -26.5t29 -66.5q0 -27 -9.5 -49t-25 -40t-35.5 -32t-41 -26q13 -26 29 -54t33 -54q51 48 80.5 105.5t29.5 117.5q0 30 -7.5 58.5t-25 51t-47 36.5t-72.5 14q-53 0 -94.5 -17t-70.5 -46t-44.5 -68
t-15.5 -82q0 -6 0.5 -15.5t1.5 -19.5l-93 -24q-2 18 -2.5 30.5t-0.5 25.5q0 64 26 118t70.5 93.5t104 62t127.5 22.5zM261 81q43 0 93 25q-20 28 -38.5 60.5t-29.5 61.5q-38 -19 -61.5 -42t-23.5 -55q0 -25 17 -37.5t43 -12.5zM367 422q-17 0 -26.5 -14t-9.5 -27
q0 -17 9 -33q20 10 34 22t16 27q2 11 -5 18t-18 7z" />
    <glyph glyph-name="exclamsmall" unicode="&#xe0fc;" horiz-adv-x="207" 
d="M52 153l69 376h113l-81 -376h-101zM72 -5q-26 0 -41.5 16t-15.5 39q0 15 6.5 29t17.5 25t25.5 18t30.5 7q26 0 42 -15.5t16 -38.5q0 -32 -23 -56t-58 -24z" />
    <glyph glyph-name="questionsmall" unicode="&#xe0fd;" horiz-adv-x="381" 
d="M254 530q32 0 59.5 -9t47 -25.5t30.5 -39t11 -49.5q0 -42 -26 -77t-56 -65q-21 -21 -40 -45t-26 -53q-1 -5 -2 -13.5t-3 -13.5h-114l6 30q4 22 12 41t19.5 37t27 36t34.5 38q15 16 25.5 32t10.5 36q0 14 -10.5 24t-34.5 10t-50.5 -10.5t-53.5 -30.5l-43 92q41 29 86 42
t90 13zM186 119q26 0 43 -17t17 -40q0 -26 -19 -44.5t-46 -18.5q-26 0 -42.5 16t-16.5 40q0 26 17.5 45t46.5 19z" />
    <glyph glyph-name="Asmall" unicode="&#xe0fe;" horiz-adv-x="498" 
d="M333 0l-10 105h-171q-14 -26 -27.5 -52.5t-27.5 -52.5h-130q73 132 146 262t147 262h118l83 -524h-128zM286 374l-46 -97l-36 -72h106q-5 42 -10 84.5t-10 84.5h-4z" />
    <glyph glyph-name="Bsmall" unicode="&#xe0ff;" horiz-adv-x="487" 
d="M351 524q38 0 64.5 -10t43.5 -26.5t25 -39.5t8 -48q0 -40 -19 -72.5t-60 -55.5q26 -18 35 -45t9 -54q0 -34 -13 -65.5t-37 -55.5t-57.5 -38t-74.5 -14h-264l104 524h236zM152 105h103q35 0 56.5 19t21.5 50q0 20 -13.5 32t-38.5 12h-106zM196 321h100q37 0 54.5 19
t17.5 38q0 41 -53 41h-99z" />
    <glyph glyph-name="Csmall" unicode="&#xe100;" horiz-adv-x="439" 
d="M403 380q-23 23 -51.5 32t-53.5 9q-92 0 -109 -90l-27 -143q-1 -5 -1.5 -10t-0.5 -10q0 -28 18 -46.5t57 -18.5q26 0 60.5 9.5t63.5 30.5l51 -99q-45 -28 -94 -38.5t-94 -10.5q-42 0 -75.5 12t-57 34t-36 52t-12.5 65q0 21 4 40l31 160q17 84 69.5 127.5t147.5 43.5
q23 0 47.5 -3.5t47.5 -10.5t43.5 -17.5t35.5 -25.5z" />
    <glyph glyph-name="Dsmall" unicode="&#xe101;" horiz-adv-x="492" 
d="M452 169q-8 -43 -26.5 -74.5t-46 -52.5t-62.5 -31.5t-74 -10.5h-228l106 524h199q37 0 67.5 -11t52.5 -30.5t34 -46.5t12 -60q0 -17 -3 -33zM364 335q3 12 3 22q0 29 -18.5 45t-49.5 16h-79l-63 -314h75q44 0 69 19.5t33 67.5z" />
    <glyph glyph-name="Esmall" unicode="&#xe102;" horiz-adv-x="451" 
d="M119 524h375l-21 -106h-255l-21 -101h221l-20 -107h-222l-21 -105h262l-22 -105h-381z" />
    <glyph glyph-name="Fsmall" unicode="&#xe103;" horiz-adv-x="434" 
d="M195 313h221l-21 -106h-220l-43 -207h-120l106 524h374l-20 -106h-255z" />
    <glyph glyph-name="Gsmall" unicode="&#xe104;" horiz-adv-x="475" 
d="M457 298l-46 -234q-24 -21 -49 -34.5t-49.5 -21t-48.5 -10.5t-45 -3q-44 0 -77 11.5t-56 32.5t-34.5 50t-11.5 63q0 11 1 22t3 22l34 164q9 43 30 74.5t50.5 52.5t65.5 31.5t74 10.5q23 0 47.5 -3.5t48 -10t44 -17t34.5 -24.5q-16 -23 -31.5 -46.5t-32.5 -46.5
q-23 22 -51.5 31t-53.5 9q-45 0 -72 -20.5t-37 -66.5l-29 -139q-3 -15 -3 -28q0 -28 15.5 -46.5t56.5 -18.5q14 0 31 3.5t36 16.5l16 71h-77l20 105h197z" />
    <glyph glyph-name="Hsmall" unicode="&#xe105;" horiz-adv-x="493" 
d="M305 0l44 213h-178l-42 -213h-121l105 524h120l-41 -204h177l41 204h123l-105 -524h-123z" />
    <glyph glyph-name="Ismall" unicode="&#xe106;" horiz-adv-x="231" 
d="M249 524l-105 -524h-121l106 524h120z" />
    <glyph glyph-name="Jsmall" unicode="&#xe107;" horiz-adv-x="418" 
d="M362 165q-17 -85 -76 -127.5t-148 -42.5q-21 0 -43.5 3.5t-44 10.5t-40.5 17.5t-33 24.5l70 90q26 -23 51.5 -29.5t46.5 -6.5q38 0 64.5 21t36.5 68l66 330h122l-72 -359v0z" />
    <glyph glyph-name="Ksmall" unicode="&#xe108;" horiz-adv-x="476" 
d="M239 225l-83 -78l-30 -147h-120l104 524h121l-41 -208l220 208h147l-227 -215l129 -309h-134z" />
    <glyph glyph-name="Lsmall" unicode="&#xe109;" horiz-adv-x="435" 
d="M10 0l105 524h120l-84 -418h260l-21 -106h-380z" />
    <glyph glyph-name="Msmall" unicode="&#xe10a;" horiz-adv-x="613" 
d="M320 229l206 295h111l-104 -524h-121q13 63 25 126l24 126h-3q-17 -28 -37 -55.5t-38 -54.5l-55 -73h-85l-30 89q-8 23 -15.5 48.5t-15.5 49.5h-3q-12 -64 -24 -128.5t-25 -127.5h-120q26 132 51.5 262t51.5 262h108l92 -295h7z" />
    <glyph glyph-name="Nsmall" unicode="&#xe10b;" horiz-adv-x="526" 
d="M373 215l60 309h120q-4 -22 -12.5 -63t-18.5 -92t-21.5 -107t-21.5 -107t-18 -92t-12 -63h-107l-85 185q-4 10 -12.5 28.5t-17.5 39t-17.5 39t-12.5 28.5h-2q-3 -14 -8 -39.5t-11.5 -56t-13 -64.5t-12.5 -64.5t-11 -56t-8 -39.5h-121q4 22 12 63t18.5 92t21.5 107t21 107
t18 92t13 63h106l74 -152l74 -157h5z" />
    <glyph glyph-name="Osmall" unicode="&#xe10c;" horiz-adv-x="496" 
d="M461 165q-16 -84 -69 -127t-150 -43q-40 0 -76 13t-63 36t-42.5 55t-15.5 71q0 8 1 17.5t3 18.5l30 154q8 42 28 73.5t48.5 53t64.5 32t75 10.5q40 0 76.5 -12.5t64 -34.5t43.5 -53t16 -68q0 -16 -3 -32zM373 331q2 10 2 15q0 17 -8 31t-20 23.5t-27 15t-29 5.5
q-36 0 -61.5 -20t-34.5 -66l-28 -143q-1 -5 -1.5 -9.5t-0.5 -9.5q0 -32 22.5 -51.5t60.5 -19.5q45 0 67 24t30 67z" />
    <glyph glyph-name="Psmall" unicode="&#xe10d;" horiz-adv-x="446" 
d="M339 524q34 0 60 -12.5t43 -33t26 -47t9 -53.5q0 -33 -12.5 -66.5t-36.5 -60t-58.5 -43t-77.5 -16.5h-126l-38 -192h-121l105 524h227zM188 299h91q37 0 58.5 21t21.5 51q0 20 -14 33.5t-40 13.5h-94z" />
    <glyph glyph-name="Qsmall" unicode="&#xe10e;" horiz-adv-x="507" 
d="M461 165q-15 -79 -62.5 -121.5t-135.5 -47.5q-2 -9 -3.5 -18t-1.5 -15q0 -20 16.5 -26t57.5 -8l-12 -92q-23 -3 -41 -3q-63 0 -100 25t-37 77q0 15 4.5 36.5t8.5 39.5q-48 20 -79 61.5t-31 95.5q0 9 1 18t3 19l30 154q8 42 28 73.5t48.5 53t64.5 32t75 10.5
q40 0 76.5 -12.5t64 -34.5t43.5 -53t16 -68q0 -16 -3 -32zM373 331q2 10 2 15q0 17 -8 31t-20 23.5t-27 15t-29 5.5q-36 0 -61.5 -20t-34.5 -66l-28 -143q-1 -5 -1.5 -9.5t-0.5 -9.5q0 -32 22.5 -51.5t60.5 -19.5q45 0 67 24t30 67z" />
    <glyph glyph-name="Rsmall" unicode="&#xe10f;" horiz-adv-x="464" 
d="M347 524q35 0 61 -11.5t43 -31t25 -44.5t8 -52q0 -22 -5 -46t-18 -47.5t-35.5 -44.5t-56.5 -36l54 -211h-126l-42 192h-88l-38 -192h-120l104 524h234zM189 299h96q38 0 59.5 21t21.5 52q0 20 -13.5 33t-39.5 13h-100z" />
    <glyph glyph-name="Ssmall" unicode="&#xe110;" horiz-adv-x="455" 
d="M283 533q45 0 96 -9.5t94 -41.5l-64 -97q-33 23 -64.5 32.5t-62.5 9.5q-15 0 -30 -3.5t-27.5 -11t-20.5 -19.5t-8 -28q0 -21 25.5 -32t67.5 -20q75 -17 112.5 -51t37.5 -93q0 -39 -17 -71t-47 -54.5t-70.5 -35t-86.5 -12.5q-60 0 -116 17t-98 59l75 87q29 -26 64 -41
t70 -15q48 0 70 17t22 38q0 22 -19.5 35t-73.5 27q-28 6 -53 17t-44 27.5t-30 39.5t-11 54q0 42 16.5 74.5t45 55t66.5 34t81 11.5z" />
    <glyph glyph-name="Tsmall" unicode="&#xe111;" horiz-adv-x="411" 
d="M324 417l-84 -417h-122l84 417h-138l20 107h399l-20 -107h-139z" />
    <glyph glyph-name="Usmall" unicode="&#xe112;" horiz-adv-x="495" 
d="M463 167q-17 -85 -78 -128t-156 -43q-39 0 -72.5 11.5t-58.5 33t-39.5 51.5t-14.5 66q0 20 4 37l66 329h121l-69 -334q-1 -5 -1.5 -9t-0.5 -9q0 -32 22.5 -51.5t51.5 -19.5q42 0 71 22.5t38 70.5l66 330h121z" />
    <glyph glyph-name="Vsmall" unicode="&#xe113;" horiz-adv-x="471" 
d="M247 167l42 90t41 91q22 45 43.5 88t42.5 88h130l-276 -524h-120l-69 524h125l18 -172l18 -185h5z" />
    <glyph glyph-name="Wsmall" unicode="&#xe114;" horiz-adv-x="708" 
d="M508 192l50 119l92 213h127l-243 -524h-126l-12 200l-7 111h-5l-53 -115l-89 -196h-128l-32 524h123l7 -208l3 -128h4l59 131l92 205h115l13 -216l6 -116h4z" />
    <glyph glyph-name="Xsmall" unicode="&#xe115;" horiz-adv-x="464" 
d="M246 168l-133 -168h-144l225 270l-109 254h132l57 -156l121 156h143l-212 -256l121 -268h-135z" />
    <glyph glyph-name="Ysmall" unicode="&#xe116;" horiz-adv-x="434" 
d="M248 311l53 89l79 124h136l-228 -321l-41 -203h-122l41 206l-99 318h126l29 -127l20 -86h6z" />
    <glyph glyph-name="Zsmall" unicode="&#xe117;" horiz-adv-x="421" 
d="M8 98l293 321h-219l21 105h369l-19 -95l-298 -324h233l-20 -105h-379z" />
    <glyph glyph-name="Alphasmall" unicode="&#xe183;" horiz-adv-x="498" 
d="M333 0l-10 105h-171q-14 -26 -27.5 -52.5t-27.5 -52.5h-130q73 132 146 262t147 262h118l83 -524h-128zM286 374l-46 -97l-36 -72h106q-5 42 -10 84.5t-10 84.5h-4z" />
    <glyph glyph-name="Betasmall" unicode="&#xe184;" horiz-adv-x="487" 
d="M351 524q38 0 64.5 -10t43.5 -26.5t25 -39.5t8 -48q0 -40 -19 -72.5t-60 -55.5q26 -18 35 -45t9 -54q0 -34 -13 -65.5t-37 -55.5t-57.5 -38t-74.5 -14h-264l104 524h236zM152 105h103q35 0 56.5 19t21.5 50q0 20 -13.5 32t-38.5 12h-106zM196 321h100q37 0 54.5 19
t17.5 38q0 41 -53 41h-99z" />
    <glyph glyph-name="Gammasmall" unicode="&#xe185;" horiz-adv-x="417" 
d="M15 0l106 524h376l-21 -106h-256l-85 -418h-120z" />
    <glyph glyph-name="Deltasmall" unicode="&#xe186;" horiz-adv-x="492" 
d="M-34 0l296 524h109l88 -524h-493zM286 362l-66 -136l-63 -121h165l-16 125l-16 132h-4z" />
    <glyph glyph-name="Epsilonsmall" unicode="&#xe187;" horiz-adv-x="451" 
d="M119 524h375l-21 -106h-255l-21 -101h221l-20 -107h-222l-21 -105h262l-22 -105h-381z" />
    <glyph glyph-name="Zetasmall" unicode="&#xe188;" horiz-adv-x="421" 
d="M8 98l293 321h-219l21 105h369l-19 -95l-298 -324h233l-20 -105h-379z" />
    <glyph glyph-name="Etasmall" unicode="&#xe189;" horiz-adv-x="493" 
d="M305 0l44 213h-178l-42 -213h-121l105 524h120l-41 -204h177l41 204h123l-105 -524h-123z" />
    <glyph glyph-name="Thetasmall" unicode="&#xe18a;" horiz-adv-x="496" 
d="M461 165q-16 -84 -69 -127t-150 -43q-40 0 -76 13t-63 36t-42.5 55t-15.5 71q0 8 1 17.5t3 18.5l30 154q8 42 28 73.5t48.5 53t64.5 32t75 10.5q40 0 76.5 -12.5t64 -34.5t43.5 -53t16 -68q0 -16 -3 -32zM373 331q2 10 2 15q0 17 -8 31t-20 23.5t-27 15t-29 5.5
q-36 0 -61.5 -20t-34.5 -66l-28 -143q-1 -5 -1.5 -9.5t-0.5 -9.5q0 -32 22.5 -51.5t60.5 -19.5q45 0 67 24t30 67zM326 213h-134l20 99h134z" />
    <glyph glyph-name="Iotasmall" unicode="&#xe18b;" horiz-adv-x="231" 
d="M249 524l-105 -524h-121l106 524h120z" />
    <glyph glyph-name="Kappasmall" unicode="&#xe18c;" horiz-adv-x="476" 
d="M239 225l-83 -78l-30 -147h-120l104 524h121l-41 -208l220 208h147l-227 -215l129 -309h-134z" />
    <glyph glyph-name="Lambdasmall" unicode="&#xe18d;" horiz-adv-x="492" 
d="M302 351l-84 -157l-106 -194h-126l296 524h109l88 -524h-124l-27 191l-22 160h-4z" />
    <glyph glyph-name="Musmall" unicode="&#xe18e;" horiz-adv-x="613" 
d="M320 229l206 295h111l-104 -524h-121q13 63 25 126l24 126h-3q-17 -28 -37 -55.5t-38 -54.5l-55 -73h-85l-30 89q-8 23 -15.5 48.5t-15.5 49.5h-3q-12 -64 -24 -128.5t-25 -127.5h-120q26 132 51.5 262t51.5 262h108l92 -295h7z" />
    <glyph glyph-name="Nusmall" unicode="&#xe18f;" horiz-adv-x="526" 
d="M373 215l60 309h120q-4 -22 -12.5 -63t-18.5 -92t-21.5 -107t-21.5 -107t-18 -92t-12 -63h-107l-85 185q-4 10 -12.5 28.5t-17.5 39t-17.5 39t-12.5 28.5h-2q-3 -14 -8 -39.5t-11.5 -56t-13 -64.5t-12.5 -64.5t-11 -56t-8 -39.5h-121q4 22 12 63t18.5 92t21.5 107t21 107
t18 92t13 63h106l74 -152l74 -157h5z" />
    <glyph glyph-name="Xismall" unicode="&#xe190;" horiz-adv-x="436" 
d="M2 0l21 105h131l22 105h-94l22 107h93l20 101h-132l22 106h373l-21 -106h-132l-22 -101h95l-21 -107h-93l-22 -105h132l-20 -105h-374z" />
    <glyph glyph-name="Omicronsmall" unicode="&#xe191;" horiz-adv-x="496" 
d="M461 165q-16 -84 -69 -127t-150 -43q-40 0 -76 13t-63 36t-42.5 55t-15.5 71q0 8 1 17.5t3 18.5l30 154q8 42 28 73.5t48.5 53t64.5 32t75 10.5q40 0 76.5 -12.5t64 -34.5t43.5 -53t16 -68q0 -16 -3 -32zM373 331q2 10 2 15q0 17 -8 31t-20 23.5t-27 15t-29 5.5
q-36 0 -61.5 -20t-34.5 -66l-28 -143q-1 -5 -1.5 -9.5t-0.5 -9.5q0 -32 22.5 -51.5t60.5 -19.5q45 0 67 24t30 67z" />
    <glyph glyph-name="Pismall" unicode="&#xe192;" horiz-adv-x="493" 
d="M308 0l85 417h-178l-84 -417h-120l104 524h421l-105 -524h-123z" />
    <glyph glyph-name="Rhosmall" unicode="&#xe193;" horiz-adv-x="446" 
d="M339 524q34 0 60 -12.5t43 -33t26 -47t9 -53.5q0 -33 -12.5 -66.5t-36.5 -60t-58.5 -43t-77.5 -16.5h-126l-38 -192h-121l105 524h227zM188 299h91q37 0 58.5 21t21.5 51q0 20 -14 33.5t-40 13.5h-94z" />
    <glyph glyph-name="Sigmasmall" unicode="&#xe194;" horiz-adv-x="403" 
d="M-6 0l20 97l146 176l-78 158l18 93h359l-22 -106h-209l72 -147l-141 -166h223l-21 -105h-367z" />
    <glyph glyph-name="Tausmall" unicode="&#xe195;" horiz-adv-x="411" 
d="M324 417l-84 -417h-122l84 417h-138l20 107h399l-20 -107h-139z" />
    <glyph glyph-name="Upsilonsmall" unicode="&#xe196;" horiz-adv-x="434" 
d="M248 311l53 89l79 124h136l-228 -321l-41 -203h-122l41 206l-99 318h126l29 -127l20 -86h6z" />
    <glyph glyph-name="Phismall" unicode="&#xe197;" horiz-adv-x="609" 
d="M436 503q82 -8 125.5 -56.5t43.5 -127.5q0 -120 -64.5 -193.5t-196.5 -84.5l-8 -41h-122l9 42q-83 9 -125.5 56.5t-42.5 123.5q0 118 66 192t194 89l5 26h122zM364 147q35 6 58.5 22t38 38t20.5 49t6 55q0 17 -3.5 33t-12 28.5t-22 20.5t-33.5 9zM294 399
q-33 -5 -55.5 -22.5t-36.5 -41t-20 -51t-6 -52.5q0 -34 15 -56t51 -30z" />
    <glyph glyph-name="Chismall" unicode="&#xe198;" horiz-adv-x="464" 
d="M246 168l-133 -168h-144l225 270l-109 254h132l57 -156l121 156h143l-212 -256l121 -268h-135z" />
    <glyph glyph-name="Psismall" unicode="&#xe199;" horiz-adv-x="600" 
d="M596 281q-7 -40 -25 -73.5t-48 -58t-72.5 -39.5t-98.5 -18l-19 -92h-120l20 93q-40 2 -71.5 16t-53 36.5t-32.5 52.5t-11 63q0 9 1 18.5t3 19.5l44 225h118l-47 -233q-1 -5 -1.5 -10t-0.5 -10q0 -26 17 -46t54 -25l65 325h121l-66 -325q42 4 70 26.5t36 61.5l47 236h116z
" />
    <glyph glyph-name="Omegasmall" unicode="&#xe19a;" horiz-adv-x="504" 
d="M247 0q7 30 13.5 60t12.5 60q27 8 50 28.5t30 56.5l25 127q1 4 1 8v8q0 33 -22.5 53t-57.5 20q-41 0 -64.5 -19t-33.5 -67l-27 -131q-1 -5 -1.5 -9.5t-0.5 -9.5q0 -23 12.5 -41.5t40.5 -24.5l-27 -119h-192l20 101h46q-11 15 -15.5 34t-4.5 39q0 18 3 33l28 148
q16 84 75 129t149 45q42 0 77 -11.5t61 -33t40.5 -51.5t14.5 -66q0 -16 -3 -32l-25 -141q-5 -27 -16 -51.5t-30 -41.5h42l-21 -101h-200z" />
    <glyph glyph-name="Scaronsmall" unicode="&#xe118;" horiz-adv-x="455" 
d="M283 533q45 0 96 -9.5t94 -41.5l-64 -97q-33 23 -64.5 32.5t-62.5 9.5q-15 0 -30 -3.5t-27.5 -11t-20.5 -19.5t-8 -28q0 -21 25.5 -32t67.5 -20q75 -17 112.5 -51t37.5 -93q0 -39 -17 -71t-47 -54.5t-70.5 -35t-86.5 -12.5q-60 0 -116 17t-98 59l75 87q29 -26 64 -41
t70 -15q48 0 70 17t22 38q0 22 -19.5 35t-73.5 27q-28 6 -53 17t-44 27.5t-30 39.5t-11 54q0 42 16.5 74.5t45 55t66.5 34t81 11.5zM471 749l42 -46l-176 -153h-87l-118 154l57 45q10 -8 26 -22.5t32.5 -30t32 -30t26.5 -23.5z" />
    <glyph glyph-name="OEsmall" unicode="&#xe119;" horiz-adv-x="705" 
d="M304 531q14 0 36.5 -2.5t35.5 -4.5h371l-21 -106h-257l-21 -102h220l-21 -106h-220l-22 -105h258l-21 -105h-362q-14 -2 -30 -2.5t-30 -0.5q-45 0 -78 11.5t-54.5 32t-32 48.5t-10.5 61q0 11 1 22t3 22l32 166q8 42 24 74t42.5 53.5t65 32.5t91.5 11zM300 421
q-45 0 -69.5 -20t-33.5 -66l-29 -146q-1 -5 -1.5 -10.5t-0.5 -10.5q0 -34 20.5 -50t51.5 -16q12 0 24.5 2.5t23.5 7.5l60 299q-10 5 -22.5 7.5t-23.5 2.5z" />
    <glyph glyph-name="Zcaronsmall" unicode="&#xe11a;" horiz-adv-x="421" 
d="M8 98l293 321h-219l21 105h369l-19 -95l-298 -324h233l-20 -105h-379zM469 749l42 -46l-176 -153h-87l-118 154l57 45q10 -8 26 -22.5t32.5 -30t32 -30t26.5 -23.5z" />
    <glyph glyph-name="Ydieresissmall" unicode="&#xe11b;" horiz-adv-x="434" 
d="M248 311l53 89l79 124h136l-228 -321l-41 -203h-122l41 206l-99 318h126l29 -127l20 -86h6zM422 706q25 0 40.5 -15.5t15.5 -40.5q0 -16 -7 -30.5t-19 -25.5t-27 -17.5t-30 -6.5q-25 0 -40.5 15.5t-15.5 38.5q0 16 7 31t18 26.5t26 18t32 6.5zM224 706q25 0 40.5 -15.5
t15.5 -40.5q0 -16 -7 -30.5t-19 -25.5t-27 -17.5t-30 -6.5q-25 0 -40.5 15.5t-15.5 38.5q0 16 7 31t18.5 26.5t26.5 18t31 6.5z" />
    <glyph glyph-name="Agravesmall" unicode="&#xe11c;" horiz-adv-x="498" 
d="M333 0l-10 105h-171q-14 -26 -27.5 -52.5t-27.5 -52.5h-130q73 132 146 262t147 262h118l83 -524h-128zM314 555l-166 181l106 40l120 -184zM286 374l-46 -97l-36 -72h106q-5 42 -10 84.5t-10 84.5h-4z" />
    <glyph glyph-name="Aacutesmall" unicode="&#xe11d;" horiz-adv-x="498" 
d="M333 0l-10 105h-171q-14 -26 -27.5 -52.5t-27.5 -52.5h-130q73 132 146 262t147 262h118l83 -524h-128zM277 581l118 195l109 -37l-160 -185zM286 374l-46 -97l-36 -72h106q-5 42 -10 84.5t-10 84.5h-4z" />
    <glyph glyph-name="Acircumflexsmall" unicode="&#xe11e;" horiz-adv-x="498" 
d="M333 0l-10 105h-171q-14 -26 -27.5 -52.5t-27.5 -52.5h-130q73 132 146 262t147 262h118l83 -524h-128zM349 653l-165 -109l-43 49l175 153h87l116 -153l-53 -43zM286 374l-46 -97l-36 -72h106q-5 42 -10 84.5t-10 84.5h-4z" />
    <glyph glyph-name="Atildesmall" unicode="&#xe11f;" horiz-adv-x="498" 
d="M333 0l-10 105h-171q-14 -26 -27.5 -52.5t-27.5 -52.5h-130q73 132 146 262t147 262h118l83 -524h-128zM279 726q19 0 35 -7t30 -15.5t26 -15t23 -6.5q16 0 32 9.5t39 35.5l12 -8t19.5 -13.5t20 -13.5t12.5 -8q-31 -57 -63.5 -79.5t-66.5 -22.5q-19 0 -35 6t-30.5 13.5
t-27.5 13.5t-27 6q-17 0 -32.5 -8t-41.5 -35l-63 45q32 51 65 77t73 26zM286 374l-46 -97l-36 -72h106q-5 42 -10 84.5t-10 84.5h-4z" />
    <glyph glyph-name="Adieresissmall" unicode="&#xe120;" horiz-adv-x="498" 
d="M333 0l-10 105h-171q-14 -26 -27.5 -52.5t-27.5 -52.5h-130q73 132 146 262t147 262h118l83 -524h-128zM449 706q25 0 40.5 -15.5t15.5 -40.5q0 -16 -7 -30.5t-19 -25.5t-27 -17.5t-30 -6.5q-25 0 -40.5 15.5t-15.5 38.5q0 16 7 31t18 26.5t26 18t32 6.5zM251 706
q25 0 40.5 -15.5t15.5 -40.5q0 -16 -7 -30.5t-19 -25.5t-27 -17.5t-30 -6.5q-25 0 -40.5 15.5t-15.5 38.5q0 16 7 31t18.5 26.5t26.5 18t31 6.5zM286 374l-46 -97l-36 -72h106q-5 42 -10 84.5t-10 84.5h-4z" />
    <glyph glyph-name="Aringsmall" unicode="&#xe121;" horiz-adv-x="498" 
d="M333 0l-10 105h-171q-14 -26 -27.5 -52.5t-27.5 -52.5h-130q73 132 146 262t147 262h118l83 -524h-128zM324 537q-42 0 -71.5 26t-29.5 65q0 26 9.5 50t27.5 42t42.5 29t54.5 11q44 0 74 -26.5t30 -66.5q0 -27 -10 -50.5t-28 -41.5t-43.5 -28t-55.5 -10zM286 374l-46 -97
l-36 -72h106q-5 42 -10 84.5t-10 84.5h-4zM334 606q19 0 36 15t17 35q0 14 -10.5 24t-26.5 10q-22 0 -37.5 -15t-15.5 -35q0 -14 10 -24t27 -10z" />
    <glyph glyph-name="AEsmall" unicode="&#xe122;" horiz-adv-x="803" 
d="M410 120l-169 1l-92 -121h-140l404 524h432l-15 -106h-258l-14 -101h220l-16 -107h-219l-16 -105h257l-15 -105h-376zM451 410l-139 -190l111 -1l31 191h-3z" />
    <glyph glyph-name="Ccedillasmall" unicode="&#xe123;" horiz-adv-x="439" 
d="M147 -74l36 72q-67 11 -104.5 54t-37.5 106q0 21 4 40l31 160q17 84 69.5 127.5t147.5 43.5q23 0 47.5 -3.5t47.5 -10.5t43.5 -17.5t35.5 -25.5l-64 -92q-23 23 -51.5 32t-53.5 9q-92 0 -109 -90l-27 -143q-1 -5 -1.5 -10t-0.5 -10q0 -28 18 -46.5t57 -18.5
q26 0 60.5 9.5t63.5 30.5l51 -99q-40 -25 -82.5 -35.5t-83.5 -12.5q-5 -8 -8.5 -16.5t-7.5 -16.5q24 -1 39.5 -8t25.5 -18t14 -24t4 -26q0 -20 -8.5 -38.5t-25.5 -33t-41.5 -23t-55.5 -8.5q-25 0 -52.5 7t-50.5 18l29 58q21 -11 39 -15t34 -4q17 0 33.5 7t16.5 26
q0 8 -4.5 12.5t-11 6t-13.5 0.5t-13 -3z" />
    <glyph glyph-name="Egravesmall" unicode="&#xe124;" horiz-adv-x="451" 
d="M119 524h375l-21 -106h-255l-21 -101h221l-20 -107h-222l-21 -105h262l-22 -105h-381zM310 555l-166 181l106 40l120 -184z" />
    <glyph glyph-name="Eacutesmall" unicode="&#xe125;" horiz-adv-x="451" 
d="M119 524h375l-21 -106h-255l-21 -101h221l-20 -107h-222l-21 -105h262l-22 -105h-381zM252 581l118 195l109 -37l-160 -185z" />
    <glyph glyph-name="Ecircumflexsmall" unicode="&#xe126;" horiz-adv-x="451" 
d="M119 524h375l-21 -106h-255l-21 -101h221l-20 -107h-222l-21 -105h262l-22 -105h-381zM334 653l-165 -109l-43 49l175 153h87l116 -153l-53 -43z" />
    <glyph glyph-name="Edieresissmall" unicode="&#xe127;" horiz-adv-x="451" 
d="M119 524h375l-21 -106h-255l-21 -101h221l-20 -107h-222l-21 -105h262l-22 -105h-381zM432 706q25 0 40.5 -15.5t15.5 -40.5q0 -16 -7 -30.5t-19 -25.5t-27 -17.5t-30 -6.5q-25 0 -40.5 15.5t-15.5 38.5q0 16 7 31t18 26.5t26 18t32 6.5zM234 706q25 0 40.5 -15.5
t15.5 -40.5q0 -16 -7 -30.5t-19 -25.5t-27 -17.5t-30 -6.5q-25 0 -40.5 15.5t-15.5 38.5q0 16 7 31t18.5 26.5t26.5 18t31 6.5z" />
    <glyph glyph-name="Igravesmall" unicode="&#xe128;" horiz-adv-x="231" 
d="M249 524l-105 -524h-121l106 524h120zM187 555l-166 181l106 40l120 -184z" />
    <glyph glyph-name="Iacutesmall" unicode="&#xe129;" horiz-adv-x="231" 
d="M249 524l-105 -524h-121l106 524h120zM149 581l118 195l109 -37l-160 -185z" />
    <glyph glyph-name="Icircumflexsmall" unicode="&#xe12a;" horiz-adv-x="231" 
d="M249 524l-105 -524h-121l106 524h120zM217 653l-165 -109l-43 49l175 153h87l116 -153l-53 -43z" />
    <glyph glyph-name="Idieresissmall" unicode="&#xe12b;" horiz-adv-x="231" 
d="M249 524l-105 -524h-121l106 524h120zM321 706q25 0 40.5 -15.5t15.5 -40.5q0 -16 -7 -30.5t-19 -25.5t-27 -17.5t-30 -6.5q-25 0 -40.5 15.5t-15.5 38.5q0 16 7 31t18 26.5t26 18t32 6.5zM123 706q25 0 40.5 -15.5t15.5 -40.5q0 -16 -7 -30.5t-19 -25.5t-27 -17.5
t-30 -6.5q-25 0 -40.5 15.5t-15.5 38.5q0 16 7 31t18.5 26.5t26.5 18t31 6.5z" />
    <glyph glyph-name="Ethsmall" unicode="&#xe12c;" horiz-adv-x="492" 
d="M452 169q-8 -43 -26.5 -74.5t-46 -52.5t-62.5 -31.5t-74 -10.5h-228l45 224h-52l15 82h54l44 218h199q37 0 67.5 -11t52.5 -30.5t34 -46.5t12 -60q0 -17 -3 -33zM364 335q3 12 3 22q0 29 -18.5 45t-49.5 16h-79l-23 -112h73l-15 -82h-74l-24 -120h75q44 0 69 19.5
t33 67.5z" />
    <glyph glyph-name="Ntildesmall" unicode="&#xe12d;" horiz-adv-x="526" 
d="M373 215l60 309h120q-4 -22 -12.5 -63t-18.5 -92t-21.5 -107t-21.5 -107t-18 -92t-12 -63h-107l-85 185q-4 10 -12.5 28.5t-17.5 39t-17.5 39t-12.5 28.5h-2q-3 -14 -8 -39.5t-11.5 -56t-13 -64.5t-12.5 -64.5t-11 -56t-8 -39.5h-121q4 22 12 63t18.5 92t21.5 107t21 107
t18 92t13 63h106l74 -152l74 -157h5zM289 726q19 0 35 -7t30 -15.5t26 -15t23 -6.5q16 0 32 9.5t39 35.5l12 -8t19.5 -13.5t20 -13.5t12.5 -8q-31 -57 -63.5 -79.5t-66.5 -22.5q-19 0 -35 6t-30.5 13.5t-27.5 13.5t-27 6q-17 0 -32.5 -8t-41.5 -35l-63 45q32 51 65 77t73 26
z" />
    <glyph glyph-name="Ogravesmall" unicode="&#xe12e;" horiz-adv-x="496" 
d="M461 165q-16 -84 -69 -127t-150 -43q-40 0 -76 13t-63 36t-42.5 55t-15.5 71q0 8 1 17.5t3 18.5l30 154q8 42 28 73.5t48.5 53t64.5 32t75 10.5q40 0 76.5 -12.5t64 -34.5t43.5 -53t16 -68q0 -16 -3 -32zM373 331q2 10 2 15q0 17 -8 31t-20 23.5t-27 15t-29 5.5
q-36 0 -61.5 -20t-34.5 -66l-28 -143q-1 -5 -1.5 -9.5t-0.5 -9.5q0 -32 22.5 -51.5t60.5 -19.5q45 0 67 24t30 67zM337 555l-166 181l106 40l120 -184z" />
    <glyph glyph-name="Oacutesmall" unicode="&#xe12f;" horiz-adv-x="496" 
d="M461 165q-16 -84 -69 -127t-150 -43q-40 0 -76 13t-63 36t-42.5 55t-15.5 71q0 8 1 17.5t3 18.5l30 154q8 42 28 73.5t48.5 53t64.5 32t75 10.5q40 0 76.5 -12.5t64 -34.5t43.5 -53t16 -68q0 -16 -3 -32zM373 331q2 10 2 15q0 17 -8 31t-20 23.5t-27 15t-29 5.5
q-36 0 -61.5 -20t-34.5 -66l-28 -143q-1 -5 -1.5 -9.5t-0.5 -9.5q0 -32 22.5 -51.5t60.5 -19.5q45 0 67 24t30 67zM275 581l118 195l109 -37l-160 -185z" />
    <glyph glyph-name="Ocircumflexsmall" unicode="&#xe130;" horiz-adv-x="496" 
d="M461 165q-16 -84 -69 -127t-150 -43q-40 0 -76 13t-63 36t-42.5 55t-15.5 71q0 8 1 17.5t3 18.5l30 154q8 42 28 73.5t48.5 53t64.5 32t75 10.5q40 0 76.5 -12.5t64 -34.5t43.5 -53t16 -68q0 -16 -3 -32zM373 331q2 10 2 15q0 17 -8 31t-20 23.5t-27 15t-29 5.5
q-36 0 -61.5 -20t-34.5 -66l-28 -143q-1 -5 -1.5 -9.5t-0.5 -9.5q0 -32 22.5 -51.5t60.5 -19.5q45 0 67 24t30 67zM348 653l-165 -109l-43 49l175 153h87l116 -153l-53 -43z" />
    <glyph glyph-name="Otildesmall" unicode="&#xe131;" horiz-adv-x="496" 
d="M461 165q-16 -84 -69 -127t-150 -43q-40 0 -76 13t-63 36t-42.5 55t-15.5 71q0 8 1 17.5t3 18.5l30 154q8 42 28 73.5t48.5 53t64.5 32t75 10.5q40 0 76.5 -12.5t64 -34.5t43.5 -53t16 -68q0 -16 -3 -32zM373 331q2 10 2 15q0 17 -8 31t-20 23.5t-27 15t-29 5.5
q-36 0 -61.5 -20t-34.5 -66l-28 -143q-1 -5 -1.5 -9.5t-0.5 -9.5q0 -32 22.5 -51.5t60.5 -19.5q45 0 67 24t30 67zM274 726q19 0 35 -7t30 -15.5t26 -15t23 -6.5q16 0 32 9.5t39 35.5l12 -8t19.5 -13.5t20 -13.5t12.5 -8q-31 -57 -63.5 -79.5t-66.5 -22.5q-19 0 -35 6
t-30.5 13.5t-27.5 13.5t-27 6q-17 0 -32.5 -8t-41.5 -35l-63 45q32 51 65 77t73 26z" />
    <glyph glyph-name="Odieresissmall" unicode="&#xe132;" horiz-adv-x="496" 
d="M461 165q-16 -84 -69 -127t-150 -43q-40 0 -76 13t-63 36t-42.5 55t-15.5 71q0 8 1 17.5t3 18.5l30 154q8 42 28 73.5t48.5 53t64.5 32t75 10.5q40 0 76.5 -12.5t64 -34.5t43.5 -53t16 -68q0 -16 -3 -32zM373 331q2 10 2 15q0 17 -8 31t-20 23.5t-27 15t-29 5.5
q-36 0 -61.5 -20t-34.5 -66l-28 -143q-1 -5 -1.5 -9.5t-0.5 -9.5q0 -32 22.5 -51.5t60.5 -19.5q45 0 67 24t30 67zM458 706q25 0 40.5 -15.5t15.5 -40.5q0 -16 -7 -30.5t-19 -25.5t-27 -17.5t-30 -6.5q-25 0 -40.5 15.5t-15.5 38.5q0 16 7 31t18 26.5t26 18t32 6.5zM260 706
q25 0 40.5 -15.5t15.5 -40.5q0 -16 -7 -30.5t-19 -25.5t-27 -17.5t-30 -6.5q-25 0 -40.5 15.5t-15.5 38.5q0 16 7 31t18.5 26.5t26.5 18t31 6.5z" />
    <glyph glyph-name="Oslashsmall" unicode="&#xe133;" horiz-adv-x="496" 
d="M461 165q-16 -84 -69 -127t-150 -43q-40 0 -75.5 12.5t-62.5 35.5l-49 -50q-11 9 -20.5 18.5t-20.5 19.5q5 6 19 20.5t34 34.5q-22 39 -22 84q0 8 1 17.5t3 18.5l30 154q8 42 28 73.5t48.5 53t64.5 32t75 10.5q42 0 79.5 -13.5t65.5 -37.5l49 52l43 -41l-55 -57
q8 -16 13 -33.5t5 -37.5q0 -16 -3 -32zM167 191q46 49 95.5 101t94.5 99q-13 14 -31 22t-35 8q-36 0 -61.5 -20t-34.5 -66l-28 -143v-1zM371 321l-188 -196q21 -23 65 -23q45 0 67 24t30 67z" />
    <glyph glyph-name="Ugravesmall" unicode="&#xe134;" horiz-adv-x="495" 
d="M463 167q-17 -85 -78 -128t-156 -43q-39 0 -72.5 11.5t-58.5 33t-39.5 51.5t-14.5 66q0 20 4 37l66 329h121l-69 -334q-1 -5 -1.5 -9t-0.5 -9q0 -32 22.5 -51.5t51.5 -19.5q42 0 71 22.5t38 70.5l66 330h121zM333 555l-166 181l106 40l120 -184z" />
    <glyph glyph-name="Uacutesmall" unicode="&#xe135;" horiz-adv-x="495" 
d="M463 167q-17 -85 -78 -128t-156 -43q-39 0 -72.5 11.5t-58.5 33t-39.5 51.5t-14.5 66q0 20 4 37l66 329h121l-69 -334q-1 -5 -1.5 -9t-0.5 -9q0 -32 22.5 -51.5t51.5 -19.5q42 0 71 22.5t38 70.5l66 330h121zM286 581l118 195l109 -37l-160 -185z" />
    <glyph glyph-name="Ucircumflexsmall" unicode="&#xe136;" horiz-adv-x="495" 
d="M463 167q-17 -85 -78 -128t-156 -43q-39 0 -72.5 11.5t-58.5 33t-39.5 51.5t-14.5 66q0 20 4 37l66 329h121l-69 -334q-1 -5 -1.5 -9t-0.5 -9q0 -32 22.5 -51.5t51.5 -19.5q42 0 71 22.5t38 70.5l66 330h121zM348 653l-165 -109l-43 49l175 153h87l116 -153l-53 -43z" />
    <glyph glyph-name="Udieresissmall" unicode="&#xe137;" horiz-adv-x="495" 
d="M463 167q-17 -85 -78 -128t-156 -43q-39 0 -72.5 11.5t-58.5 33t-39.5 51.5t-14.5 66q0 20 4 37l66 329h121l-69 -334q-1 -5 -1.5 -9t-0.5 -9q0 -32 22.5 -51.5t51.5 -19.5q42 0 71 22.5t38 70.5l66 330h121zM452 706q25 0 40.5 -15.5t15.5 -40.5q0 -16 -7 -30.5
t-19 -25.5t-27 -17.5t-30 -6.5q-25 0 -40.5 15.5t-15.5 38.5q0 16 7 31t18 26.5t26 18t32 6.5zM254 706q25 0 40.5 -15.5t15.5 -40.5q0 -16 -7 -30.5t-19 -25.5t-27 -17.5t-30 -6.5q-25 0 -40.5 15.5t-15.5 38.5q0 16 7 31t18.5 26.5t26.5 18t31 6.5z" />
    <glyph glyph-name="Yacutesmall" unicode="&#xe138;" horiz-adv-x="434" 
d="M248 311l53 89l79 124h136l-228 -321l-41 -203h-122l41 206l-99 318h126l29 -127l20 -86h6zM239 581l118 195l109 -37l-160 -185z" />
    <glyph glyph-name="Thornsmall" unicode="&#xe139;" horiz-adv-x="450" 
d="M136 0h-122l105 524h122l-19 -94h99q34 0 60.5 -11.5t45 -31.5t28.5 -46.5t10 -56.5q0 -34 -12.5 -67.5t-36.5 -60t-59 -43t-81 -16.5h-121zM176 204h91q36 0 58.5 21t22.5 52q0 20 -14.5 33.5t-41.5 13.5h-91z" />
    <glyph glyph-name="Amacronsmall" unicode="&#xe13a;" horiz-adv-x="498" 
d="M333 0l-10 105h-171q-14 -26 -27.5 -52.5t-27.5 -52.5h-130q73 132 146 262t147 262h118l83 -524h-128zM175 598l21 104h312l-21 -104h-312zM286 374l-46 -97l-36 -72h106q-5 42 -10 84.5t-10 84.5h-4z" />
    <glyph glyph-name="Abrevesmall" unicode="&#xe13b;" horiz-adv-x="498" 
d="M333 0l-10 105h-171q-14 -26 -27.5 -52.5t-27.5 -52.5h-130q73 132 146 262t147 262h118l83 -524h-128zM327 577q-41 0 -67.5 14.5t-41.5 36.5t-19.5 49t-2.5 53h91q-2 -10 -0.5 -21.5t7.5 -22t16 -17.5t26 -7q15 0 28 6.5t22.5 17t15.5 22t8 22.5h92q-5 -23 -17.5 -49.5
t-33.5 -49.5t-51.5 -38.5t-72.5 -15.5zM286 374l-46 -97l-36 -72h106q-5 42 -10 84.5t-10 84.5h-4z" />
    <glyph glyph-name="Aogoneksmall" unicode="&#xe13c;" horiz-adv-x="498" 
d="M276 -105q3 21 15 46t44 59h-2l-10 105h-171q-14 -26 -27.5 -52.5t-27.5 -52.5h-130q73 132 146 262t147 262h118l83 -524h-43q-53 -59 -57 -90q-3 -28 31 -28q11 0 26.5 3t37.5 13l15 -66q-27 -15 -55.5 -21t-54.5 -6q-44 0 -67 26t-18 64zM286 374l-46 -97l-36 -72h106
q-5 42 -10 84.5t-10 84.5h-4z" />
    <glyph glyph-name="Cacutesmall" unicode="&#xe13d;" horiz-adv-x="439" 
d="M403 380q-23 23 -51.5 32t-53.5 9q-92 0 -109 -90l-27 -143q-1 -5 -1.5 -10t-0.5 -10q0 -28 18 -46.5t57 -18.5q26 0 60.5 9.5t63.5 30.5l51 -99q-45 -28 -94 -38.5t-94 -10.5q-42 0 -75.5 12t-57 34t-36 52t-12.5 65q0 21 4 40l31 160q17 84 69.5 127.5t147.5 43.5
q23 0 47.5 -3.5t47.5 -10.5t43.5 -17.5t35.5 -25.5zM245 581l118 195l109 -37l-160 -185z" />
    <glyph glyph-name="Ccircumflexsmall" unicode="&#xe13e;" horiz-adv-x="439" 
d="M403 380q-23 23 -51.5 32t-53.5 9q-92 0 -109 -90l-27 -143q-1 -5 -1.5 -10t-0.5 -10q0 -28 18 -46.5t57 -18.5q26 0 60.5 9.5t63.5 30.5l51 -99q-45 -28 -94 -38.5t-94 -10.5q-42 0 -75.5 12t-57 34t-36 52t-12.5 65q0 21 4 40l31 160q17 84 69.5 127.5t147.5 43.5
q23 0 47.5 -3.5t47.5 -10.5t43.5 -17.5t35.5 -25.5zM342 653l-165 -109l-43 49l175 153h87l116 -153l-53 -43z" />
    <glyph glyph-name="Cdotaccentsmall" unicode="&#xe13f;" horiz-adv-x="439" 
d="M403 380q-23 23 -51.5 32t-53.5 9q-92 0 -109 -90l-27 -143q-1 -5 -1.5 -10t-0.5 -10q0 -28 18 -46.5t57 -18.5q26 0 60.5 9.5t63.5 30.5l51 -99q-45 -28 -94 -38.5t-94 -10.5q-42 0 -75.5 12t-57 34t-36 52t-12.5 65q0 21 4 40l31 160q17 84 69.5 127.5t147.5 43.5
q23 0 47.5 -3.5t47.5 -10.5t43.5 -17.5t35.5 -25.5zM316 576q-30 0 -47.5 20.5t-12.5 50.5q5 31 30 52.5t56 21.5q29 0 46.5 -19t12.5 -50q-2 -15 -9.5 -29t-19 -24.5t-26 -16.5t-30.5 -6z" />
    <glyph glyph-name="Ccaronsmall" unicode="&#xe140;" horiz-adv-x="439" 
d="M403 380q-23 23 -51.5 32t-53.5 9q-92 0 -109 -90l-27 -143q-1 -5 -1.5 -10t-0.5 -10q0 -28 18 -46.5t57 -18.5q26 0 60.5 9.5t63.5 30.5l51 -99q-45 -28 -94 -38.5t-94 -10.5q-42 0 -75.5 12t-57 34t-36 52t-12.5 65q0 21 4 40l31 160q17 84 69.5 127.5t147.5 43.5
q23 0 47.5 -3.5t47.5 -10.5t43.5 -17.5t35.5 -25.5zM483 749l42 -46l-176 -153h-87l-118 154l57 45q10 -8 26 -22.5t32.5 -30t32 -30t26.5 -23.5z" />
    <glyph glyph-name="Dcaronsmall" unicode="&#xe141;" horiz-adv-x="492" 
d="M452 169q-8 -43 -26.5 -74.5t-46 -52.5t-62.5 -31.5t-74 -10.5h-228l106 524h199q37 0 67.5 -11t52.5 -30.5t34 -46.5t12 -60q0 -17 -3 -33zM364 335q3 12 3 22q0 29 -18.5 45t-49.5 16h-79l-63 -314h75q44 0 69 19.5t33 67.5zM473 749l42 -46l-176 -153h-87l-118 154
l57 45q10 -8 26 -22.5t32.5 -30t32 -30t26.5 -23.5z" />
    <glyph glyph-name="Dcroatsmall" unicode="&#xe142;" horiz-adv-x="492" 
d="M452 169q-8 -43 -26.5 -74.5t-46 -52.5t-62.5 -31.5t-74 -10.5h-228l45 224h-52l15 82h54l44 218h199q37 0 67.5 -11t52.5 -30.5t34 -46.5t12 -60q0 -17 -3 -33zM364 335q3 12 3 22q0 29 -18.5 45t-49.5 16h-79l-23 -112h73l-15 -82h-74l-24 -120h75q44 0 69 19.5
t33 67.5z" />
    <glyph glyph-name="Emacronsmall" unicode="&#xe143;" horiz-adv-x="451" 
d="M119 524h375l-21 -106h-255l-21 -101h221l-20 -107h-222l-21 -105h262l-22 -105h-381zM157 598l21 104h312l-21 -104h-312z" />
    <glyph glyph-name="Ebrevesmall" unicode="&#xe144;" horiz-adv-x="451" 
d="M119 524h375l-21 -106h-255l-21 -101h221l-20 -107h-222l-21 -105h262l-22 -105h-381zM306 577q-41 0 -67.5 14.5t-41.5 36.5t-19.5 49t-2.5 53h91q-2 -10 -0.5 -21.5t7.5 -22t16 -17.5t26 -7q15 0 28 6.5t22.5 17t15.5 22t8 22.5h92q-5 -23 -17.5 -49.5t-33.5 -49.5
t-51.5 -38.5t-72.5 -15.5z" />
    <glyph glyph-name="Edotaccentsmall" unicode="&#xe145;" horiz-adv-x="451" 
d="M119 524h375l-21 -106h-255l-21 -101h221l-20 -107h-222l-21 -105h262l-22 -105h-381zM310 576q-30 0 -47.5 20.5t-12.5 50.5q5 31 30 52.5t56 21.5q29 0 46.5 -19t12.5 -50q-2 -15 -9.5 -29t-19 -24.5t-26 -16.5t-30.5 -6z" />
    <glyph glyph-name="Eogoneksmall" unicode="&#xe146;" horiz-adv-x="451" 
d="M119 524h375l-21 -106h-255l-21 -101h221l-20 -107h-222l-21 -105h262l-22 -105h-4q-53 -59 -57 -90q-3 -28 31 -28q11 0 26.5 3t37.5 13l15 -66q-27 -15 -55.5 -21t-54.5 -6q-44 0 -67 26t-18 64q3 21 15 46t44 59h-294z" />
    <glyph glyph-name="Ecaronsmall" unicode="&#xe147;" horiz-adv-x="451" 
d="M119 524h375l-21 -106h-255l-21 -101h221l-20 -107h-222l-21 -105h262l-22 -105h-381zM480 749l42 -46l-176 -153h-87l-118 154l57 45q10 -8 26 -22.5t32.5 -30t32 -30t26.5 -23.5z" />
    <glyph glyph-name="Gcircumflexsmall" unicode="&#xe148;" horiz-adv-x="475" 
d="M457 298l-46 -234q-24 -21 -49 -34.5t-49.5 -21t-48.5 -10.5t-45 -3q-44 0 -77 11.5t-56 32.5t-34.5 50t-11.5 63q0 11 1 22t3 22l34 164q9 43 30 74.5t50.5 52.5t65.5 31.5t74 10.5q23 0 47.5 -3.5t48 -10t44 -17t34.5 -24.5q-16 -23 -31.5 -46.5t-32.5 -46.5
q-23 22 -51.5 31t-53.5 9q-45 0 -72 -20.5t-37 -66.5l-29 -139q-3 -15 -3 -28q0 -28 15.5 -46.5t56.5 -18.5q14 0 31 3.5t36 16.5l16 71h-77l20 105h197zM332 653l-165 -109l-43 49l175 153h87l116 -153l-53 -43z" />
    <glyph glyph-name="Gbrevesmall" unicode="&#xe149;" horiz-adv-x="475" 
d="M457 298l-46 -234q-24 -21 -49 -34.5t-49.5 -21t-48.5 -10.5t-45 -3q-44 0 -77 11.5t-56 32.5t-34.5 50t-11.5 63q0 11 1 22t3 22l34 164q9 43 30 74.5t50.5 52.5t65.5 31.5t74 10.5q23 0 47.5 -3.5t48 -10t44 -17t34.5 -24.5q-16 -23 -31.5 -46.5t-32.5 -46.5
q-23 22 -51.5 31t-53.5 9q-45 0 -72 -20.5t-37 -66.5l-29 -139q-3 -15 -3 -28q0 -28 15.5 -46.5t56.5 -18.5q14 0 31 3.5t36 16.5l16 71h-77l20 105h197zM319 577q-41 0 -67.5 14.5t-41.5 36.5t-19.5 49t-2.5 53h91q-2 -10 -0.5 -21.5t7.5 -22t16 -17.5t26 -7q15 0 28 6.5
t22.5 17t15.5 22t8 22.5h92q-5 -23 -17.5 -49.5t-33.5 -49.5t-51.5 -38.5t-72.5 -15.5z" />
    <glyph glyph-name="Gdotaccentsmall" unicode="&#xe14a;" horiz-adv-x="475" 
d="M457 298l-46 -234q-24 -21 -49 -34.5t-49.5 -21t-48.5 -10.5t-45 -3q-44 0 -77 11.5t-56 32.5t-34.5 50t-11.5 63q0 11 1 22t3 22l34 164q9 43 30 74.5t50.5 52.5t65.5 31.5t74 10.5q23 0 47.5 -3.5t48 -10t44 -17t34.5 -24.5q-16 -23 -31.5 -46.5t-32.5 -46.5
q-23 22 -51.5 31t-53.5 9q-45 0 -72 -20.5t-37 -66.5l-29 -139q-3 -15 -3 -28q0 -28 15.5 -46.5t56.5 -18.5q14 0 31 3.5t36 16.5l16 71h-77l20 105h197zM315 576q-30 0 -47.5 20.5t-12.5 50.5q5 31 30 52.5t56 21.5q29 0 46.5 -19t12.5 -50q-2 -15 -9.5 -29t-19 -24.5
t-26 -16.5t-30.5 -6z" />
    <glyph glyph-name="Gcommaaccentsmall" unicode="&#xe14b;" horiz-adv-x="475" 
d="M457 298l-46 -234q-24 -21 -49 -34.5t-49.5 -21t-48.5 -10.5t-45 -3q-44 0 -77 11.5t-56 32.5t-34.5 50t-11.5 63q0 11 1 22t3 22l34 164q9 43 30 74.5t50.5 52.5t65.5 31.5t74 10.5q23 0 47.5 -3.5t48 -10t44 -17t34.5 -24.5q-16 -23 -31.5 -46.5t-32.5 -46.5
q-23 22 -51.5 31t-53.5 9q-45 0 -72 -20.5t-37 -66.5l-29 -139q-3 -15 -3 -28q0 -28 15.5 -46.5t56.5 -18.5q14 0 31 3.5t36 16.5l16 71h-77l20 105h197zM82 -263q31 15 49.5 32t26.5 40q-18 4 -30.5 22t-12.5 40q0 36 24.5 62t64.5 26q34 0 54.5 -22.5t20.5 -59.5
q0 -58 -44.5 -110t-120.5 -84z" />
    <glyph glyph-name="Hcircumflexsmall" unicode="&#xe14c;" horiz-adv-x="493" 
d="M305 0l44 213h-178l-42 -213h-121l105 524h120l-41 -204h177l41 204h123l-105 -524h-123zM347 653l-165 -109l-43 49l175 153h87l116 -153l-53 -43z" />
    <glyph glyph-name="Hbarsmall" unicode="&#xe14d;" horiz-adv-x="493" 
d="M305 0l44 213h-178l-42 -213h-121l76 380h-37l14 73h37l15 71h120l-15 -71h177l15 71h123l-15 -71h42l-14 -73h-42l-76 -380h-123zM369 320l12 60h-177l-12 -60h177z" />
    <glyph glyph-name="Itildesmall" unicode="&#xe14e;" horiz-adv-x="231" 
d="M249 524l-105 -524h-121l106 524h120zM152 726q19 0 35 -7t30 -15.5t26 -15t23 -6.5q16 0 32 9.5t39 35.5l12 -8t19.5 -13.5t20 -13.5t12.5 -8q-31 -57 -63.5 -79.5t-66.5 -22.5q-19 0 -35 6t-30.5 13.5t-27.5 13.5t-27 6q-17 0 -32.5 -8t-41.5 -35l-63 45q32 51 65 77
t73 26z" />
    <glyph glyph-name="Imacronsmall" unicode="&#xe14f;" horiz-adv-x="231" 
d="M249 524l-105 -524h-121l106 524h120zM45 598l21 104h312l-21 -104h-312z" />
    <glyph glyph-name="Ibrevesmall" unicode="&#xe150;" horiz-adv-x="231" 
d="M249 524l-105 -524h-121l106 524h120zM192 577q-41 0 -67.5 14.5t-41.5 36.5t-19.5 49t-2.5 53h91q-2 -10 -0.5 -21.5t7.5 -22t16 -17.5t26 -7q15 0 28 6.5t22.5 17t15.5 22t8 22.5h92q-5 -23 -17.5 -49.5t-33.5 -49.5t-51.5 -38.5t-72.5 -15.5z" />
    <glyph glyph-name="Iogoneksmall" unicode="&#xe151;" horiz-adv-x="231" 
d="M-17 -105q3 21 15 46t44 59h-19l106 524h120l-105 -524h-19q-53 -59 -57 -90q-3 -28 31 -28q11 0 26.5 3t37.5 13l15 -66q-27 -15 -55.5 -21t-54.5 -6q-44 0 -67 26t-18 64z" />
    <glyph glyph-name="Idotaccentsmall" unicode="&#xe152;" horiz-adv-x="231" 
d="M249 524l-105 -524h-121l106 524h120zM199 576q-30 0 -47.5 20.5t-12.5 50.5q5 31 30 52.5t56 21.5q29 0 46.5 -19t12.5 -50q-2 -15 -9.5 -29t-19 -24.5t-26 -16.5t-30.5 -6z" />
    <glyph glyph-name="IJsmall" unicode="&#xe153;" horiz-adv-x="632" 
d="M249 524l-105 -524h-121l106 524h120zM576 165q-17 -85 -76 -127.5t-148 -42.5q-21 0 -43.5 3.5t-44 10.5t-40.5 17.5t-33 24.5l70 90q26 -23 51.5 -29.5t46.5 -6.5q38 0 64.5 21t36.5 68l66 330h122z" />
    <glyph glyph-name="Jcircumflexsmall" unicode="&#xe154;" horiz-adv-x="418" 
d="M362 165q-17 -85 -76 -127.5t-148 -42.5q-21 0 -43.5 3.5t-44 10.5t-40.5 17.5t-33 24.5l70 90q26 -23 51.5 -29.5t46.5 -6.5q38 0 64.5 21t36.5 68l66 330h122zM404 653l-165 -109l-43 49l175 153h87l116 -153l-53 -43z" />
    <glyph glyph-name="Kcommaaccentsmall" unicode="&#xe155;" horiz-adv-x="476" 
d="M239 225l-83 -78l-30 -147h-120l104 524h121l-41 -208l220 208h147l-227 -215l129 -309h-134zM98 -263q31 15 49.5 32t26.5 40q-18 4 -30.5 22t-12.5 40q0 36 24.5 62t64.5 26q34 0 54.5 -22.5t20.5 -59.5q0 -58 -44.5 -110t-120.5 -84z" />
    <glyph glyph-name="Lacutesmall" unicode="&#xe156;" horiz-adv-x="435" 
d="M10 0l105 524h120l-84 -418h260l-21 -106h-380zM143 581l118 195l109 -37l-160 -185z" />
    <glyph glyph-name="Lcommaaccentsmall" unicode="&#xe157;" horiz-adv-x="435" 
d="M10 0l105 524h120l-84 -418h260l-21 -106h-380zM59 -263q31 15 49.5 32t26.5 40q-18 4 -30.5 22t-12.5 40q0 36 24.5 62t64.5 26q34 0 54.5 -22.5t20.5 -59.5q0 -58 -44.5 -110t-120.5 -84z" />
    <glyph glyph-name="Lcaronsmall" unicode="&#xe158;" horiz-adv-x="435" 
d="M10 0l105 524h120l-84 -418h260l-21 -106h-380zM261 313q31 15 49.5 32t26.5 40q-18 4 -30.5 22t-12.5 40q0 36 24.5 62t64.5 26q34 0 54.5 -22.5t20.5 -59.5q0 -58 -44.5 -110t-120.5 -84z" />
    <glyph glyph-name="Ldotsmall" unicode="&#xe159;" horiz-adv-x="435" 
d="M10 0l105 524h120l-84 -418h260l-21 -106h-380zM330 218q-30 0 -47.5 20.5t-12.5 50.5q5 31 30 52.5t56 21.5q29 0 46.5 -19t12.5 -50q-2 -15 -9.5 -29t-19 -24.5t-26 -16.5t-30.5 -6z" />
    <glyph glyph-name="Lslashsmall" unicode="&#xe15a;" horiz-adv-x="435" 
d="M10 0l29 144l-39 -19l-16 70l72 35l59 294h120l-46 -228l129 64l18 -70l-164 -81l-21 -103h260l-21 -106h-380z" />
    <glyph glyph-name="Nacutesmall" unicode="&#xe15b;" horiz-adv-x="526" 
d="M373 215l60 309h120q-4 -22 -12.5 -63t-18.5 -92t-21.5 -107t-21.5 -107t-18 -92t-12 -63h-107l-85 185q-4 10 -12.5 28.5t-17.5 39t-17.5 39t-12.5 28.5h-2q-3 -14 -8 -39.5t-11.5 -56t-13 -64.5t-12.5 -64.5t-11 -56t-8 -39.5h-121q4 22 12 63t18.5 92t21.5 107t21 107
t18 92t13 63h106l74 -152l74 -157h5zM287 581l118 195l109 -37l-160 -185z" />
    <glyph glyph-name="Ncommaaccentsmall" unicode="&#xe15c;" horiz-adv-x="526" 
d="M373 215l60 309h120q-4 -22 -12.5 -63t-18.5 -92t-21.5 -107t-21.5 -107t-18 -92t-12 -63h-107l-85 185q-4 10 -12.5 28.5t-17.5 39t-17.5 39t-12.5 28.5h-2q-3 -14 -8 -39.5t-11.5 -56t-13 -64.5t-12.5 -64.5t-11 -56t-8 -39.5h-121q4 22 12 63t18.5 92t21.5 107t21 107
t18 92t13 63h106l74 -152l74 -157h5zM108 -263q31 15 49.5 32t26.5 40q-18 4 -30.5 22t-12.5 40q0 36 24.5 62t64.5 26q34 0 54.5 -22.5t20.5 -59.5q0 -58 -44.5 -110t-120.5 -84z" />
    <glyph glyph-name="Ncaronsmall" unicode="&#xe15d;" horiz-adv-x="526" 
d="M373 215l60 309h120q-4 -22 -12.5 -63t-18.5 -92t-21.5 -107t-21.5 -107t-18 -92t-12 -63h-107l-85 185q-4 10 -12.5 28.5t-17.5 39t-17.5 39t-12.5 28.5h-2q-3 -14 -8 -39.5t-11.5 -56t-13 -64.5t-12.5 -64.5t-11 -56t-8 -39.5h-121q4 22 12 63t18.5 92t21.5 107t21 107
t18 92t13 63h106l74 -152l74 -157h5zM511 749l42 -46l-176 -153h-87l-118 154l57 45q10 -8 26 -22.5t32.5 -30t32 -30t26.5 -23.5z" />
    <glyph glyph-name="Engsmall" unicode="&#xe15e;" horiz-adv-x="523" 
d="M372 210q7 35 14 75.5t14.5 81.5t14.5 81.5t14 75.5h119l-117 -605q-12 -64 -46.5 -90t-84.5 -26q-20 0 -49.5 6t-53.5 17l29 94q10 -3 21 -5t19 -2q23 0 34.5 10t16.5 36l13 66q-17 37 -34.5 74t-35.5 74l-69 141h-2q-14 -79 -28 -157t-28 -157h-120l97 524h107
q18 -37 35 -74t35 -75q21 -42 40.5 -82.5t39.5 -82.5h5z" />
    </font>
</defs>
</svg>
